STARTFONT 2.1
FONT -FontForge-Gontserrat-Book-R-Normal--32-310-75-75-P-175-ISO10646-1
SIZE 31 75 75
FONTBOUNDINGBOX 63 47 -17 -12
COMMENT "Generated by fontforge, http://fontforge.sourceforge.net"
COMMENT "Gontserrat is a derivative work of Montserrat under the Open Font License. Copyright 2020 Ospiro Enterprises (ospiro.com)"
COMMENT ""
COMMENT "Copyright notice for Montserrat: Copyright 2011 The Montserrat Project Authors (julieta.ulanovsky@gmail.com)"
STARTPROPERTIES 40
FOUNDRY "FontForge"
FAMILY_NAME "Gontserrat"
WEIGHT_NAME "Book"
SLANT "R"
SETWIDTH_NAME "Normal"
ADD_STYLE_NAME ""
PIXEL_SIZE 32
POINT_SIZE 310
RESOLUTION_X 75
RESOLUTION_Y 75
SPACING "P"
AVERAGE_WIDTH 175
CHARSET_REGISTRY "ISO10646"
CHARSET_ENCODING "1"
FONTNAME_REGISTRY ""
CHARSET_COLLECTIONS "ISO8859-2 ISO8859-9 ISO8859-4 ISO10646-1"
FONT_NAME "Gontserrat-Regular"
FACE_NAME "Gontserrat Regular"
COPYRIGHT "Gontserrat is a derivative work of Montserrat under the Open Font License. Copyright 2020 Ospiro Enterprises (ospiro.com)"
FONT_VERSION "6.001"
FONT_ASCENT 25
FONT_DESCENT 7
UNDERLINE_POSITION -3
UNDERLINE_THICKNESS 2
X_HEIGHT 16
CAP_HEIGHT 21
DEFAULT_CHAR 3
RAW_ASCENT 800
RAW_DESCENT 200
NORM_SPACE 8
RELATIVE_WEIGHT 40
RELATIVE_SETWIDTH 50
SUPERSCRIPT_X 0
SUPERSCRIPT_Y 11
SUPERSCRIPT_SIZE 19
SUBSCRIPT_X 0
SUBSCRIPT_Y 2
SUBSCRIPT_SIZE 19
AVG_LOWERCASE_WIDTH 182
AVG_UPPERCASE_WIDTH 225
ENDPROPERTIES
CHARS 1597
STARTCHAR NULL
ENCODING 0
SWIDTH 0 0
DWIDTH 0 0
BBX 1 1 0 0
BITMAP
00
ENDCHAR
STARTCHAR nonmarkingreturn
ENCODING 13
SWIDTH 262 0
DWIDTH 8 0
BBX 1 1 0 0
BITMAP
00
ENDCHAR
STARTCHAR space
ENCODING 32
SWIDTH 262 0
DWIDTH 8 0
BBX 1 1 0 0
BITMAP
00
ENDCHAR
STARTCHAR exclam
ENCODING 33
SWIDTH 206 0
DWIDTH 7 0
BBX 3 22 2 0
BITMAP
E0
E0
E0
E0
E0
E0
E0
E0
E0
E0
E0
60
60
60
60
00
00
00
60
E0
E0
E0
ENDCHAR
STARTCHAR quotedbl
ENCODING 34
SWIDTH 334 0
DWIDTH 11 0
BBX 7 7 2 15
BITMAP
CE
CE
CE
CE
CE
CE
CE
ENDCHAR
STARTCHAR numbersign
ENCODING 35
SWIDTH 721 0
DWIDTH 23 0
BBX 21 22 1 0
BITMAP
018180
038180
038180
030180
030380
030380
7FFFF8
7FFFF8
070300
070300
070300
060700
060700
060700
FFFFF0
FFFFF0
FFFFF0
0E0600
0E0600
0C0600
0C0E00
0C0E00
ENDCHAR
STARTCHAR dollar
ENCODING 36
SWIDTH 616 0
DWIDTH 20 0
BBX 17 31 1 -4
BITMAP
00C000
00C000
00C000
00C000
03F800
0FFE00
3FFF80
3C0F00
780300
780000
780000
780000
3C0000
3F8000
1FF000
07FC00
00FE00
001F00
000780
000780
000380
400380
F00780
FC0F00
7FFE00
1FFC00
03F000
00C000
00C000
00C000
00C000
ENDCHAR
STARTCHAR percent
ENCODING 37
SWIDTH 955 0
DWIDTH 31 0
BBX 28 22 1 0
BITMAP
0F800700
3FC00E00
70E01C00
60601800
E0303000
C0307000
C030E000
C030C000
E0318000
60630F80
70E73FE0
3FCE3060
1F8C6070
00186030
00386030
00706030
00606030
00C06030
01C06030
03803060
03003FE0
06000F80
ENDCHAR
STARTCHAR ampersand
ENCODING 38
SWIDTH 655 0
DWIDTH 21 0
BBX 19 22 2 0
BITMAP
03E000
0FF000
1C3800
181C00
181C00
181800
183800
1C7000
0EE000
0FC000
0F0000
3F8100
71C180
E0E380
E07380
C03F00
C01E00
E01F00
F03F80
7FFBC0
3FE1E0
0F80C0
ENDCHAR
STARTCHAR quotesingle
ENCODING 39
SWIDTH 193 0
DWIDTH 6 0
BBX 2 7 2 15
BITMAP
C0
C0
C0
C0
C0
C0
C0
ENDCHAR
STARTCHAR parenleft
ENCODING 40
SWIDTH 304 0
DWIDTH 10 0
BBX 7 27 2 -3
BITMAP
0E
1C
1C
38
38
38
70
70
70
70
60
60
E0
E0
E0
60
60
70
70
70
70
30
38
38
18
1C
0E
ENDCHAR
STARTCHAR parenright
ENCODING 41
SWIDTH 304 0
DWIDTH 10 0
BBX 6 27 1 -3
BITMAP
E0
60
70
70
38
38
38
1C
1C
1C
1C
1C
1C
1C
1C
1C
1C
1C
1C
1C
18
38
38
38
70
70
E0
ENDCHAR
STARTCHAR asterisk
ENCODING 42
SWIDTH 337 0
DWIDTH 11 0
BBX 9 10 1 13
BITMAP
0800
0800
C980
FF80
3E00
3E00
FF80
C980
0800
0800
ENDCHAR
STARTCHAR plus
ENCODING 43
SWIDTH 494 0
DWIDTH 16 0
BBX 14 14 1 3
BITMAP
0300
0300
0300
0300
0300
0300
FFFC
FFFC
FFFC
0300
0300
0300
0300
0300
ENDCHAR
STARTCHAR comma
ENCODING 44
SWIDTH 204 0
DWIDTH 7 0
BBX 4 7 1 -4
BITMAP
70
70
70
60
60
60
C0
ENDCHAR
STARTCHAR hyphen
ENCODING 45
SWIDTH 366 0
DWIDTH 12 0
BBX 8 3 2 9
BITMAP
FF
FF
FF
ENDCHAR
STARTCHAR period
ENCODING 46
SWIDTH 207 0
DWIDTH 7 0
BBX 3 4 2 0
BITMAP
E0
E0
E0
E0
ENDCHAR
STARTCHAR slash
ENCODING 47
SWIDTH 323 0
DWIDTH 10 0
BBX 12 30 0 -4
BITMAP
0070
0070
0060
00E0
00E0
00C0
01C0
01C0
0180
0380
0380
0300
0700
0700
0600
0E00
0E00
0C00
1C00
1C00
1800
3800
3800
3000
7000
7000
6000
E000
E000
C000
ENDCHAR
STARTCHAR zero
ENCODING 48
SWIDTH 711 0
DWIDTH 23 0
BBX 19 22 2 0
BITMAP
03F800
0FFE00
1FFF00
3C0780
7803C0
7001C0
7001C0
F001E0
F000E0
E000E0
E000E0
E000E0
E000E0
F000E0
F001E0
7001C0
7001C0
3803C0
3C0780
1FFF00
0FFE00
03F800
ENDCHAR
STARTCHAR one
ENCODING 49
SWIDTH 369 0
DWIDTH 12 0
BBX 8 22 0 0
BITMAP
FF
FF
FF
07
07
07
07
07
07
07
07
07
07
07
07
07
07
07
07
07
07
07
ENDCHAR
STARTCHAR two
ENCODING 50
SWIDTH 578 0
DWIDTH 19 0
BBX 16 22 1 0
BITMAP
07E0
3FF8
7FFC
F01E
400E
000E
000E
001E
001C
003C
0078
00F0
01E0
03C0
0780
0F00
1E00
3C00
3800
7FFF
FFFF
FFFF
ENDCHAR
STARTCHAR three
ENCODING 51
SWIDTH 585 0
DWIDTH 19 0
BBX 17 22 0 0
BITMAP
3FFF00
3FFF00
3FFE00
001C00
003800
007000
00E000
01C000
038000
07F800
07FE00
001F00
000780
000380
000380
000380
000380
400780
700F00
FFFE00
3FFC00
0FF000
ENDCHAR
STARTCHAR four
ENCODING 52
SWIDTH 591 0
DWIDTH 19 0
BBX 17 22 1 0
BITMAP
01E000
01C000
038000
070000
070000
0E0000
0E0000
1C0000
1C1C00
381C00
701C00
701C00
E01C00
FFFF80
FFFF80
FFFF80
001C00
001C00
001C00
001C00
001C00
001C00
ENDCHAR
STARTCHAR five
ENCODING 53
SWIDTH 615 0
DWIDTH 20 0
BBX 16 22 2 0
BITMAP
3FFE
3FFE
3FFE
3000
3000
3000
3000
3000
3FF0
3FFC
3FFE
001F
000F
0007
0007
0007
0007
400F
E01E
FFFE
7FF8
0FE0
ENDCHAR
STARTCHAR six
ENCODING 54
SWIDTH 637 0
DWIDTH 20 0
BBX 17 22 2 0
BITMAP
03F800
0FFF00
1FFE00
3C0200
380000
700000
700000
E0C000
E7FC00
EFFE00
FC1F00
F80700
F00700
F00380
F00380
F00380
700380
700700
3C0F00
1FFE00
0FFC00
03F000
ENDCHAR
STARTCHAR seven
ENCODING 55
SWIDTH 567 0
DWIDTH 18 0
BBX 17 22 0 0
BITMAP
FFFF80
FFFF80
FFFF80
E00780
E00700
E00F00
000E00
001E00
001C00
003C00
003800
007800
007000
00F000
00E000
01E000
01C000
03C000
038000
078000
070000
0F0000
ENDCHAR
STARTCHAR eight
ENCODING 56
SWIDTH 636 0
DWIDTH 20 0
BBX 17 22 2 0
BITMAP
07F000
1FFC00
3FFE00
780E00
700600
700700
700600
700E00
381C00
1FF800
0FF800
3FFE00
700F00
E00700
E00300
E00380
E00380
E00700
F00F00
7FFE00
3FFC00
0FF000
ENDCHAR
STARTCHAR nine
ENCODING 57
SWIDTH 634 0
DWIDTH 20 0
BBX 17 22 2 0
BITMAP
0FE000
3FF800
7FFC00
701E00
E00E00
E00700
E00700
E00700
E00700
E00F00
701F80
7FFF00
3FF700
0FC700
000700
000700
000E00
000E00
203C00
7FF800
7FF000
1FC000
ENDCHAR
STARTCHAR colon
ENCODING 58
SWIDTH 207 0
DWIDTH 7 0
BBX 3 14 2 0
BITMAP
E0
E0
E0
E0
00
00
00
00
00
00
E0
E0
E0
E0
ENDCHAR
STARTCHAR semicolon
ENCODING 59
SWIDTH 206 0
DWIDTH 7 0
BBX 4 18 1 -4
BITMAP
70
70
70
70
00
00
00
00
00
00
00
70
70
70
60
60
60
C0
ENDCHAR
STARTCHAR less
ENCODING 60
SWIDTH 494 0
DWIDTH 16 0
BBX 14 15 1 3
BITMAP
0004
001C
007C
03F0
0F80
3E00
F800
C000
F000
3E00
0F80
03E0
00FC
001C
0004
ENDCHAR
STARTCHAR equal
ENCODING 61
SWIDTH 494 0
DWIDTH 16 0
BBX 14 9 1 6
BITMAP
FFFC
FFFC
FFFC
0000
0000
0000
FFFC
FFFC
FFFC
ENDCHAR
STARTCHAR greater
ENCODING 62
SWIDTH 494 0
DWIDTH 16 0
BBX 14 15 1 3
BITMAP
8000
E000
F800
3F00
07C0
01F0
007C
001C
007C
01F0
0FC0
3F00
F800
E000
8000
ENDCHAR
STARTCHAR question
ENCODING 63
SWIDTH 432 0
DWIDTH 14 0
BBX 12 22 1 0
BITMAP
1F80
3FE0
7FF0
E070
C070
C070
0070
0070
00E0
01C0
0380
0700
0600
0E00
0000
0000
0000
0000
0E00
0E00
0E00
0E00
ENDCHAR
STARTCHAR at
ENCODING 64
SWIDTH 981 0
DWIDTH 31 0
BBX 29 28 1 -6
BITMAP
001FE000
00FFFC00
03FFFE00
07C00F80
0F0003C0
1E0001C0
3C0600E0
383F9C70
70FFFC30
70F0FC30
61E03C38
E1C03C18
E3C01C18
E3801C18
C3801C18
E3801C18
E1C03C18
61C03C38
61E07C38
70FFEC70
307FCFE0
381F87C0
1C000100
0F000000
07801800
03FFFC00
00FFF000
003FC000
ENDCHAR
STARTCHAR A
ENCODING 65
SWIDTH 726 0
DWIDTH 23 0
BBX 23 22 0 0
BITMAP
003800
007C00
007C00
00EE00
00EE00
00E700
01C700
01C780
038380
0383C0
0701C0
0701C0
0F00E0
0E00E0
1FFFF0
1FFFF0
1FFFF8
380038
38003C
70001C
70001E
F0000E
ENDCHAR
STARTCHAR B
ENCODING 66
SWIDTH 712 0
DWIDTH 23 0
BBX 18 22 3 0
BITMAP
FFF800
FFFE00
FFFF00
E00780
E00380
E00380
E00380
E00780
E00F00
FFFE00
FFFE00
FFFF00
E00780
E003C0
E001C0
E001C0
E001C0
E003C0
E00780
FFFF80
FFFF00
FFFC00
ENDCHAR
STARTCHAR C
ENCODING 67
SWIDTH 699 0
DWIDTH 22 0
BBX 20 22 1 0
BITMAP
00FE00
03FFC0
0FFFE0
1F00F0
3C0060
380020
780000
700000
F00000
E00000
E00000
E00000
E00000
F00000
700000
780000
380000
3C0020
1F00F0
0FFFE0
03FFC0
00FE00
ENDCHAR
STARTCHAR D
ENCODING 68
SWIDTH 783 0
DWIDTH 25 0
BBX 21 22 3 0
BITMAP
FFF800
FFFE00
FFFF80
E007C0
E001E0
E000E0
E000F0
E00070
E00078
E00038
E00038
E00038
E00038
E00078
E00070
E00070
E000E0
E001E0
E007C0
FFFF80
FFFE00
FFF800
ENDCHAR
STARTCHAR E
ENCODING 69
SWIDTH 653 0
DWIDTH 21 0
BBX 16 22 3 0
BITMAP
FFFF
FFFF
FFFF
E000
E000
E000
E000
E000
E000
FFFC
FFFC
FFFC
E000
E000
E000
E000
E000
E000
E000
FFFF
FFFF
FFFF
ENDCHAR
STARTCHAR F
ENCODING 70
SWIDTH 568 0
DWIDTH 18 0
BBX 15 22 3 0
BITMAP
FFFE
FFFE
FFFE
E000
E000
E000
E000
E000
E000
E000
FFFC
FFFC
FFFC
E000
E000
E000
E000
E000
E000
E000
E000
E000
ENDCHAR
STARTCHAR G
ENCODING 71
SWIDTH 751 0
DWIDTH 24 0
BBX 21 23 1 0
BITMAP
001800
01FF80
07FFE0
0FC1F0
1E0070
3C0020
780000
700000
700000
F00000
E00000
E00FF8
E00FF8
E00FF8
700038
700038
780038
380038
3E0038
1F00F8
0FFFF0
03FFE0
00FF00
ENDCHAR
STARTCHAR H
ENCODING 72
SWIDTH 793 0
DWIDTH 25 0
BBX 19 22 3 0
BITMAP
E000E0
E000E0
E000E0
E000E0
E000E0
E000E0
E000E0
E000E0
E000E0
FFFFE0
FFFFE0
FFFFE0
E000E0
E000E0
E000E0
E000E0
E000E0
E000E0
E000E0
E000E0
E000E0
E000E0
ENDCHAR
STARTCHAR I
ENCODING 73
SWIDTH 296 0
DWIDTH 9 0
BBX 3 22 3 0
BITMAP
E0
E0
E0
E0
E0
E0
E0
E0
E0
E0
E0
E0
E0
E0
E0
E0
E0
E0
E0
E0
E0
E0
ENDCHAR
STARTCHAR J
ENCODING 74
SWIDTH 490 0
DWIDTH 16 0
BBX 13 22 0 0
BITMAP
3FF8
3FF8
3FF8
0038
0038
0038
0038
0038
0038
0038
0038
0038
0038
0038
0038
0038
0038
4078
E070
FFF0
7FE0
1F80
ENDCHAR
STARTCHAR K
ENCODING 75
SWIDTH 707 0
DWIDTH 23 0
BBX 19 22 3 0
BITMAP
E003C0
E00780
E00F00
E00E00
E01C00
E03800
E07000
E0F000
E1E000
E3C000
E7C000
EFE000
FEF000
FC7000
F87800
F03C00
E01E00
E00F00
E00700
E00780
E003C0
E001E0
ENDCHAR
STARTCHAR L
ENCODING 76
SWIDTH 524 0
DWIDTH 17 0
BBX 13 22 3 0
BITMAP
E000
E000
E000
E000
E000
E000
E000
E000
E000
E000
E000
E000
E000
E000
E000
E000
E000
E000
E000
FFF8
FFF8
FFF8
ENDCHAR
STARTCHAR M
ENCODING 77
SWIDTH 939 0
DWIDTH 30 0
BBX 24 22 3 0
BITMAP
F0000F
F8001F
F8001F
FC003F
FC003F
FE0077
EE0077
E700E7
E700E7
E381C7
E381C7
E1C387
E1C387
E0E707
E0F707
E07E07
E07E07
E03C07
E03C07
E01807
E00007
E00007
ENDCHAR
STARTCHAR N
ENCODING 78
SWIDTH 794 0
DWIDTH 25 0
BBX 19 22 3 0
BITMAP
F000E0
F000E0
F800E0
FC00E0
FE00E0
FE00E0
EF00E0
E780E0
E3C0E0
E1C0E0
E1E0E0
E0F0E0
E078E0
E038E0
E03CE0
E01EE0
E00FE0
E007E0
E007E0
E003E0
E001E0
E000E0
ENDCHAR
STARTCHAR O
ENCODING 79
SWIDTH 812 0
DWIDTH 26 0
BBX 24 22 1 0
BITMAP
00FF00
03FFC0
0FFFF0
1F00F8
3E007C
38001C
78001E
70000E
F0000E
E0000F
E00007
E00007
E0000F
F0000E
70000E
78001E
38001C
3E007C
1F00F8
0FFFE0
03FFC0
00FE00
ENDCHAR
STARTCHAR P
ENCODING 80
SWIDTH 671 0
DWIDTH 21 0
BBX 18 22 3 0
BITMAP
FFF800
FFFE00
FFFF00
E00780
E00380
E00380
E001C0
E001C0
E001C0
E00380
E00380
E00780
FFFF00
FFFE00
FFF800
E00000
E00000
E00000
E00000
E00000
E00000
E00000
ENDCHAR
STARTCHAR Q
ENCODING 81
SWIDTH 822 0
DWIDTH 26 0
BBX 25 27 1 -5
BITMAP
00FF0000
03FFC000
0FFFF000
1F00F800
3E007C00
38001C00
78001E00
70000E00
F0000E00
E0000F00
E0000700
E0000700
E0000F00
F0000E00
70000E00
78001E00
38001C00
3E007C00
1F00F800
0FFFF000
03FFC000
00FF0000
00070100
0007C780
0003FF80
0000FE00
00001000
ENDCHAR
STARTCHAR R
ENCODING 82
SWIDTH 723 0
DWIDTH 23 0
BBX 18 22 3 0
BITMAP
FFF800
FFFE00
FFFF00
E00780
E00380
E001C0
E001C0
E001C0
E001C0
E001C0
E00380
E00780
FFFF00
FFFE00
FFF800
E01C00
E01C00
E00E00
E00F00
E00700
E00380
E003C0
ENDCHAR
STARTCHAR S
ENCODING 83
SWIDTH 616 0
DWIDTH 20 0
BBX 17 22 1 0
BITMAP
03F800
0FFF80
3FFF00
3C0700
780100
780000
780000
7C0000
3E0000
1FC000
0FF800
03FE00
007F00
000F80
000780
000780
400380
600780
F80F00
7FFF00
3FFC00
07F000
ENDCHAR
STARTCHAR T
ENCODING 84
SWIDTH 567 0
DWIDTH 18 0
BBX 18 22 0 0
BITMAP
FFFFC0
FFFFC0
FFFFC0
00E000
00E000
00E000
00E000
00E000
00E000
00E000
00E000
00E000
00E000
00E000
00E000
00E000
00E000
00E000
00E000
00E000
00E000
00E000
ENDCHAR
STARTCHAR U
ENCODING 85
SWIDTH 762 0
DWIDTH 24 0
BBX 19 22 3 0
BITMAP
E000E0
E000E0
E000E0
E000E0
E000E0
E000E0
E000E0
E000E0
E000E0
E000E0
E000E0
E000E0
E000E0
E000E0
E001E0
E001C0
F001C0
7003C0
780780
3FFF00
1FFE00
07F800
ENDCHAR
STARTCHAR V
ENCODING 86
SWIDTH 676 0
DWIDTH 22 0
BBX 21 22 0 0
BITMAP
F00038
700038
700070
380070
3800F0
3C00E0
1C00E0
1C01C0
0E01C0
0E03C0
0F0380
070380
070700
038700
038F00
01CE00
01CE00
01DC00
00FC00
00F800
007800
007800
ENDCHAR
STARTCHAR W
ENCODING 87
SWIDTH 1046 0
DWIDTH 33 0
BBX 33 22 0 0
BITMAP
F001E00380
7001E00380
7003E00700
7803E00700
3803F00700
3803700E00
3C07300E00
1C07380E00
1C06381C00
1C0E181C00
0E0E1C1C00
0E0C1C1800
0E1C1C3800
071C0E3800
07180E3000
07380E7000
03B8077000
03B0076000
01F007E000
01F003E000
01E003C000
00E003C000
ENDCHAR
STARTCHAR X
ENCODING 88
SWIDTH 677 0
DWIDTH 22 0
BBX 20 22 1 0
BITMAP
F001E0
7801C0
3C0380
1C0780
1E0F00
0F0E00
071E00
07BC00
03F800
01F000
00F000
01F000
01F800
03BC00
079C00
0F1E00
0E0F00
1E0780
3C0380
7803C0
7001E0
F000F0
ENDCHAR
STARTCHAR Y
ENCODING 89
SWIDTH 630 0
DWIDTH 20 0
BBX 20 22 0 0
BITMAP
F00070
7000E0
3801E0
3801C0
1C0380
1E0380
0E0700
0F0F00
070E00
039E00
03DC00
01F800
01F800
00F000
00F000
007000
007000
007000
007000
007000
007000
007000
ENDCHAR
STARTCHAR Z
ENCODING 90
SWIDTH 662 0
DWIDTH 21 0
BBX 19 22 1 0
BITMAP
7FFFE0
7FFFE0
7FFFC0
0003C0
000780
000F00
001E00
001C00
003800
007800
00F000
01E000
03C000
038000
070000
0F0000
1E0000
3C0000
780000
7FFFE0
FFFFE0
FFFFE0
ENDCHAR
STARTCHAR bracketleft
ENCODING 91
SWIDTH 319 0
DWIDTH 10 0
BBX 7 28 3 -4
BITMAP
FE
FE
FE
E0
E0
E0
E0
E0
E0
E0
E0
E0
E0
E0
E0
E0
E0
E0
E0
E0
E0
E0
E0
E0
E0
FE
FE
FE
ENDCHAR
STARTCHAR backslash
ENCODING 92
SWIDTH 323 0
DWIDTH 10 0
BBX 13 30 -2 -4
BITMAP
E000
6000
7000
7000
3000
3800
3800
1800
1C00
1C00
0C00
0E00
0E00
0600
0700
0700
0300
0380
0380
0180
01C0
01C0
00C0
00E0
00E0
0060
0070
0070
0030
0038
ENDCHAR
STARTCHAR bracketright
ENCODING 93
SWIDTH 319 0
DWIDTH 10 0
BBX 6 28 1 -4
BITMAP
FC
FC
FC
0C
0C
0C
0C
0C
0C
0C
0C
0C
0C
0C
0C
0C
0C
0C
0C
0C
0C
0C
0C
0C
0C
FC
FC
FC
ENDCHAR
STARTCHAR asciicircum
ENCODING 94
SWIDTH 524 0
DWIDTH 17 0
BBX 15 13 1 4
BITMAP
0380
0380
07C0
06C0
0CE0
0C60
1C70
1830
3838
3018
701C
600C
E00E
ENDCHAR
STARTCHAR underscore
ENCODING 95
SWIDTH 560 0
DWIDTH 18 0
BBX 18 2 0 -7
BITMAP
FFFFC0
FFFFC0
ENDCHAR
STARTCHAR grave
ENCODING 96
SWIDTH 330 0
DWIDTH 11 0
BBX 7 4 2 20
BITMAP
30
F0
38
1E
ENDCHAR
STARTCHAR a
ENCODING 97
SWIDTH 581 0
DWIDTH 19 0
BBX 15 17 1 0
BITMAP
07F0
1FF8
7FFC
301E
000E
000E
000E
0FFE
3FFE
7FFE
700E
E00E
E00E
703E
7FFE
3FEE
0F8E
ENDCHAR
STARTCHAR b
ENCODING 98
SWIDTH 678 0
DWIDTH 22 0
BBX 17 24 3 0
BITMAP
E00000
E00000
E00000
E00000
E00000
E00000
E00000
E3F000
E7FC00
EFFE00
FC0F00
F00780
F00380
E00380
E00380
E00380
E00380
E00380
F00380
F00780
FC0F00
EFFE00
E7FC00
E3F000
ENDCHAR
STARTCHAR c
ENCODING 99
SWIDTH 562 0
DWIDTH 18 0
BBX 16 17 1 0
BITMAP
03F0
0FFC
3FFE
3C0E
7804
7000
E000
E000
E000
E000
E000
7000
7804
3C06
3FFF
0FFC
03F0
ENDCHAR
STARTCHAR d
ENCODING 100
SWIDTH 680 0
DWIDTH 22 0
BBX 18 24 1 0
BITMAP
0001C0
0001C0
0001C0
0001C0
0001C0
0001C0
0001C0
07E1C0
1FF9C0
3FFDC0
3C0FC0
7807C0
7003C0
F003C0
E001C0
E001C0
E001C0
F003C0
7003C0
7807C0
3C0FC0
3FFDC0
1FF9C0
07E1C0
ENDCHAR
STARTCHAR e
ENCODING 101
SWIDTH 588 0
DWIDTH 19 0
BBX 17 17 1 0
BITMAP
03F000
0FFC00
3FFE00
380E00
700700
700300
E00300
FFFF80
FFFF80
FFFF80
E00000
700000
780200
3C0600
3FFF00
0FFC00
03F000
ENDCHAR
STARTCHAR f
ENCODING 102
SWIDTH 342 0
DWIDTH 11 0
BBX 11 24 1 0
BITMAP
03C0
0FE0
1FE0
1C00
1C00
3800
3800
FFC0
FFC0
FFC0
3800
3800
3800
3800
3800
3800
3800
3800
3800
3800
3800
3800
3800
3800
ENDCHAR
STARTCHAR g
ENCODING 103
SWIDTH 638 0
DWIDTH 20 0
BBX 17 23 1 -6
BITMAP
07E380
1FF380
3FFB80
780F80
700780
700780
E00380
E00380
E00380
E00380
700780
700780
780F80
3FFB80
1FF380
07E380
000380
000780
200700
300F00
7FFE00
1FFC00
07F000
ENDCHAR
STARTCHAR h
ENCODING 104
SWIDTH 665 0
DWIDTH 21 0
BBX 16 24 3 0
BITMAP
E000
E000
E000
E000
E000
E000
E000
E3F0
E7FC
EFFE
F81E
F00F
F007
E007
E007
E007
E007
E007
E007
E007
E007
E007
E007
E007
ENDCHAR
STARTCHAR i
ENCODING 105
SWIDTH 274 0
DWIDTH 9 0
BBX 3 24 3 0
BITMAP
E0
E0
E0
E0
00
00
00
E0
E0
E0
E0
E0
E0
E0
E0
E0
E0
E0
E0
E0
E0
E0
E0
E0
ENDCHAR
STARTCHAR j
ENCODING 106
SWIDTH 263 0
DWIDTH 8 0
BBX 8 30 -2 -6
BITMAP
07
07
0F
07
00
00
00
07
07
07
07
07
07
07
07
07
07
07
07
07
07
07
07
07
07
07
0F
7E
FE
F8
ENDCHAR
STARTCHAR k
ENCODING 107
SWIDTH 582 0
DWIDTH 19 0
BBX 15 24 3 0
BITMAP
E000
E000
E000
E000
E000
E000
E000
E01E
E038
E070
E0E0
E1C0
E3C0
E780
EF80
FFC0
FDC0
F9E0
F0F0
E070
E078
E03C
E01C
E01E
ENDCHAR
STARTCHAR l
ENCODING 108
SWIDTH 285 0
DWIDTH 9 0
BBX 3 24 3 0
BITMAP
E0
E0
E0
E0
E0
E0
E0
E0
E0
E0
E0
E0
E0
E0
E0
E0
E0
E0
E0
E0
E0
E0
E0
E0
ENDCHAR
STARTCHAR m
ENCODING 109
SWIDTH 1044 0
DWIDTH 33 0
BBX 28 17 3 0
BITMAP
E3F01F80
EFFC7FC0
FFFCFFE0
F81FC1E0
F00F80F0
E00F0070
E00F0070
E00F0070
E00E0070
E00E0070
E00E0070
E00E0070
E00E0070
E00E0070
E00E0070
E00E0070
E00E0070
ENDCHAR
STARTCHAR n
ENCODING 110
SWIDTH 659 0
DWIDTH 21 0
BBX 16 17 3 0
BITMAP
E3F0
EFFC
FFFE
F81E
F00E
E00F
E007
E007
E007
E007
E007
E007
E007
E007
E007
E007
E007
ENDCHAR
STARTCHAR o
ENCODING 111
SWIDTH 621 0
DWIDTH 20 0
BBX 18 17 1 0
BITMAP
03F000
0FFC00
1FFE00
3C0F00
780780
700380
F00380
E001C0
E001C0
E001C0
F00380
700380
780780
3C0F00
1FFE00
0FFC00
03F000
ENDCHAR
STARTCHAR p
ENCODING 112
SWIDTH 678 0
DWIDTH 22 0
BBX 17 23 3 -6
BITMAP
E3F000
E7FC00
EFFE00
FC0F00
F00780
F00380
E00380
E00380
E00380
E00380
E00380
F00380
F00780
FC0F00
EFFE00
E7FC00
E3F000
E00000
E00000
E00000
E00000
E00000
E00000
ENDCHAR
STARTCHAR q
ENCODING 113
SWIDTH 680 0
DWIDTH 22 0
BBX 18 23 1 -6
BITMAP
07E1C0
1FF9C0
3FFDC0
3C0FC0
7807C0
7003C0
F003C0
E001C0
E001C0
E001C0
F003C0
7003C0
7807C0
3C0FC0
3FFDC0
1FF9C0
07E1C0
0001C0
0001C0
0001C0
0001C0
0001C0
0001C0
ENDCHAR
STARTCHAR r
ENCODING 114
SWIDTH 382 0
DWIDTH 12 0
BBX 9 17 3 0
BITMAP
E380
EF80
FF80
F800
F000
F000
E000
E000
E000
E000
E000
E000
E000
E000
E000
E000
E000
ENDCHAR
STARTCHAR s
ENCODING 115
SWIDTH 460 0
DWIDTH 15 0
BBX 13 17 1 0
BITMAP
0FC0
3FF0
7FF0
7020
6000
7000
7800
3F00
1FE0
03F0
0070
0038
8038
E078
FFF0
7FE0
1FC0
ENDCHAR
STARTCHAR t
ENCODING 116
SWIDTH 397 0
DWIDTH 13 0
BBX 11 21 1 0
BITMAP
1C00
1C00
1C00
1C00
FFE0
FFE0
FFE0
1C00
1C00
1C00
1C00
1C00
1C00
1C00
1C00
1C00
1C00
1C20
1FE0
1FE0
07C0
ENDCHAR
STARTCHAR u
ENCODING 117
SWIDTH 649 0
DWIDTH 21 0
BBX 16 17 2 0
BITMAP
E007
E007
E007
E007
E007
E007
E007
E007
E007
E007
E007
F00F
700F
781F
7FF7
3FE7
0FC7
ENDCHAR
STARTCHAR v
ENCODING 118
SWIDTH 510 0
DWIDTH 16 0
BBX 16 17 0 0
BITMAP
E007
7007
700E
780E
380E
381C
1C1C
1C1C
1C38
0E38
0E30
0670
0770
0760
03E0
03C0
01C0
ENDCHAR
STARTCHAR w
ENCODING 119
SWIDTH 876 0
DWIDTH 28 0
BBX 28 17 0 0
BITMAP
E00F0070
700F0070
700F80E0
701F80E0
381F80E0
381DC1C0
3839C1C0
1C39C180
1C30E380
0C70E380
0E706300
0E607700
06E07700
07E03600
07C03E00
03C03C00
03C01C00
ENDCHAR
STARTCHAR x
ENCODING 120
SWIDTH 540 0
DWIDTH 17 0
BBX 16 17 1 0
BITMAP
F00E
701C
383C
3C38
1C70
0EF0
0FE0
07C0
03C0
07C0
0FE0
1EF0
1C78
3838
783C
701E
E00F
ENDCHAR
STARTCHAR y
ENCODING 121
SWIDTH 514 0
DWIDTH 16 0
BBX 17 23 0 -6
BITMAP
E00780
700700
700700
700E00
380E00
381C00
1C1C00
1C1C00
0C3800
0E3800
0E3000
077000
077000
03E000
03E000
03C000
01C000
018000
038000
478000
7F0000
FE0000
7C0000
ENDCHAR
STARTCHAR z
ENCODING 122
SWIDTH 531 0
DWIDTH 17 0
BBX 14 17 2 0
BITMAP
FFF8
FFF8
FFF8
0070
00F0
01E0
03C0
0380
0700
0E00
1E00
3C00
7800
7000
FFFC
FFFC
FFFC
ENDCHAR
STARTCHAR braceleft
ENCODING 123
SWIDTH 339 0
DWIDTH 11 0
BBX 8 28 2 -4
BITMAP
0F
1F
3F
38
38
38
38
38
38
38
38
38
30
E0
E0
F0
38
38
38
38
38
38
38
38
38
3F
1F
0F
ENDCHAR
STARTCHAR bar
ENCODING 124
SWIDTH 258 0
DWIDTH 8 0
BBX 2 30 3 -4
BITMAP
C0
C0
C0
C0
C0
C0
C0
C0
C0
C0
C0
C0
C0
C0
C0
C0
C0
C0
C0
C0
C0
C0
C0
C0
C0
C0
C0
C0
C0
C0
ENDCHAR
STARTCHAR braceright
ENCODING 125
SWIDTH 339 0
DWIDTH 11 0
BBX 8 28 1 -4
BITMAP
F0
F8
FC
1C
1C
1C
1C
1C
1C
1C
1C
1C
1C
0F
07
0F
1C
1C
1C
1C
1C
1C
1C
1C
1C
FC
F8
F0
ENDCHAR
STARTCHAR asciitilde
ENCODING 126
SWIDTH 494 0
DWIDTH 16 0
BBX 12 5 2 8
BITMAP
1070
7C70
7FE0
E7E0
C1C0
ENDCHAR
STARTCHAR uni00A0
ENCODING 160
SWIDTH 262 0
DWIDTH 8 0
BBX 1 1 0 0
BITMAP
00
ENDCHAR
STARTCHAR exclamdown
ENCODING 161
SWIDTH 206 0
DWIDTH 7 0
BBX 3 23 2 -6
BITMAP
60
E0
E0
E0
00
00
00
00
60
60
60
E0
E0
E0
E0
E0
E0
E0
E0
E0
E0
E0
E0
ENDCHAR
STARTCHAR cent
ENCODING 162
SWIDTH 600 0
DWIDTH 19 0
BBX 16 26 1 -4
BITMAP
00C0
00C0
00C0
00C0
00C0
0FF8
1FFE
3E1E
7804
7000
7000
E000
E000
E000
E000
7000
7000
7806
3C0F
1FFE
0FF8
01C0
00C0
00C0
00C0
00C0
ENDCHAR
STARTCHAR sterling
ENCODING 163
SWIDTH 544 0
DWIDTH 17 0
BBX 16 22 1 0
BITMAP
01F0
07FC
0FFF
0E06
1C02
1C00
1C00
1C00
1C00
1C00
FFF0
FFF0
1C00
1C00
1C00
1C00
1C00
1C00
1C00
FFFE
FFFE
FFFE
ENDCHAR
STARTCHAR currency
ENCODING 164
SWIDTH 714 0
DWIDTH 23 0
BBX 21 21 1 0
BITMAP
400020
600030
F0F878
3FFEE0
1FFFC0
1E0380
1C01C0
3800E0
3800E0
300060
300060
300060
3800E0
3800E0
1C01C0
1E0380
1FFFC0
3BFEE0
71F870
E00038
400020
ENDCHAR
STARTCHAR yen
ENCODING 165
SWIDTH 629 0
DWIDTH 20 0
BBX 20 22 0 0
BITMAP
F00070
7000E0
3801E0
3801C0
1C0380
1E0780
0E0700
070F00
078E00
039C00
03FC00
01F800
3FFFC0
3FFFC0
007000
007000
3FFFC0
3FFFC0
007000
007000
007000
007000
ENDCHAR
STARTCHAR brokenbar
ENCODING 166
SWIDTH 258 0
DWIDTH 8 0
BBX 2 30 3 -4
BITMAP
C0
C0
C0
C0
C0
C0
C0
C0
C0
C0
C0
00
00
00
00
00
00
00
00
C0
C0
C0
C0
C0
C0
C0
C0
C0
C0
C0
ENDCHAR
STARTCHAR section
ENCODING 167
SWIDTH 484 0
DWIDTH 15 0
BBX 13 25 1 -3
BITMAP
0FC0
3FF0
3FF8
7010
7000
7000
7800
3E00
0FC0
3FF0
7878
6038
E018
6018
7038
3FF0
1FE0
03E0
0070
0038
0038
C038
F070
7FF0
1FC0
ENDCHAR
STARTCHAR dieresis
ENCODING 168
SWIDTH 350 0
DWIDTH 11 0
BBX 9 3 2 20
BITMAP
E300
E780
E300
ENDCHAR
STARTCHAR copyright
ENCODING 169
SWIDTH 752 0
DWIDTH 24 0
BBX 22 22 1 0
BITMAP
00FC00
03FF00
0F03C0
1C00E0
380070
300030
607C18
61C608
43000C
C2000C
C6000C
C6000C
C6000C
C3000C
438608
61FE18
307830
300030
1C00E0
0E03C0
07FF80
00FC00
ENDCHAR
STARTCHAR ordfeminine
ENCODING 170
SWIDTH 382 0
DWIDTH 12 0
BBX 10 11 1 14
BITMAP
1F00
7F80
4180
0180
3F80
6180
C180
C180
E380
7F80
39C0
ENDCHAR
STARTCHAR guillemotleft
ENCODING 171
SWIDTH 439 0
DWIDTH 14 0
BBX 11 11 1 3
BITMAP
1C60
18E0
39C0
7180
6380
E700
6380
7180
39C0
18E0
1C60
ENDCHAR
STARTCHAR logicalnot
ENCODING 172
SWIDTH 555 0
DWIDTH 18 0
BBX 14 9 1 5
BITMAP
FFFC
FFFC
FFFC
000C
000C
000C
000C
000C
000C
ENDCHAR
STARTCHAR uni00AD
ENCODING 173
SWIDTH 366 0
DWIDTH 12 0
BBX 8 3 2 9
BITMAP
FF
FF
FF
ENDCHAR
STARTCHAR registered
ENCODING 174
SWIDTH 752 0
DWIDTH 24 0
BBX 22 22 1 0
BITMAP
00FC00
03FF00
0F03C0
1C00E0
380070
31FC30
618618
618208
41830C
C1830C
C1820C
C1860C
C1FC0C
C18C0C
418408
618618
300130
300030
1C00E0
0E03C0
07FF80
00FC00
ENDCHAR
STARTCHAR macron
ENCODING 175
SWIDTH 350 0
DWIDTH 11 0
BBX 9 3 1 21
BITMAP
FF80
FF80
FF80
ENDCHAR
STARTCHAR degree
ENCODING 176
SWIDTH 336 0
DWIDTH 11 0
BBX 7 7 3 19
BITMAP
78
CC
86
82
86
C4
78
ENDCHAR
STARTCHAR plusminus
ENCODING 177
SWIDTH 494 0
DWIDTH 16 0
BBX 14 18 1 1
BITMAP
0300
0300
0300
0300
0300
FFFC
FFFC
FFFC
0300
0300
0300
0300
0300
0000
0000
FFFC
FFFC
FFFC
ENDCHAR
STARTCHAR uni00B2
ENCODING 178
SWIDTH 351 0
DWIDTH 11 0
BBX 10 13 0 12
BITMAP
1F00
7F80
E1C0
41C0
0180
0180
0300
0600
0C00
1800
3000
7FC0
7FC0
ENDCHAR
STARTCHAR uni00B3
ENCODING 179
SWIDTH 348 0
DWIDTH 11 0
BBX 9 13 1 11
BITMAP
FF00
FF00
0600
0C00
1800
3E00
0300
0180
0180
0180
C380
FF00
7E00
ENDCHAR
STARTCHAR acute
ENCODING 180
SWIDTH 350 0
DWIDTH 11 0
BBX 7 4 2 20
BITMAP
18
1E
38
F0
ENDCHAR
STARTCHAR uni00B5
ENCODING 181
SWIDTH 672 0
DWIDTH 22 0
BBX 16 23 3 -6
BITMAP
E007
E007
E007
E007
E007
E007
E007
E007
E007
E00F
E00F
E00F
F01F
F83F
FFF7
FFE7
FFC7
E000
E000
E000
E000
E000
E000
ENDCHAR
STARTCHAR paragraph
ENCODING 182
SWIDTH 602 0
DWIDTH 19 0
BBX 16 27 0 -3
BITMAP
0FFF
3FFF
7F83
7F83
FF83
FF83
FF83
FF83
FF83
7F83
3F83
1F83
0183
0183
0183
0183
0183
0183
0183
0183
0183
0183
0183
0183
0183
0183
0183
ENDCHAR
STARTCHAR periodcentered
ENCODING 183
SWIDTH 214 0
DWIDTH 7 0
BBX 3 4 2 7
BITMAP
E0
E0
E0
E0
ENDCHAR
STARTCHAR cedilla
ENCODING 184
SWIDTH 285 0
DWIDTH 9 0
BBX 6 7 2 -7
BITMAP
30
30
7C
0C
FC
FC
F8
ENDCHAR
STARTCHAR uni00B9
ENCODING 185
SWIDTH 232 0
DWIDTH 7 0
BBX 5 13 0 12
BITMAP
F8
F8
18
18
18
18
18
18
18
18
18
18
18
ENDCHAR
STARTCHAR ordmasculine
ENCODING 186
SWIDTH 405 0
DWIDTH 13 0
BBX 11 10 1 15
BITMAP
1F00
7F80
61C0
E0E0
C060
C060
E0E0
61C0
7F80
1F00
ENDCHAR
STARTCHAR guillemotright
ENCODING 187
SWIDTH 449 0
DWIDTH 14 0
BBX 11 11 2 3
BITMAP
C700
E300
7380
31C0
38C0
1CE0
38C0
31C0
7380
E300
C700
ENDCHAR
STARTCHAR onequarter
ENCODING 188
SWIDTH 733 0
DWIDTH 23 0
BBX 23 22 0 0
BITMAP
F80070
F800E0
1800C0
180180
180380
180700
180600
180C00
181C00
183860
1830E0
1860C0
18C180
01C180
038318
030318
060618
0E07FE
1C07FE
180018
300018
700018
ENDCHAR
STARTCHAR onehalf
ENCODING 189
SWIDTH 760 0
DWIDTH 24 0
BBX 24 22 0 0
BITMAP
F80070
F800E0
1800C0
180180
180300
180700
180600
180C00
181800
1838F8
1873FC
18630E
18C206
01C00E
03800C
030018
060030
0E0060
1C00C0
180180
3003FF
7003FF
ENDCHAR
STARTCHAR threequarters
ENCODING 190
SWIDTH 818 0
DWIDTH 26 0
BBX 25 22 1 0
BITMAP
FF001C00
FF003800
06007000
0C006000
1800C000
3E018000
03038000
01870000
01860000
018C1800
C39C3000
FF383000
3C306000
0060E000
00E0C600
01C18600
01818600
0303FF80
0703FF80
0E000600
0C000600
18000600
ENDCHAR
STARTCHAR questiondown
ENCODING 191
SWIDTH 432 0
DWIDTH 14 0
BBX 13 23 0 -6
BITMAP
0380
0380
0380
0380
0000
0000
0000
0000
0300
0300
0700
0E00
1C00
3800
7000
7000
6000
E018
7038
7870
7FF0
3FE0
0200
ENDCHAR
STARTCHAR Agrave
ENCODING 192
SWIDTH 726 0
DWIDTH 23 0
BBX 23 29 0 0
BITMAP
004000
01E000
00F000
007800
003000
000000
000000
003800
007C00
007C00
00EE00
00EE00
00E700
01C700
01C780
038380
0383C0
0701C0
0701C0
0F00E0
0E00E0
1FFFF0
1FFFF0
1FFFF8
380038
38003C
70001C
70001E
F0000E
ENDCHAR
STARTCHAR Aacute
ENCODING 193
SWIDTH 726 0
DWIDTH 23 0
BBX 23 29 0 0
BITMAP
000400
000F00
001E00
001C00
003800
000000
000000
003800
007C00
007C00
00EE00
00EE00
00E700
01C700
01C780
038380
0383C0
0701C0
0701C0
0F00E0
0E00E0
1FFFF0
1FFFF0
1FFFF8
380038
38003C
70001C
70001E
F0000E
ENDCHAR
STARTCHAR Acircumflex
ENCODING 194
SWIDTH 726 0
DWIDTH 23 0
BBX 23 30 0 0
BITMAP
003800
007C00
007E00
00EE00
01C780
000000
000000
000000
003800
007C00
007C00
00EE00
00EE00
00E700
01C700
01C780
038380
0383C0
0701C0
0701C0
0F00E0
0E00E0
1FFFF0
1FFFF0
1FFFF8
380038
38003C
70001C
70001E
F0000E
ENDCHAR
STARTCHAR Atilde
ENCODING 195
SWIDTH 726 0
DWIDTH 23 0
BBX 23 28 0 0
BITMAP
00E380
01FF00
01FF00
018E00
000000
000000
003800
007C00
007C00
00EE00
00EE00
00E700
01C700
01C780
038380
0383C0
0701C0
0701C0
0F00E0
0E00E0
1FFFF0
1FFFF0
1FFFF8
380038
38003C
70001C
70001E
F0000E
ENDCHAR
STARTCHAR Adieresis
ENCODING 196
SWIDTH 726 0
DWIDTH 23 0
BBX 23 27 0 0
BITMAP
00C700
01E700
00C700
000000
000000
003800
007C00
007C00
00EE00
00EE00
00E700
01C700
01C780
038380
0383C0
0701C0
0701C0
0F00E0
0E00E0
1FFFF0
1FFFF0
1FFFF8
380038
38003C
70001C
70001E
F0000E
ENDCHAR
STARTCHAR Aring
ENCODING 197
SWIDTH 726 0
DWIDTH 23 0
BBX 23 31 0 0
BITMAP
003800
007C00
00C600
00C600
00C600
007C00
003800
000000
000000
003800
007C00
007C00
00EE00
00EE00
00E700
01C700
01C780
038380
0383C0
0701C0
0701C0
0F00E0
0E00E0
1FFFF0
1FFFF0
1FFFF8
380038
38003C
70001C
70001E
F0000E
ENDCHAR
STARTCHAR AE
ENCODING 198
SWIDTH 1037 0
DWIDTH 33 0
BBX 31 22 0 0
BITMAP
0007FFFE
000FFFFE
000FFFFE
001DE000
001DE000
0039E000
0071E000
0071E000
00E1E000
00E1FFFC
01C1FFFC
0381FFFC
0381E000
07FFE000
07FFE000
0FFFE000
1C01E000
1C01E000
3801E000
3801FFFE
7001FFFE
F001FFFE
ENDCHAR
STARTCHAR Ccedilla
ENCODING 199
SWIDTH 699 0
DWIDTH 22 0
BBX 20 30 1 -8
BITMAP
00FE00
03FFC0
07FFE0
1F00F0
1C0060
380020
780000
700000
700000
E00000
E00000
E00000
E00000
F00000
700000
700000
780000
3C0020
3E0070
1F81F0
0FFFE0
03FFC0
00FE00
003800
003000
003C00
000E00
007E00
00FC00
001000
ENDCHAR
STARTCHAR Egrave
ENCODING 200
SWIDTH 653 0
DWIDTH 21 0
BBX 16 29 3 0
BITMAP
0200
1E00
0700
0380
0140
0000
0000
FFFF
FFFF
FFFF
E000
E000
E000
E000
E000
E000
FFFC
FFFC
FFFC
E000
E000
E000
E000
E000
E000
E000
FFFF
FFFF
FFFF
ENDCHAR
STARTCHAR Eacute
ENCODING 201
SWIDTH 653 0
DWIDTH 21 0
BBX 16 29 3 0
BITMAP
0020
0078
00F0
01E0
0080
0000
0000
FFFF
FFFF
FFFF
E000
E000
E000
E000
E000
E000
FFFC
FFFC
FFFC
E000
E000
E000
E000
E000
E000
E000
FFFF
FFFF
FFFF
ENDCHAR
STARTCHAR Ecircumflex
ENCODING 202
SWIDTH 653 0
DWIDTH 21 0
BBX 16 30 3 0
BITMAP
01C0
03E0
07E0
0F70
1E38
0000
0000
0000
FFFF
FFFF
FFFF
E000
E000
E000
E000
E000
E000
FFFC
FFFC
FFFC
E000
E000
E000
E000
E000
E000
E000
FFFF
FFFF
FFFF
ENDCHAR
STARTCHAR Edieresis
ENCODING 203
SWIDTH 653 0
DWIDTH 21 0
BBX 16 27 3 0
BITMAP
0E30
0E78
0E30
0000
0000
FFFF
FFFF
FFFF
E000
E000
E000
E000
E000
E000
FFFC
FFFC
FFFC
E000
E000
E000
E000
E000
E000
E000
FFFF
FFFF
FFFF
ENDCHAR
STARTCHAR Igrave
ENCODING 204
SWIDTH 296 0
DWIDTH 9 0
BBX 6 29 0 0
BITMAP
20
F0
78
3C
08
00
00
1C
1C
1C
1C
1C
1C
1C
1C
1C
1C
1C
1C
1C
1C
1C
1C
1C
1C
1C
1C
1C
1C
ENDCHAR
STARTCHAR Iacute
ENCODING 205
SWIDTH 296 0
DWIDTH 9 0
BBX 7 29 3 0
BITMAP
10
3E
38
70
E0
00
00
E0
E0
E0
E0
E0
E0
E0
E0
E0
E0
E0
E0
E0
E0
E0
E0
E0
E0
E0
E0
E0
E0
ENDCHAR
STARTCHAR Icircumflex
ENCODING 206
SWIDTH 296 0
DWIDTH 9 0
BBX 10 30 0 0
BITMAP
1C00
3E00
3F00
7780
E3C0
0000
0000
0000
1C00
1C00
1C00
1C00
1C00
1C00
1C00
1C00
1C00
1C00
1C00
1C00
1C00
1C00
1C00
1C00
1C00
1C00
1C00
1C00
1C00
1C00
ENDCHAR
STARTCHAR Idieresis
ENCODING 207
SWIDTH 296 0
DWIDTH 9 0
BBX 9 27 0 0
BITMAP
6380
F380
6380
0000
0000
1C00
1C00
1C00
1C00
1C00
1C00
1C00
1C00
1C00
1C00
1C00
1C00
1C00
1C00
1C00
1C00
1C00
1C00
1C00
1C00
1C00
1C00
ENDCHAR
STARTCHAR Eth
ENCODING 208
SWIDTH 783 0
DWIDTH 25 0
BBX 23 22 1 0
BITMAP
3FFE00
3FFF80
3FFFE0
3801F0
380078
380038
38003C
38001C
38001E
38000E
FFF00E
FFF00E
38000E
38001E
38001C
38001C
380038
380078
3801F0
3FFFE0
3FFF80
3FFE00
ENDCHAR
STARTCHAR Ntilde
ENCODING 209
SWIDTH 794 0
DWIDTH 25 0
BBX 19 28 3 0
BITMAP
03C600
03FE00
07FE00
063C00
000000
000000
F000E0
F000E0
F800E0
FC00E0
FE00E0
FE00E0
EF00E0
E780E0
E3C0E0
E1C0E0
E1E0E0
E0F0E0
E078E0
E038E0
E03CE0
E01EE0
E00FE0
E007E0
E007E0
E003E0
E001E0
E000E0
ENDCHAR
STARTCHAR Ograve
ENCODING 210
SWIDTH 812 0
DWIDTH 26 0
BBX 24 29 1 0
BITMAP
004000
01E000
00F000
003800
001400
000000
000000
00FF00
03FFC0
0FFFF0
1F00F8
3E007C
38001C
78001E
70000E
F0000E
E0000F
E00007
E00007
E0000F
F0000E
70000E
78001E
38001C
3E007C
1F00F8
0FFFE0
03FFC0
00FE00
ENDCHAR
STARTCHAR Oacute
ENCODING 211
SWIDTH 812 0
DWIDTH 26 0
BBX 24 29 1 0
BITMAP
000600
000780
000F00
001C00
002800
000000
000000
00FF00
03FFC0
0FFFF0
1F00F8
3E007C
38001C
78001E
70000E
F0000E
E0000F
E00007
E00007
E0000F
F0000E
70000E
78001E
38001C
3E007C
1F00F8
0FFFE0
03FFC0
00FE00
ENDCHAR
STARTCHAR Ocircumflex
ENCODING 212
SWIDTH 812 0
DWIDTH 26 0
BBX 24 30 1 0
BITMAP
003C00
003C00
007E00
00E700
01E380
000000
000000
000000
00FF00
03FFC0
0FFFF0
1F00F8
3E007C
38001C
78001E
70000E
F0000E
E0000F
E00007
E00007
E0000F
F0000E
70000E
78001E
38001C
3E007C
1F00F8
0FFFE0
03FFC0
00FE00
ENDCHAR
STARTCHAR Otilde
ENCODING 213
SWIDTH 812 0
DWIDTH 26 0
BBX 24 28 1 0
BITMAP
00F180
01FF80
01FF00
018F00
000000
000000
00FF00
03FFC0
0FFFF0
1F00F8
3E007C
38001C
78001E
70000E
F0000E
E0000F
E00007
E00007
E0000F
F0000E
70000E
78001E
38001C
3E007C
1F00F8
0FFFE0
03FFC0
00FE00
ENDCHAR
STARTCHAR Odieresis
ENCODING 214
SWIDTH 812 0
DWIDTH 26 0
BBX 24 27 1 0
BITMAP
00E700
00E700
00E300
000000
000000
00FF00
03FFC0
0FFFF0
1F00F8
3E007C
38001C
78001E
70000E
F0000E
E0000F
E00007
E00007
E0000F
F0000E
70000E
78001E
38001C
3E007C
1F00F8
0FFFE0
03FFC0
00FE00
ENDCHAR
STARTCHAR multiply
ENCODING 215
SWIDTH 494 0
DWIDTH 16 0
BBX 11 11 2 5
BITMAP
4040
E060
70E0
39C0
1F80
0F00
0F00
1F80
39C0
F0E0
6060
ENDCHAR
STARTCHAR Oslash
ENCODING 216
SWIDTH 812 0
DWIDTH 26 0
BBX 24 25 1 -1
BITMAP
00001C
000018
00FF38
03FFF0
0FFFF0
1F00F8
3E01FC
3803BC
78031E
70070E
F00E0E
E00C0F
E01C07
E03807
E0300F
F0700E
70E00E
78C01E
39C01C
3F8078
1F00F8
0FFFE0
0FFFC0
1CFE00
380000
ENDCHAR
STARTCHAR Ugrave
ENCODING 217
SWIDTH 762 0
DWIDTH 24 0
BBX 19 29 3 0
BITMAP
010000
0F0000
038000
01C000
00A000
000000
000000
E000E0
E000E0
E000E0
E000E0
E000E0
E000E0
E000E0
E000E0
E000E0
E000E0
E000E0
E000E0
E000E0
E000E0
E001E0
E001C0
F001C0
7003C0
780780
3FFF00
1FFE00
07F800
ENDCHAR
STARTCHAR Uacute
ENCODING 218
SWIDTH 762 0
DWIDTH 24 0
BBX 19 29 3 0
BITMAP
001000
003C00
007800
00F000
004000
000000
000000
E000E0
E000E0
E000E0
E000E0
E000E0
E000E0
E000E0
E000E0
E000E0
E000E0
E000E0
E000E0
E000E0
E000E0
E001E0
E001C0
F001C0
7003C0
780780
3FFF00
1FFE00
07F800
ENDCHAR
STARTCHAR Ucircumflex
ENCODING 219
SWIDTH 762 0
DWIDTH 24 0
BBX 19 30 3 0
BITMAP
00E000
01F000
03F000
07B800
0F1C00
000000
000000
000000
E000E0
E000E0
E000E0
E000E0
E000E0
E000E0
E000E0
E000E0
E000E0
E000E0
E000E0
E000E0
E000E0
E000E0
E001E0
E001C0
F001C0
7003C0
780780
3FFF00
1FFE00
07F800
ENDCHAR
STARTCHAR Udieresis
ENCODING 220
SWIDTH 762 0
DWIDTH 24 0
BBX 19 27 3 0
BITMAP
071800
073C00
071800
000000
000000
E000E0
E000E0
E000E0
E000E0
E000E0
E000E0
E000E0
E000E0
E000E0
E000E0
E000E0
E000E0
E000E0
E000E0
E001E0
E001C0
F001C0
7003C0
780780
3FFF00
1FFE00
07F800
ENDCHAR
STARTCHAR Yacute
ENCODING 221
SWIDTH 630 0
DWIDTH 20 0
BBX 20 29 0 0
BITMAP
000800
001E00
003C00
007000
00A000
000000
000000
F00070
7000E0
3801E0
3801C0
1C0380
1E0380
0E0700
0F0F00
070E00
039E00
03DC00
01F800
01F800
00F000
00F000
007000
007000
007000
007000
007000
007000
007000
ENDCHAR
STARTCHAR Thorn
ENCODING 222
SWIDTH 674 0
DWIDTH 22 0
BBX 18 22 3 0
BITMAP
E00000
E00000
E00000
FFF000
FFFE00
FFFF00
E00F80
E00380
E003C0
E001C0
E001C0
E003C0
E003C0
E00380
E00780
FFFF00
FFFE00
FFF000
E00000
E00000
E00000
E00000
ENDCHAR
STARTCHAR germandbls
ENCODING 223
SWIDTH 651 0
DWIDTH 21 0
BBX 16 24 3 0
BITMAP
07E0
1FF8
3FFC
781C
F01E
E00E
E00E
E00E
E00C
E01C
E038
E1F0
E1F8
E1FC
E01E
E007
E007
E007
E007
E007
E00E
E3FE
E3F8
E3E0
ENDCHAR
STARTCHAR agrave
ENCODING 224
SWIDTH 581 0
DWIDTH 19 0
BBX 15 24 1 0
BITMAP
0600
1F00
0700
03C0
0000
0000
0000
07F0
1FF8
7FFC
301E
000E
000E
000E
0FFE
3FFE
7FFE
700E
E00E
E00E
703E
7FFE
3FEE
0F8E
ENDCHAR
STARTCHAR aacute
ENCODING 225
SWIDTH 581 0
DWIDTH 19 0
BBX 15 24 1 0
BITMAP
0060
0078
00F0
01C0
0000
0000
0000
07F0
1FF8
7FFC
301E
000E
000E
000E
0FFE
3FFE
7FFE
700E
E00E
E00E
703E
7FFE
3FEE
0F8E
ENDCHAR
STARTCHAR acircumflex
ENCODING 226
SWIDTH 581 0
DWIDTH 19 0
BBX 15 25 1 0
BITMAP
01C0
03E0
07E0
0F70
1E38
0000
0000
0000
07F0
1FF8
7FFC
301E
000E
000E
000E
0FFE
3FFE
7FFE
700E
E00E
E00E
703E
7FFE
3FEE
0F8E
ENDCHAR
STARTCHAR atilde
ENCODING 227
SWIDTH 581 0
DWIDTH 19 0
BBX 15 23 1 0
BITMAP
0F18
0FF8
1FF8
1870
0000
0000
07F0
1FF8
7FFC
301E
000E
000E
000E
0FFE
3FFE
7FFE
700E
E00E
E00E
703E
7FFE
3FEE
0F8E
ENDCHAR
STARTCHAR adieresis
ENCODING 228
SWIDTH 581 0
DWIDTH 19 0
BBX 15 23 1 0
BITMAP
0E30
0E78
0E30
0000
0000
0000
07F0
1FF8
7FFC
301E
000E
000E
000E
0FFE
3FFE
7FFE
700E
E00E
E00E
703E
7FFE
3FEE
0F8E
ENDCHAR
STARTCHAR aring
ENCODING 229
SWIDTH 581 0
DWIDTH 19 0
BBX 15 26 1 0
BITMAP
01C0
03E0
0660
0430
0620
07E0
03C0
0000
0000
07F0
1FF8
7FFC
301E
000E
000E
000E
0FFE
3FFE
7FFE
700E
E00E
E00E
703E
7FFE
3FEE
0F8E
ENDCHAR
STARTCHAR ae
ENCODING 230
SWIDTH 978 0
DWIDTH 31 0
BBX 29 17 1 0
BITMAP
07F03F00
1FF8FFC0
7FFDFFE0
301F80F0
000F0070
000F0038
000E0038
0FFFFFF8
3FFFFFF8
780E0000
700E0000
E00F0000
E00F8020
703BC060
7FF1FFF0
3FE0FFC0
0FC03F00
ENDCHAR
STARTCHAR ccedilla
ENCODING 231
SWIDTH 562 0
DWIDTH 18 0
BBX 16 24 1 -7
BITMAP
03F0
0FFC
3FFE
3C0E
7804
7000
E000
E000
E000
E000
E000
7000
7804
3C06
3FFF
1FFC
07F0
0180
0180
01E0
0070
03F0
07E0
03C0
ENDCHAR
STARTCHAR egrave
ENCODING 232
SWIDTH 588 0
DWIDTH 19 0
BBX 17 24 1 0
BITMAP
060000
0F0000
078000
03C000
000000
000000
000000
03F000
0FFC00
3FFE00
380E00
700700
700300
E00300
FFFF80
FFFF80
FFFF80
E00000
700000
780200
3C0600
3FFF00
0FFC00
03F000
ENDCHAR
STARTCHAR eacute
ENCODING 233
SWIDTH 588 0
DWIDTH 19 0
BBX 17 24 1 0
BITMAP
003000
007800
00F000
01E000
000000
000000
000000
03F000
0FFC00
3FFE00
380E00
700700
700300
E00300
FFFF80
FFFF80
FFFF80
E00000
700000
780200
3C0600
3FFF00
0FFC00
03F000
ENDCHAR
STARTCHAR ecircumflex
ENCODING 234
SWIDTH 588 0
DWIDTH 19 0
BBX 17 25 1 0
BITMAP
01C000
03E000
07F000
077000
0E3800
000000
000000
000000
03F000
0FFC00
3FFE00
380E00
700700
700300
E00300
FFFF80
FFFF80
FFFF80
E00000
700000
780200
3C0600
3FFF00
0FFC00
03F000
ENDCHAR
STARTCHAR edieresis
ENCODING 235
SWIDTH 588 0
DWIDTH 19 0
BBX 17 23 1 0
BITMAP
0E3800
0E3800
063800
000000
000000
000000
03F000
0FFC00
3FFE00
380E00
700700
700300
E00300
FFFF80
FFFF80
FFFF80
E00000
700000
780200
3C0600
3FFF00
0FFC00
03F000
ENDCHAR
STARTCHAR igrave
ENCODING 236
SWIDTH 274 0
DWIDTH 9 0
BBX 7 24 -1 0
BITMAP
30
F8
3C
1E
00
00
00
0E
0E
0E
0E
0E
0E
0E
0E
0E
0E
0E
0E
0E
0E
0E
0E
0E
ENDCHAR
STARTCHAR iacute
ENCODING 237
SWIDTH 274 0
DWIDTH 9 0
BBX 6 24 3 0
BITMAP
10
3C
78
E0
00
00
00
E0
E0
E0
E0
E0
E0
E0
E0
E0
E0
E0
E0
E0
E0
E0
E0
E0
ENDCHAR
STARTCHAR icircumflex
ENCODING 238
SWIDTH 274 0
DWIDTH 9 0
BBX 10 25 -1 0
BITMAP
0E00
1F00
3F00
3B80
F1C0
0000
0000
0000
0E00
0E00
0E00
0E00
0E00
0E00
0E00
0E00
0E00
0E00
0E00
0E00
0E00
0E00
0E00
0E00
0E00
ENDCHAR
STARTCHAR idieresis
ENCODING 239
SWIDTH 274 0
DWIDTH 9 0
BBX 8 24 0 0
BITMAP
63
F7
F7
63
00
00
00
1C
1C
1C
1C
1C
1C
1C
1C
1C
1C
1C
1C
1C
1C
1C
1C
1C
ENDCHAR
STARTCHAR eth
ENCODING 240
SWIDTH 585 0
DWIDTH 19 0
BBX 17 24 1 0
BITMAP
0E0000
1F0600
03FE00
01F800
03F000
0F7800
1C3800
101C00
000E00
010E00
1FE700
3FFF00
7C1F00
700F00
700700
E00780
E00700
E00700
600700
700700
780E00
3FFC00
1FF800
07E000
ENDCHAR
STARTCHAR ntilde
ENCODING 241
SWIDTH 659 0
DWIDTH 21 0
BBX 16 23 3 0
BITMAP
0F18
0FF8
1FF8
18F0
0000
0000
E3F0
EFFC
FFFE
F81E
F00E
E00F
E007
E007
E007
E007
E007
E007
E007
E007
E007
E007
E007
ENDCHAR
STARTCHAR ograve
ENCODING 242
SWIDTH 621 0
DWIDTH 20 0
BBX 18 24 1 0
BITMAP
030000
0F0000
038000
01C000
002000
000000
000000
03F000
0FFC00
1FFE00
3C0F00
780780
700380
F00380
E001C0
E001C0
E001C0
F00380
700380
780780
3C0F00
1FFE00
0FFC00
03F000
ENDCHAR
STARTCHAR oacute
ENCODING 243
SWIDTH 621 0
DWIDTH 20 0
BBX 18 24 1 0
BITMAP
003000
007C00
007000
01E000
000000
000000
000000
03F000
0FFC00
1FFE00
3C0F00
780780
700380
F00380
E001C0
E001C0
E001C0
F00380
700380
780780
3C0F00
1FFE00
0FFC00
03F000
ENDCHAR
STARTCHAR ocircumflex
ENCODING 244
SWIDTH 621 0
DWIDTH 20 0
BBX 18 25 1 0
BITMAP
01E000
01E000
03F000
073800
0E3C00
000000
000000
000000
03F000
0FFC00
1FFE00
3C0F00
780780
700380
F00380
E001C0
E001C0
E001C0
F00380
700380
780780
3C0F00
1FFE00
0FFC00
03F000
ENDCHAR
STARTCHAR otilde
ENCODING 245
SWIDTH 621 0
DWIDTH 20 0
BBX 18 23 1 0
BITMAP
078C00
0FFC00
0FF800
0C7800
000000
000000
03F000
0FFC00
1FFE00
3C0F00
780780
700380
F00380
E001C0
E001C0
E001C0
F00380
700380
780780
3C0F00
1FFE00
0FFC00
03F000
ENDCHAR
STARTCHAR odieresis
ENCODING 246
SWIDTH 621 0
DWIDTH 20 0
BBX 18 23 1 0
BITMAP
063800
0F3800
063800
000000
000000
000000
03F000
0FFC00
1FFE00
3C0F00
780780
700380
F00380
E001C0
E001C0
E001C0
F00380
700380
780780
3C0F00
1FFE00
0FFC00
03F000
ENDCHAR
STARTCHAR divide
ENCODING 247
SWIDTH 494 0
DWIDTH 16 0
BBX 14 15 1 3
BITMAP
0300
0780
0780
0300
0000
0000
FFFC
FFFC
FFFC
0000
0000
0300
0780
0780
0300
ENDCHAR
STARTCHAR oslash
ENCODING 248
SWIDTH 621 0
DWIDTH 20 0
BBX 18 23 1 -3
BITMAP
0001C0
000180
000300
03F700
0FFE00
3FFE00
3C0F00
701F80
703380
E07380
E061C0
E0C1C0
E181C0
E38180
730380
760780
3C0F00
1FFE00
1FFC00
33F000
300000
600000
C00000
ENDCHAR
STARTCHAR ugrave
ENCODING 249
SWIDTH 649 0
DWIDTH 21 0
BBX 16 24 2 0
BITMAP
0600
1F00
0780
03C0
0000
0000
0000
E007
E007
E007
E007
E007
E007
E007
E007
E007
E007
E007
F00F
700F
781F
7FF7
3FE7
0FC7
ENDCHAR
STARTCHAR uacute
ENCODING 250
SWIDTH 649 0
DWIDTH 21 0
BBX 16 24 2 0
BITMAP
0020
0078
00F0
01C0
0000
0000
0000
E007
E007
E007
E007
E007
E007
E007
E007
E007
E007
E007
F00F
700F
781F
7FF7
3FE7
0FC7
ENDCHAR
STARTCHAR ucircumflex
ENCODING 251
SWIDTH 649 0
DWIDTH 21 0
BBX 16 25 2 0
BITMAP
01C0
03E0
07E0
0770
1E38
0000
0000
0000
E007
E007
E007
E007
E007
E007
E007
E007
E007
E007
E007
F00F
700F
781F
7FF7
3FE7
0FC7
ENDCHAR
STARTCHAR udieresis
ENCODING 252
SWIDTH 649 0
DWIDTH 21 0
BBX 16 23 2 0
BITMAP
0E30
0E78
0E30
0000
0000
0000
E007
E007
E007
E007
E007
E007
E007
E007
E007
E007
E007
F00F
700F
781F
7FF7
3FE7
0FC7
ENDCHAR
STARTCHAR yacute
ENCODING 253
SWIDTH 514 0
DWIDTH 16 0
BBX 17 30 0 -6
BITMAP
002000
007800
00F000
01C000
000000
000000
000000
E00780
700700
700700
700E00
380E00
381C00
1C1C00
1C1C00
0C3800
0E3800
0E3000
077000
077000
03E000
03E000
03C000
01C000
018000
038000
478000
7F0000
FE0000
7C0000
ENDCHAR
STARTCHAR thorn
ENCODING 254
SWIDTH 678 0
DWIDTH 22 0
BBX 17 30 3 -6
BITMAP
E00000
E00000
E00000
E00000
E00000
E00000
E00000
E3F000
E7FC00
EFFE00
FC0F00
F00780
F00380
E00380
E00380
E00380
E00380
E00380
F00380
F00780
FC0F00
EFFE00
E7FC00
E3F000
E00000
E00000
E00000
E00000
E00000
E00000
ENDCHAR
STARTCHAR ydieresis
ENCODING 255
SWIDTH 514 0
DWIDTH 16 0
BBX 17 29 0 -6
BITMAP
0E3000
0E7800
0E3000
000000
000000
000000
E00780
700700
700700
700E00
380E00
381C00
1C1C00
1C1C00
0C3800
0E3800
0E3000
077000
077000
03E000
03E000
03C000
01C000
018000
038000
478000
7F0000
FE0000
7C0000
ENDCHAR
STARTCHAR Amacron
ENCODING 256
SWIDTH 726 0
DWIDTH 23 0
BBX 23 28 0 0
BITMAP
01FF80
01FF80
01FF80
000000
000000
000000
003800
007C00
007C00
00EE00
00EE00
00E700
01C700
01C780
038380
0383C0
0701C0
0701C0
0F00E0
0E00E0
1FFFF0
1FFFF0
1FFFF8
380038
38003C
70001C
70001E
F0000E
ENDCHAR
STARTCHAR amacron
ENCODING 257
SWIDTH 581 0
DWIDTH 19 0
BBX 15 24 1 0
BITMAP
0FF8
0FF8
0FF8
0000
0000
0000
0000
07F0
1FF8
7FFC
301E
000E
000E
000E
0FFE
3FFE
7FFE
700E
E00E
E00E
703E
7FFE
3FEE
0F8E
ENDCHAR
STARTCHAR Abreve
ENCODING 258
SWIDTH 726 0
DWIDTH 23 0
BBX 23 29 0 0
BITMAP
018300
01C700
00FE00
00FE00
003C00
000000
000000
003800
007C00
007C00
00EE00
00EE00
00E700
01C700
01C780
038380
0383C0
0701C0
0701C0
0F00E0
0E00E0
1FFFF0
1FFFF0
1FFFF8
380038
38003C
70001C
70001E
F0000E
ENDCHAR
STARTCHAR abreve
ENCODING 259
SWIDTH 581 0
DWIDTH 19 0
BBX 15 25 1 0
BITMAP
0C30
0C30
0FF0
07E0
03C0
0000
0000
0000
07F0
1FF8
7FFC
301E
000E
000E
000E
0FFE
3FFE
7FFE
700E
E00E
E00E
703E
7FFE
3FEE
0F8E
ENDCHAR
STARTCHAR Aogonek
ENCODING 260
SWIDTH 726 0
DWIDTH 23 0
BBX 23 29 0 -7
BITMAP
003800
007C00
007C00
00EE00
00EE00
00E700
01C700
01C780
038380
0383C0
0701C0
0701C0
0F00E0
0E00E0
1FFFF0
1FFFF0
1FFFF8
380038
38003C
70001C
70001E
F0000E
00001C
000038
000030
000070
00007E
00003E
00001E
ENDCHAR
STARTCHAR aogonek
ENCODING 261
SWIDTH 581 0
DWIDTH 19 0
BBX 15 24 1 -7
BITMAP
07F0
1FF8
7FFC
301E
000E
000E
000E
0FFE
3FFE
7FFE
700E
E00E
E00E
703E
7FFE
3FEE
0F8E
001C
0038
0030
0070
007E
003E
001E
ENDCHAR
STARTCHAR Cacute
ENCODING 262
SWIDTH 699 0
DWIDTH 22 0
BBX 20 29 1 0
BITMAP
000200
000780
000F00
001E00
000800
000000
000000
00FE00
03FFC0
0FFFE0
1F00F0
3C0060
380020
780000
700000
F00000
E00000
E00000
E00000
E00000
F00000
700000
780000
380000
3C0020
1F00F0
0FFFE0
03FFC0
00FE00
ENDCHAR
STARTCHAR cacute
ENCODING 263
SWIDTH 562 0
DWIDTH 18 0
BBX 16 24 1 0
BITMAP
0030
0078
00F0
01E0
0000
0000
0000
03F0
0FFC
3FFE
3C0E
7804
7000
E000
E000
E000
E000
E000
7000
7804
3C06
3FFF
0FFC
03F0
ENDCHAR
STARTCHAR Ccircumflex
ENCODING 264
SWIDTH 699 0
DWIDTH 22 0
BBX 20 30 1 0
BITMAP
001C00
003E00
007E00
007700
01E380
000000
000000
000000
00FE00
03FFC0
0FFFE0
1F00F0
3C0060
380020
780000
700000
F00000
E00000
E00000
E00000
E00000
F00000
700000
780000
380000
3C0020
1F00F0
0FFFE0
03FFC0
00FE00
ENDCHAR
STARTCHAR ccircumflex
ENCODING 265
SWIDTH 562 0
DWIDTH 18 0
BBX 16 25 1 0
BITMAP
01C0
03E0
07F0
0770
0E38
0000
0000
0000
03F0
0FFC
3FFE
3C0E
7804
7000
E000
E000
E000
E000
E000
7000
7804
3C06
3FFF
0FFC
03F0
ENDCHAR
STARTCHAR Cdotaccent
ENCODING 266
SWIDTH 699 0
DWIDTH 22 0
BBX 20 28 1 0
BITMAP
001C00
001C00
001C00
001C00
000000
000000
00FE00
03FFC0
0FFFE0
1F00F0
3C0060
380020
780000
700000
F00000
E00000
E00000
E00000
E00000
F00000
700000
780000
380000
3C0020
1F00F0
0FFFE0
03FFC0
00FE00
ENDCHAR
STARTCHAR cdotaccent
ENCODING 267
SWIDTH 562 0
DWIDTH 18 0
BBX 16 24 1 0
BITMAP
01C0
01C0
01C0
01C0
0000
0000
0000
03F0
0FFC
3FFE
3C0E
7804
7000
E000
E000
E000
E000
E000
7000
7804
3C06
3FFF
0FFC
03F0
ENDCHAR
STARTCHAR Ccaron
ENCODING 268
SWIDTH 699 0
DWIDTH 22 0
BBX 20 30 1 0
BITMAP
01C380
01E700
00EE00
007C00
003C00
000000
000000
000000
00FE00
03FFC0
0FFFE0
1F00F0
3C0060
380020
780000
700000
F00000
E00000
E00000
E00000
E00000
F00000
700000
780000
380000
3C0020
1F00F0
0FFFE0
03FFC0
00FE00
ENDCHAR
STARTCHAR ccaron
ENCODING 269
SWIDTH 562 0
DWIDTH 18 0
BBX 16 25 1 0
BITMAP
0E38
0E38
0770
03E0
01C0
0000
0000
0000
03F0
0FFC
3FFE
3C0E
7804
7000
E000
E000
E000
E000
E000
7000
7804
3C06
3FFF
0FFC
03F0
ENDCHAR
STARTCHAR Dcaron
ENCODING 270
SWIDTH 783 0
DWIDTH 25 0
BBX 21 30 3 0
BITMAP
1C3800
0E7000
07F000
07E000
03C000
000000
000000
000000
FFF800
FFFE00
FFFF80
E007C0
E001E0
E000E0
E000F0
E00070
E00078
E00038
E00038
E00038
E00038
E00078
E00070
E00070
E000E0
E001E0
E007C0
FFFF80
FFFE00
FFF800
ENDCHAR
STARTCHAR dcaron
ENCODING 271
SWIDTH 744 0
DWIDTH 24 0
BBX 23 24 1 0
BITMAP
0001C0
0001C6
0001C6
0001C6
0001C6
0001C6
0001C6
07E1C0
1FF9C0
3FFDC0
3C0FC0
7807C0
7003C0
F003C0
E001C0
E001C0
E001C0
F003C0
7003C0
7807C0
3C0FC0
3FFDC0
1FF9C0
07E1C0
ENDCHAR
STARTCHAR Dcroat
ENCODING 272
SWIDTH 783 0
DWIDTH 25 0
BBX 23 22 1 0
BITMAP
3FFE00
3FFF80
3FFFE0
3801F0
380078
380038
38003C
38001C
38001E
38000E
FFF00E
FFF00E
38000E
38001E
38001C
38001C
380038
380078
3801F0
3FFFE0
3FFF80
3FFE00
ENDCHAR
STARTCHAR dcroat
ENCODING 273
SWIDTH 679 0
DWIDTH 22 0
BBX 20 24 1 0
BITMAP
0001C0
0001C0
0001C0
00FFF0
00FFF0
0001C0
0001C0
07E1C0
1FF9C0
3FFDC0
3C0FC0
7807C0
7003C0
F003C0
E001C0
E001C0
E001C0
F003C0
7003C0
7807C0
3C0FC0
3FFDC0
1FF9C0
07E1C0
ENDCHAR
STARTCHAR Emacron
ENCODING 274
SWIDTH 653 0
DWIDTH 21 0
BBX 16 28 3 0
BITMAP
1FF8
1FF8
1FF8
0000
0000
0000
FFFF
FFFF
FFFF
E000
E000
E000
E000
E000
E000
FFFC
FFFC
FFFC
E000
E000
E000
E000
E000
E000
E000
FFFF
FFFF
FFFF
ENDCHAR
STARTCHAR emacron
ENCODING 275
SWIDTH 588 0
DWIDTH 19 0
BBX 17 24 1 0
BITMAP
0FF800
0FF800
0FF800
000000
000000
000000
000000
03F000
0FFC00
3FFE00
380E00
700700
700300
E00300
FFFF80
FFFF80
FFFF80
E00000
700000
780200
3C0600
3FFF00
0FFC00
03F000
ENDCHAR
STARTCHAR Ebreve
ENCODING 276
SWIDTH 653 0
DWIDTH 21 0
BBX 16 29 3 0
BITMAP
0C38
0C30
0FF0
07E0
03C0
0000
0000
FFFF
FFFF
FFFF
E000
E000
E000
E000
E000
E000
FFFC
FFFC
FFFC
E000
E000
E000
E000
E000
E000
E000
FFFF
FFFF
FFFF
ENDCHAR
STARTCHAR ebreve
ENCODING 277
SWIDTH 588 0
DWIDTH 19 0
BBX 17 25 1 0
BITMAP
0C1800
0E3800
07F000
07F000
03E000
000000
000000
000000
03F000
0FFC00
3FFE00
380E00
700700
700300
E00300
FFFF80
FFFF80
FFFF80
E00000
700000
780200
3C0600
3FFF00
0FFC00
03F000
ENDCHAR
STARTCHAR Edotaccent
ENCODING 278
SWIDTH 653 0
DWIDTH 21 0
BBX 16 28 3 0
BITMAP
0180
03C0
03C0
0180
0000
0000
FFFF
FFFF
FFFF
E000
E000
E000
E000
E000
E000
FFFC
FFFC
FFFC
E000
E000
E000
E000
E000
E000
E000
FFFF
FFFF
FFFF
ENDCHAR
STARTCHAR edotaccent
ENCODING 279
SWIDTH 588 0
DWIDTH 19 0
BBX 17 24 1 0
BITMAP
01C000
01C000
01C000
01C000
000000
000000
000000
03F000
0FFC00
3FFE00
380E00
700700
700300
E00300
FFFF80
FFFF80
FFFF80
E00000
700000
780200
3C0600
3FFF00
0FFC00
03F000
ENDCHAR
STARTCHAR Eogonek
ENCODING 280
SWIDTH 653 0
DWIDTH 21 0
BBX 16 29 3 -7
BITMAP
FFFF
FFFF
FFFF
E000
E000
E000
E000
E000
E000
FFFC
FFFC
FFFC
E000
E000
E000
E000
E000
E000
E000
FFFF
FFFF
FFFF
000E
001C
0018
0038
003F
001F
000F
ENDCHAR
STARTCHAR eogonek
ENCODING 281
SWIDTH 588 0
DWIDTH 19 0
BBX 17 24 1 -7
BITMAP
03F000
0FFC00
3FFE00
380E00
700700
700300
E00300
FFFF80
FFFF80
FFFF80
E00000
700000
780200
3C0600
3FFF00
0FFC00
03F800
003000
007000
006000
00E000
00FC00
007C00
003C00
ENDCHAR
STARTCHAR Ecaron
ENCODING 282
SWIDTH 653 0
DWIDTH 21 0
BBX 16 30 3 0
BITMAP
1C70
1C70
0EE0
07C0
0380
0000
0000
0000
FFFF
FFFF
FFFF
E000
E000
E000
E000
E000
E000
FFFC
FFFC
FFFC
E000
E000
E000
E000
E000
E000
E000
FFFF
FFFF
FFFF
ENDCHAR
STARTCHAR ecaron
ENCODING 283
SWIDTH 588 0
DWIDTH 19 0
BBX 17 25 1 0
BITMAP
0E3800
0E3800
077000
03E000
01C000
000000
000000
000000
03F000
0FFC00
3FFE00
380E00
700700
700300
E00300
FFFF80
FFFF80
FFFF80
E00000
700000
780200
3C0600
3FFF00
0FFC00
03F000
ENDCHAR
STARTCHAR Gcircumflex
ENCODING 284
SWIDTH 751 0
DWIDTH 24 0
BBX 21 30 1 0
BITMAP
003800
007C00
00FC00
00EE00
03C700
000000
000000
001800
01FF80
07FFE0
0FC1F0
1E0070
3C0020
780000
700000
700000
F00000
E00000
E00FF8
E00FF8
E00FF8
700038
700038
780038
380038
3E0038
1F00F8
0FFFF0
03FFE0
00FF00
ENDCHAR
STARTCHAR gcircumflex
ENCODING 285
SWIDTH 638 0
DWIDTH 20 0
BBX 17 31 1 -6
BITMAP
01C000
03E000
03F000
077800
0E3C00
000000
000000
000000
07E380
1FF380
3FFB80
780F80
700780
700780
E00380
E00380
E00380
E00380
700780
700780
780F80
3FFB80
1FF380
07E380
000380
000780
200700
300F00
7FFE00
1FFC00
07F000
ENDCHAR
STARTCHAR Gbreve
ENCODING 286
SWIDTH 751 0
DWIDTH 24 0
BBX 21 29 1 0
BITMAP
018700
018600
01FE00
00FE00
007800
000000
001800
01FF80
07FFE0
0FC1F0
1E0070
3C0020
780000
700000
700000
F00000
E00000
E00FF8
E00FF8
E00FF8
700038
700038
780038
380038
3E0038
1F00F8
0FFFF0
03FFE0
00FF00
ENDCHAR
STARTCHAR gbreve
ENCODING 287
SWIDTH 638 0
DWIDTH 20 0
BBX 17 31 1 -6
BITMAP
0E1800
061800
07F800
07F000
01E000
000000
000000
000000
07E380
1FF380
3FFB80
780F80
700780
700780
E00380
E00380
E00380
E00380
700780
700780
780F80
3FFB80
1FF380
07E380
000380
000780
200700
300F00
7FFE00
1FFC00
07F000
ENDCHAR
STARTCHAR Gdotaccent
ENCODING 288
SWIDTH 751 0
DWIDTH 24 0
BBX 21 28 1 0
BITMAP
003800
003800
007800
003800
000000
001800
01FF80
07FFE0
0FC1F0
1E0070
3C0020
780000
700000
700000
F00000
E00000
E00FF8
E00FF8
E00FF8
700038
700038
780038
380038
3E0038
1F00F8
0FFFF0
03FFE0
00FF00
ENDCHAR
STARTCHAR gdotaccent
ENCODING 289
SWIDTH 638 0
DWIDTH 20 0
BBX 17 30 1 -6
BITMAP
01C000
01E000
01E000
01C000
000000
000000
000000
07E380
1FF380
3FFB80
780F80
700780
700780
E00380
E00380
E00380
E00380
700780
700780
780F80
3FFB80
1FF380
07E380
000380
000780
200700
300F00
7FFE00
1FFC00
07F000
ENDCHAR
STARTCHAR Gcommaaccent
ENCODING 290
SWIDTH 751 0
DWIDTH 24 0
BBX 21 30 1 -7
BITMAP
001800
01FF80
07FFE0
0FC1F0
1E0070
3C0020
780000
700000
700000
F00000
E00000
E00FF8
E00FF8
E00FF8
700038
700038
780038
380038
3E0038
1F00F8
0FFFF0
03FFE0
00FF00
000000
000000
003800
003000
007000
007000
006000
ENDCHAR
STARTCHAR gcommaaccent
ENCODING 291
SWIDTH 638 0
DWIDTH 20 0
BBX 17 31 1 -6
BITMAP
006000
00E000
00E000
00C000
01C000
000000
000000
000000
07E380
1FF380
3FFB80
780F80
700780
700780
E00380
E00380
E00380
E00380
700780
700780
780F80
3FFB80
1FF380
07E380
000380
000780
200700
300F00
7FFE00
1FFC00
07F000
ENDCHAR
STARTCHAR Hcircumflex
ENCODING 292
SWIDTH 793 0
DWIDTH 25 0
BBX 19 30 3 0
BITMAP
00E000
01F000
01F800
03BC00
071E00
000000
000000
000000
E000E0
E000E0
E000E0
E000E0
E000E0
E000E0
E000E0
E000E0
E000E0
FFFFE0
FFFFE0
FFFFE0
E000E0
E000E0
E000E0
E000E0
E000E0
E000E0
E000E0
E000E0
E000E0
E000E0
ENDCHAR
STARTCHAR hcircumflex
ENCODING 293
SWIDTH 665 0
DWIDTH 21 0
BBX 19 32 0 0
BITMAP
1C0000
3E0000
7F0000
770000
E38000
000000
000000
000000
1C0000
1C0000
1C0000
1C0000
1C0000
1C0000
1C0000
1C7E00
1CFF80
1DFFC0
1F03C0
1E01E0
1E00E0
1C00E0
1C00E0
1C00E0
1C00E0
1C00E0
1C00E0
1C00E0
1C00E0
1C00E0
1C00E0
1C00E0
ENDCHAR
STARTCHAR Hbar
ENCODING 294
SWIDTH 793 0
DWIDTH 25 0
BBX 25 22 0 0
BITMAP
1C001C00
1C001C00
1C001C00
FFFFFF80
FFFFFF80
1C001C00
1C001C00
1C001C00
1C001C00
1FFFFC00
1FFFFC00
1FFFFC00
1C001C00
1C001C00
1C001C00
1C001C00
1C001C00
1C001C00
1C001C00
1C001C00
1C001C00
1C001C00
ENDCHAR
STARTCHAR hbar
ENCODING 295
SWIDTH 665 0
DWIDTH 21 0
BBX 18 24 1 0
BITMAP
380000
380000
380000
FFF000
FFF000
380000
380000
38FC00
39FF00
3BFF80
3E0780
3C03C0
3C01C0
3801C0
3801C0
3801C0
3801C0
3801C0
3801C0
3801C0
3801C0
3801C0
3801C0
3801C0
ENDCHAR
STARTCHAR Itilde
ENCODING 296
SWIDTH 296 0
DWIDTH 9 0
BBX 10 28 0 0
BITMAP
70C0
FFC0
FF80
C780
0000
0000
1C00
1C00
1C00
1C00
1C00
1C00
1C00
1C00
1C00
1C00
1C00
1C00
1C00
1C00
1C00
1C00
1C00
1C00
1C00
1C00
1C00
1C00
ENDCHAR
STARTCHAR itilde
ENCODING 297
SWIDTH 274 0
DWIDTH 9 0
BBX 9 23 0 0
BITMAP
7980
FF80
CF00
0200
0000
0000
1C00
1C00
1C00
1C00
1C00
1C00
1C00
1C00
1C00
1C00
1C00
1C00
1C00
1C00
1C00
1C00
1C00
ENDCHAR
STARTCHAR Imacron
ENCODING 298
SWIDTH 296 0
DWIDTH 9 0
BBX 9 28 0 0
BITMAP
FF80
FF80
FF80
0000
0000
0000
1C00
1C00
1C00
1C00
1C00
1C00
1C00
1C00
1C00
1C00
1C00
1C00
1C00
1C00
1C00
1C00
1C00
1C00
1C00
1C00
1C00
1C00
ENDCHAR
STARTCHAR imacron
ENCODING 299
SWIDTH 274 0
DWIDTH 9 0
BBX 8 22 0 0
BITMAP
FF
FF
FF
00
00
1C
1C
1C
1C
1C
1C
1C
1C
1C
1C
1C
1C
1C
1C
1C
1C
1C
ENDCHAR
STARTCHAR Ibreve
ENCODING 300
SWIDTH 296 0
DWIDTH 9 0
BBX 9 29 0 0
BITMAP
E180
6180
7F80
7F00
1E00
0000
0000
1C00
1C00
1C00
1C00
1C00
1C00
1C00
1C00
1C00
1C00
1C00
1C00
1C00
1C00
1C00
1C00
1C00
1C00
1C00
1C00
1C00
1C00
ENDCHAR
STARTCHAR ibreve
ENCODING 301
SWIDTH 274 0
DWIDTH 9 0
BBX 9 25 0 0
BITMAP
C180
E380
7F00
7F00
3C00
0000
0000
0000
1C00
1C00
1C00
1C00
1C00
1C00
1C00
1C00
1C00
1C00
1C00
1C00
1C00
1C00
1C00
1C00
1C00
ENDCHAR
STARTCHAR Iogonek
ENCODING 302
SWIDTH 296 0
DWIDTH 9 0
BBX 6 30 0 -8
BITMAP
1C
1C
1C
1C
1C
1C
1C
1C
1C
1C
1C
1C
1C
1C
1C
1C
1C
1C
1C
1C
1C
1C
1C
38
70
60
E0
7C
7C
18
ENDCHAR
STARTCHAR iogonek
ENCODING 303
SWIDTH 274 0
DWIDTH 9 0
BBX 6 31 0 -7
BITMAP
1C
1C
1C
1C
00
00
00
1C
1C
1C
1C
1C
1C
1C
1C
1C
1C
1C
1C
1C
1C
1C
1C
1C
38
70
E0
E0
E8
FC
7C
ENDCHAR
STARTCHAR Idotaccent
ENCODING 304
SWIDTH 296 0
DWIDTH 9 0
BBX 4 28 3 0
BITMAP
60
F0
F0
60
00
00
E0
E0
E0
E0
E0
E0
E0
E0
E0
E0
E0
E0
E0
E0
E0
E0
E0
E0
E0
E0
E0
E0
ENDCHAR
STARTCHAR dotlessi
ENCODING 305
SWIDTH 274 0
DWIDTH 9 0
BBX 3 17 3 0
BITMAP
E0
E0
E0
E0
E0
E0
E0
E0
E0
E0
E0
E0
E0
E0
E0
E0
E0
ENDCHAR
STARTCHAR IJ
ENCODING 306
SWIDTH 802 0
DWIDTH 26 0
BBX 19 22 3 0
BITMAP
E0FFE0
E0FFE0
E0FFE0
E000E0
E000E0
E000E0
E000E0
E000E0
E000E0
E000E0
E000E0
E000E0
E000E0
E000E0
E000E0
E000E0
E000E0
E080E0
E1C1E0
E3FFC0
E0FF80
E03F00
ENDCHAR
STARTCHAR ij
ENCODING 307
SWIDTH 547 0
DWIDTH 18 0
BBX 12 30 3 -6
BITMAP
E060
E0F0
E0F0
E060
0000
0000
0000
E070
E070
E070
E070
E070
E070
E070
E070
E070
E070
E070
E070
E070
E070
E070
E070
E070
0070
00F0
00E0
0FE0
0FC0
0F80
ENDCHAR
STARTCHAR Jcircumflex
ENCODING 308
SWIDTH 490 0
DWIDTH 16 0
BBX 13 30 0 0
BITMAP
0380
07C0
0FC0
0EE0
3C70
0000
0000
0000
3FF8
3FF8
3FF8
0038
0038
0038
0038
0038
0038
0038
0038
0038
0038
0038
0038
0038
0038
4078
E070
FFF0
7FE0
1F80
ENDCHAR
STARTCHAR jcircumflex
ENCODING 309
SWIDTH 263 0
DWIDTH 8 0
BBX 11 31 -2 -6
BITMAP
0700
0F80
1F80
3DC0
78E0
0000
0000
0000
0700
0700
0700
0700
0700
0700
0700
0700
0700
0700
0700
0700
0700
0700
0700
0700
0700
0700
0700
0F00
7E00
FE00
F800
ENDCHAR
STARTCHAR Kcommaaccent
ENCODING 310
SWIDTH 707 0
DWIDTH 23 0
BBX 19 29 3 -7
BITMAP
E003C0
E00780
E00F00
E00E00
E01C00
E03800
E07000
E0F000
E1E000
E3C000
E7C000
EFE000
FEF000
FC7000
F87800
F03C00
E01E00
E00F00
E00700
E00780
E003C0
E001E0
000000
000000
01C000
038000
038000
030000
030000
ENDCHAR
STARTCHAR kcommaaccent
ENCODING 311
SWIDTH 582 0
DWIDTH 19 0
BBX 15 31 3 -7
BITMAP
E000
E000
E000
E000
E000
E000
E000
E01E
E038
E070
E0E0
E1C0
E3C0
E780
EF80
FFC0
FDC0
F9E0
F0F0
E070
E078
E03C
E01C
E01E
0000
0000
0380
0700
0700
0600
0600
ENDCHAR
STARTCHAR kgreenlandic
ENCODING 312
SWIDTH 578 0
DWIDTH 19 0
BBX 15 17 3 0
BITMAP
E01E
E038
E070
E0E0
E1C0
E380
E700
EF80
FFC0
FDC0
F9E0
F0F0
E070
E078
E03C
E01C
E01E
ENDCHAR
STARTCHAR Lacute
ENCODING 313
SWIDTH 524 0
DWIDTH 17 0
BBX 13 29 3 0
BITMAP
1000
1E00
3800
7000
A000
0000
0000
E000
E000
E000
E000
E000
E000
E000
E000
E000
E000
E000
E000
E000
E000
E000
E000
E000
E000
E000
FFF8
FFF8
FFF8
ENDCHAR
STARTCHAR lacute
ENCODING 314
SWIDTH 285 0
DWIDTH 9 0
BBX 6 31 3 0
BITMAP
18
3C
78
F0
00
00
00
E0
E0
E0
E0
E0
E0
E0
E0
E0
E0
E0
E0
E0
E0
E0
E0
E0
E0
E0
E0
E0
E0
E0
E0
ENDCHAR
STARTCHAR Lcommaaccent
ENCODING 315
SWIDTH 524 0
DWIDTH 17 0
BBX 13 29 3 -7
BITMAP
E000
E000
E000
E000
E000
E000
E000
E000
E000
E000
E000
E000
E000
E000
E000
E000
E000
E000
E000
FFF8
FFF8
FFF8
0000
0000
0700
0700
0600
0E00
0E00
ENDCHAR
STARTCHAR lcommaaccent
ENCODING 316
SWIDTH 285 0
DWIDTH 9 0
BBX 4 31 2 -7
BITMAP
70
70
70
70
70
70
70
70
70
70
70
70
70
70
70
70
70
70
70
70
70
70
70
70
00
00
70
70
60
E0
C0
ENDCHAR
STARTCHAR Lcaron
ENCODING 317
SWIDTH 524 0
DWIDTH 17 0
BBX 13 22 3 0
BITMAP
E038
E038
E038
E038
E030
E030
E000
E000
E000
E000
E000
E000
E000
E000
E000
E000
E000
E000
E000
FFF8
FFF8
FFF8
ENDCHAR
STARTCHAR lcaron
ENCODING 318
SWIDTH 285 0
DWIDTH 9 0
BBX 8 24 3 0
BITMAP
E0
E3
E3
E3
E3
E3
E3
E0
E0
E0
E0
E0
E0
E0
E0
E0
E0
E0
E0
E0
E0
E0
E0
E0
ENDCHAR
STARTCHAR Ldot
ENCODING 319
SWIDTH 524 0
DWIDTH 17 0
BBX 13 22 3 0
BITMAP
E000
E000
E000
E000
E000
E000
E000
E060
E0F0
E0F0
E060
E000
E000
E000
E000
E000
E000
E000
E000
FFF8
FFF8
FFF8
ENDCHAR
STARTCHAR ldot
ENCODING 320
SWIDTH 384 0
DWIDTH 12 0
BBX 9 24 3 0
BITMAP
E000
E000
E000
E000
E000
E000
E000
E000
E000
E380
E380
E380
E380
E000
E000
E000
E000
E000
E000
E000
E000
E000
E000
E000
ENDCHAR
STARTCHAR Lslash
ENCODING 321
SWIDTH 552 0
DWIDTH 18 0
BBX 16 22 1 0
BITMAP
1C00
1C00
1C00
1C00
1C00
1C00
1C40
1CC0
1F80
1E00
3C00
FC00
DC00
1C00
1C00
1C00
1C00
1C00
1C00
1FFF
1FFF
1FFF
ENDCHAR
STARTCHAR lslash
ENCODING 322
SWIDTH 376 0
DWIDTH 12 0
BBX 10 24 1 0
BITMAP
0E00
0E00
0E00
0E00
0E00
0E00
0E00
0E00
0E40
0FC0
0FC0
0F00
3E00
FE00
CE00
8E00
0E00
0E00
0E00
0E00
0E00
0E00
0E00
0E00
ENDCHAR
STARTCHAR Nacute
ENCODING 323
SWIDTH 794 0
DWIDTH 25 0
BBX 19 29 3 0
BITMAP
000800
001E00
003C00
007000
00A000
000000
000000
F000E0
F000E0
F800E0
FC00E0
FE00E0
FE00E0
EF00E0
E780E0
E3C0E0
E1C0E0
E1E0E0
E0F0E0
E078E0
E038E0
E03CE0
E01EE0
E00FE0
E007E0
E007E0
E003E0
E001E0
E000E0
ENDCHAR
STARTCHAR nacute
ENCODING 324
SWIDTH 659 0
DWIDTH 21 0
BBX 16 24 3 0
BITMAP
0060
0078
00E0
01C0
0200
0000
0000
E3F0
EFFC
FFFE
F81E
F00E
E00F
E007
E007
E007
E007
E007
E007
E007
E007
E007
E007
E007
ENDCHAR
STARTCHAR Ncommaaccent
ENCODING 325
SWIDTH 794 0
DWIDTH 25 0
BBX 19 29 3 -7
BITMAP
F000E0
F000E0
F800E0
FC00E0
FE00E0
FE00E0
EF00E0
E780E0
E3C0E0
E1C0E0
E1E0E0
E0F0E0
E078E0
E038E0
E03CE0
E01EE0
E00FE0
E007E0
E007E0
E003E0
E001E0
E000E0
000000
000000
00E000
00E000
00C000
01C000
01C000
ENDCHAR
STARTCHAR ncommaaccent
ENCODING 326
SWIDTH 659 0
DWIDTH 21 0
BBX 16 24 3 -7
BITMAP
E3F0
EFFC
FFFE
F81E
F00E
E00F
E007
E007
E007
E007
E007
E007
E007
E007
E007
E007
E007
0000
0000
0380
0380
0300
0300
0700
ENDCHAR
STARTCHAR Ncaron
ENCODING 327
SWIDTH 794 0
DWIDTH 25 0
BBX 19 30 3 0
BITMAP
0E1C00
073C00
03B800
01F000
01E000
000000
000000
000000
F000E0
F000E0
F800E0
FC00E0
FE00E0
FE00E0
EF00E0
E780E0
E3C0E0
E1C0E0
E1E0E0
E0F0E0
E078E0
E038E0
E03CE0
E01EE0
E00FE0
E007E0
E007E0
E003E0
E001E0
E000E0
ENDCHAR
STARTCHAR ncaron
ENCODING 328
SWIDTH 659 0
DWIDTH 21 0
BBX 16 25 3 0
BITMAP
1C38
0E70
07E0
07E0
03C0
0000
0000
0000
E3F0
EFFC
FFFE
F81E
F00E
E00F
E007
E007
E007
E007
E007
E007
E007
E007
E007
E007
E007
ENDCHAR
STARTCHAR napostrophe
ENCODING 329
SWIDTH 760 0
DWIDTH 24 0
BBX 21 22 1 0
BITMAP
C00000
C00000
C00000
C00000
C00000
C71F80
C73FE0
C77FF0
07C0F0
078078
078038
070038
070038
070038
070038
070038
070038
070038
070038
070038
070038
070038
ENDCHAR
STARTCHAR Eng
ENCODING 330
SWIDTH 794 0
DWIDTH 25 0
BBX 19 28 3 -6
BITMAP
F000E0
F000E0
F800E0
FC00E0
FE00E0
FE00E0
EF00E0
E780E0
E3C0E0
E3C0E0
E1E0E0
E0F0E0
E078E0
E038E0
E03CE0
E01EE0
E00FE0
E007E0
E007E0
E003E0
E001E0
E000E0
0000E0
0100E0
0181E0
03FFC0
01FF80
007F00
ENDCHAR
STARTCHAR eng
ENCODING 331
SWIDTH 659 0
DWIDTH 21 0
BBX 16 23 3 -6
BITMAP
E3F0
EFFC
FFFE
F81E
F00E
E00F
E007
E007
E007
E007
E007
E007
E007
E007
E007
E007
E007
0007
0007
000E
00FE
01FC
00F8
ENDCHAR
STARTCHAR Omacron
ENCODING 332
SWIDTH 812 0
DWIDTH 26 0
BBX 24 28 1 0
BITMAP
01FF80
01FF80
01FF80
000000
000000
000000
00FF00
03FFC0
0FFFF0
1F00F8
3E007C
38001C
78001E
70000E
F0000E
E0000F
E00007
E00007
E0000F
F0000E
70000E
78001E
38001C
3E007C
1F00F8
0FFFE0
03FFC0
00FE00
ENDCHAR
STARTCHAR omacron
ENCODING 333
SWIDTH 621 0
DWIDTH 20 0
BBX 18 24 1 0
BITMAP
0FFC00
0FFC00
0FFC00
000000
000000
000000
000000
03F000
0FFC00
1FFE00
3C0F00
780780
700380
F00380
E001C0
E001C0
E001C0
F00380
700380
780780
3C0F00
1FFE00
0FFC00
03F000
ENDCHAR
STARTCHAR Obreve
ENCODING 334
SWIDTH 812 0
DWIDTH 26 0
BBX 24 29 1 0
BITMAP
00C300
00C300
00FF00
007E00
003C00
000000
000000
00FF00
03FFC0
0FFFF0
1F00F8
3E007C
38001C
78001E
70000E
F0000E
E0000F
E00007
E00007
E0000F
F0000E
70000E
78001E
38001C
3E007C
1F00F8
0FFFE0
03FFC0
00FE00
ENDCHAR
STARTCHAR obreve
ENCODING 335
SWIDTH 621 0
DWIDTH 20 0
BBX 18 25 1 0
BITMAP
061800
061800
07F800
03F000
01E000
000000
000000
000000
03F000
0FFC00
1FFE00
3C0F00
780780
700380
F00380
E001C0
E001C0
E001C0
F00380
700380
780780
3C0F00
1FFE00
0FFC00
03F000
ENDCHAR
STARTCHAR Ohungarumlaut
ENCODING 336
SWIDTH 812 0
DWIDTH 26 0
BBX 24 29 1 0
BITMAP
003180
007BC0
007380
00E700
004200
000000
000000
00FF00
03FFC0
0FFFF0
1F00F8
3E007C
38001C
78001E
70000E
F0000E
E0000F
E00007
E00007
E0000F
F0000E
70000E
78001E
38001C
3E007C
1F00F8
0FFFE0
03FFC0
00FE00
ENDCHAR
STARTCHAR ohungarumlaut
ENCODING 337
SWIDTH 621 0
DWIDTH 20 0
BBX 18 24 1 0
BITMAP
018C00
03DE00
039C00
073800
000000
000000
000000
03F000
0FFC00
1FFE00
3C0F00
780780
700380
F00380
E001C0
E001C0
E001C0
F00380
700380
780780
3C0F00
1FFE00
0FFC00
03F000
ENDCHAR
STARTCHAR OE
ENCODING 338
SWIDTH 1095 0
DWIDTH 35 0
BBX 32 22 1 0
BITMAP
00FFFFFF
03FFFFFF
0FFFFFFF
1F00E000
3C00E000
3800E000
7800E000
7000E000
F000E000
E000FFFE
E000FFFE
E000FFFE
E000E000
F000E000
7000E000
7800E000
3800E000
3C00E000
1F00E000
0FFFFFFF
03FFFFFF
00FFFFFF
ENDCHAR
STARTCHAR oe
ENCODING 339
SWIDTH 1049 0
DWIDTH 34 0
BBX 31 17 1 0
BITMAP
03F00FC0
0FFC3FF0
1FFE7FF8
3C0FF03C
7807E01E
7003C00E
F003C00E
E001FFFE
E001FFFE
E001C000
F003C000
7003C000
7807E008
3C0FF01C
1FFE7FFC
0FFC3FF0
03F00FC0
ENDCHAR
STARTCHAR Racute
ENCODING 340
SWIDTH 723 0
DWIDTH 23 0
BBX 18 29 3 0
BITMAP
006000
007800
00F000
01C000
028000
000000
000000
FFF800
FFFE00
FFFF00
E00780
E00380
E001C0
E001C0
E001C0
E001C0
E001C0
E00380
E00780
FFFF00
FFFE00
FFF800
E01C00
E01C00
E00E00
E00F00
E00700
E00380
E003C0
ENDCHAR
STARTCHAR racute
ENCODING 341
SWIDTH 382 0
DWIDTH 12 0
BBX 9 24 3 0
BITMAP
0200
0780
0F00
1E00
0000
0000
0000
E380
EF80
FF80
F800
F000
F000
E000
E000
E000
E000
E000
E000
E000
E000
E000
E000
E000
ENDCHAR
STARTCHAR Rcommaaccent
ENCODING 342
SWIDTH 723 0
DWIDTH 23 0
BBX 18 29 3 -7
BITMAP
FFF800
FFFE00
FFFF00
E00780
E00380
E001C0
E001C0
E001C0
E001C0
E001C0
E00380
E00780
FFFF00
FFFE00
FFF800
E01C00
E01C00
E00E00
E00F00
E00700
E00380
E003C0
000000
000000
01C000
018000
018000
038000
030000
ENDCHAR
STARTCHAR rcommaaccent
ENCODING 343
SWIDTH 382 0
DWIDTH 12 0
BBX 10 24 2 -7
BITMAP
71C0
77C0
7FC0
7C00
7800
7800
7000
7000
7000
7000
7000
7000
7000
7000
7000
7000
7000
0000
0000
7000
6000
E000
E000
C000
ENDCHAR
STARTCHAR Rcaron
ENCODING 344
SWIDTH 723 0
DWIDTH 23 0
BBX 18 30 3 0
BITMAP
387000
1CE000
0EE000
07C000
078000
000000
000000
000000
FFF800
FFFE00
FFFF00
E00780
E00380
E001C0
E001C0
E001C0
E001C0
E001C0
E00380
E00780
FFFF00
FFFE00
FFF800
E01C00
E01C00
E00E00
E00F00
E00700
E00380
E003C0
ENDCHAR
STARTCHAR rcaron
ENCODING 345
SWIDTH 382 0
DWIDTH 12 0
BBX 9 25 3 0
BITMAP
E380
E380
7700
3E00
3C00
0000
0000
0000
E380
EF80
FF80
F800
F000
F000
E000
E000
E000
E000
E000
E000
E000
E000
E000
E000
E000
ENDCHAR
STARTCHAR Sacute
ENCODING 346
SWIDTH 616 0
DWIDTH 20 0
BBX 17 29 1 0
BITMAP
003000
003C00
007800
00E000
014000
000000
000000
03F800
0FFF80
3FFF00
3C0700
780100
780000
780000
7C0000
3E0000
1FC000
0FF800
03FE00
007F00
000F80
000780
000780
400380
600780
F80F00
7FFF00
3FFC00
07F000
ENDCHAR
STARTCHAR sacute
ENCODING 347
SWIDTH 460 0
DWIDTH 15 0
BBX 13 24 1 0
BITMAP
00C0
01E0
03C0
0780
0000
0000
0000
0FC0
3FF0
7FF0
7020
6000
7000
7800
3F00
1FE0
03F0
0070
0038
8038
E078
FFF0
7FE0
1FC0
ENDCHAR
STARTCHAR Scircumflex
ENCODING 348
SWIDTH 616 0
DWIDTH 20 0
BBX 17 30 1 0
BITMAP
01E000
01E000
03F000
073800
0E3C00
000000
000000
000000
03F800
0FFF80
3FFF00
3C0700
780100
780000
780000
7C0000
3E0000
1FC000
0FF800
03FE00
007F00
000F80
000780
000780
400380
600780
F80F00
7FFF00
3FFC00
07F000
ENDCHAR
STARTCHAR scircumflex
ENCODING 349
SWIDTH 460 0
DWIDTH 15 0
BBX 13 25 1 0
BITMAP
0700
0F80
1FC0
1DC0
38E0
0000
0000
0000
0FC0
3FF0
7FF0
7020
6000
7000
7800
3F00
1FE0
03F0
0070
0038
8038
E078
FFF0
7FE0
1FC0
ENDCHAR
STARTCHAR Scedilla
ENCODING 350
SWIDTH 616 0
DWIDTH 20 0
BBX 17 29 1 -7
BITMAP
03F800
0FFF80
3FFF00
3C0700
780100
780000
780000
7C0000
3E0000
1FC000
0FF800
03FE00
007F00
000F80
000780
000780
400380
600780
F80F00
7FFF00
3FFC00
07F000
00C000
00C000
01F000
003000
03F000
03F000
03E000
ENDCHAR
STARTCHAR scedilla
ENCODING 351
SWIDTH 460 0
DWIDTH 15 0
BBX 13 25 1 -8
BITMAP
0FC0
3FF0
7FF0
7020
6000
7000
7800
7F00
1FE0
07F0
00F0
0078
0038
4038
F070
FFE0
3FC0
0700
0600
0780
0180
01C0
0FC0
1F80
0200
ENDCHAR
STARTCHAR Scaron
ENCODING 352
SWIDTH 616 0
DWIDTH 20 0
BBX 17 30 1 0
BITMAP
1C3800
0E7000
07F000
03E000
03C000
000000
000000
000000
03F800
0FFF80
3FFF00
3C0700
780100
780000
780000
7C0000
3E0000
1FC000
0FF800
03FE00
007F00
000F80
000780
000780
400380
600780
F80F00
7FFF00
3FFC00
07F000
ENDCHAR
STARTCHAR scaron
ENCODING 353
SWIDTH 460 0
DWIDTH 15 0
BBX 13 25 1 0
BITMAP
38E0
38E0
1DC0
0F80
0700
0000
0000
0000
0FC0
3FF0
7FF0
7020
6000
7000
7800
3F00
1FE0
03F0
0070
0038
8038
E078
FFF0
7FE0
1FC0
ENDCHAR
STARTCHAR uni0162
ENCODING 354
SWIDTH 567 0
DWIDTH 18 0
BBX 18 29 0 -7
BITMAP
FFFFC0
FFFFC0
FFFFC0
00E000
00E000
00E000
00E000
00E000
00E000
00E000
00E000
00E000
00E000
00E000
00E000
00E000
00E000
00E000
00E000
00E000
00E000
00E000
00C000
00C000
01F000
003000
03F000
03F000
01E000
ENDCHAR
STARTCHAR uni0163
ENCODING 355
SWIDTH 397 0
DWIDTH 13 0
BBX 11 28 1 -7
BITMAP
1C00
1C00
1C00
1C00
FFE0
FFE0
FFE0
1C00
1C00
1C00
1C00
1C00
1C00
1C00
1C00
1C00
1C00
1C40
1FE0
1FE0
07C0
0300
0300
07C0
00C0
0FC0
0FC0
0F80
ENDCHAR
STARTCHAR Tcaron
ENCODING 356
SWIDTH 567 0
DWIDTH 18 0
BBX 18 30 0 0
BITMAP
0E3800
0E3800
077000
03E000
01C000
000000
000000
000000
FFFFC0
FFFFC0
FFFFC0
00E000
00E000
00E000
00E000
00E000
00E000
00E000
00E000
00E000
00E000
00E000
00E000
00E000
00E000
00E000
00E000
00E000
00E000
00E000
ENDCHAR
STARTCHAR tcaron
ENCODING 357
SWIDTH 397 0
DWIDTH 13 0
BBX 11 23 1 0
BITMAP
00E0
00C0
1CC0
1CC0
1CC0
1C00
FFE0
FFE0
FFE0
1C00
1C00
1C00
1C00
1C00
1C00
1C00
1C00
1C00
1C00
1C20
1FE0
1FE0
07C0
ENDCHAR
STARTCHAR Tbar
ENCODING 358
SWIDTH 567 0
DWIDTH 18 0
BBX 18 22 0 0
BITMAP
FFFFC0
FFFFC0
FFFFC0
00E000
00E000
00E000
00E000
00E000
00E000
00E000
1FFE00
1FFE00
00E000
00E000
00E000
00E000
00E000
00E000
00E000
00E000
00E000
00E000
ENDCHAR
STARTCHAR tbar
ENCODING 359
SWIDTH 397 0
DWIDTH 13 0
BBX 11 21 1 0
BITMAP
1C00
1C00
1C00
1C00
FFE0
FFE0
FFE0
1C00
1C00
1C00
FFE0
FFE0
FFE0
1C00
1C00
1C00
1C00
1C20
1FE0
1FE0
07C0
ENDCHAR
STARTCHAR Utilde
ENCODING 360
SWIDTH 762 0
DWIDTH 24 0
BBX 19 28 3 0
BITMAP
078C00
07FC00
0FFC00
0C3800
000000
000000
E000E0
E000E0
E000E0
E000E0
E000E0
E000E0
E000E0
E000E0
E000E0
E000E0
E000E0
E000E0
E000E0
E000E0
E001E0
E001C0
F001C0
7003C0
780780
3FFF00
1FFE00
07F800
ENDCHAR
STARTCHAR utilde
ENCODING 361
SWIDTH 649 0
DWIDTH 21 0
BBX 16 23 2 0
BITMAP
0718
0FF8
0FF8
1C70
0000
0000
E007
E007
E007
E007
E007
E007
E007
E007
E007
E007
E007
F00F
700F
781F
7FF7
3FE7
0FC7
ENDCHAR
STARTCHAR Umacron
ENCODING 362
SWIDTH 762 0
DWIDTH 24 0
BBX 19 28 3 0
BITMAP
0FFC00
0FFC00
0FFC00
000000
000000
000000
E000E0
E000E0
E000E0
E000E0
E000E0
E000E0
E000E0
E000E0
E000E0
E000E0
E000E0
E000E0
E000E0
E000E0
E001E0
E001C0
F001C0
7003C0
780780
3FFF00
1FFE00
07F800
ENDCHAR
STARTCHAR umacron
ENCODING 363
SWIDTH 649 0
DWIDTH 21 0
BBX 16 24 2 0
BITMAP
0FF8
0FF8
0FF8
0000
0000
0000
0000
E007
E007
E007
E007
E007
E007
E007
E007
E007
E007
E007
F00F
700F
781F
7FF7
3FE7
0FC7
ENDCHAR
STARTCHAR Ubreve
ENCODING 364
SWIDTH 762 0
DWIDTH 24 0
BBX 19 29 3 0
BITMAP
061800
061800
07F800
03F000
01E000
000000
000000
E000E0
E000E0
E000E0
E000E0
E000E0
E000E0
E000E0
E000E0
E000E0
E000E0
E000E0
E000E0
E000E0
E000E0
E001E0
E001C0
F001C0
7003C0
780780
3FFF00
1FFE00
07F800
ENDCHAR
STARTCHAR ubreve
ENCODING 365
SWIDTH 649 0
DWIDTH 21 0
BBX 16 25 2 0
BITMAP
0C18
0E38
07F0
07F0
03C0
0000
0000
0000
E007
E007
E007
E007
E007
E007
E007
E007
E007
E007
E007
F00F
700F
781F
7FF7
3FE7
0FC7
ENDCHAR
STARTCHAR Uring
ENCODING 366
SWIDTH 762 0
DWIDTH 24 0
BBX 19 31 3 0
BITMAP
00E000
01F000
031000
021800
031000
03F000
01E000
000000
000000
E000E0
E000E0
E000E0
E000E0
E000E0
E000E0
E000E0
E000E0
E000E0
E000E0
E000E0
E000E0
E000E0
E000E0
E001E0
E001C0
F001C0
7003C0
780780
3FFF00
1FFE00
07F800
ENDCHAR
STARTCHAR uring
ENCODING 367
SWIDTH 649 0
DWIDTH 21 0
BBX 16 26 2 0
BITMAP
01C0
03E0
0630
0630
0630
03E0
01C0
0000
0000
E007
E007
E007
E007
E007
E007
E007
E007
E007
E007
E007
F00F
700F
781F
7FF7
3FE7
0FC7
ENDCHAR
STARTCHAR Uhungarumlaut
ENCODING 368
SWIDTH 762 0
DWIDTH 24 0
BBX 19 29 3 0
BITMAP
018C00
01CE00
039C00
073800
021000
000000
000000
E000E0
E000E0
E000E0
E000E0
E000E0
E000E0
E000E0
E000E0
E000E0
E000E0
E000E0
E000E0
E000E0
E000E0
E001E0
E001C0
F001C0
7003C0
780780
3FFF00
1FFE00
07F800
ENDCHAR
STARTCHAR uhungarumlaut
ENCODING 369
SWIDTH 649 0
DWIDTH 21 0
BBX 16 24 2 0
BITMAP
0318
039C
0738
0E70
0000
0000
0000
E007
E007
E007
E007
E007
E007
E007
E007
E007
E007
E007
F00F
700F
781F
7FF7
3FE7
0FC7
ENDCHAR
STARTCHAR Uogonek
ENCODING 370
SWIDTH 762 0
DWIDTH 24 0
BBX 19 29 3 -7
BITMAP
E000E0
E000E0
E000E0
E000E0
E000E0
E000E0
E000E0
E000E0
E000E0
E000E0
E000E0
E000E0
E000E0
E000E0
E001E0
E001C0
F001C0
7003C0
780780
3FFF00
1FFE00
07FC00
001800
003800
003000
007000
003E00
003E00
001E00
ENDCHAR
STARTCHAR uogonek
ENCODING 371
SWIDTH 649 0
DWIDTH 21 0
BBX 16 24 2 -7
BITMAP
E007
E007
E007
E007
E007
E007
E007
E007
E007
E007
E007
F00F
700F
781F
7FF7
3FE7
0FC7
000E
001C
0038
0038
003A
003F
001F
ENDCHAR
STARTCHAR Wcircumflex
ENCODING 372
SWIDTH 1046 0
DWIDTH 33 0
BBX 33 30 0 0
BITMAP
0001C00000
0003E00000
0003F00000
0007780000
000E3C0000
0000000000
0000000000
0000000000
F001E00380
7001E00380
7003E00700
7803E00700
3803F00700
3803700E00
3C07300E00
1C07380E00
1C06381C00
1C0E181C00
0E0E1C1C00
0E0C1C1800
0E1C1C3800
071C0E3800
07180E3000
07380E7000
03B8077000
03B0076000
01F007E000
01F003E000
01E003C000
00E003C000
ENDCHAR
STARTCHAR wcircumflex
ENCODING 373
SWIDTH 876 0
DWIDTH 28 0
BBX 28 25 0 0
BITMAP
00070000
000F0000
001F8000
003DC000
0078E000
00000000
00000000
00000000
E00F0070
700F0070
700F80E0
701F80E0
381F80E0
381DC1C0
3839C1C0
1C39C180
1C30E380
0C70E380
0E706300
0E607700
06E07700
07E03600
07C03E00
03C03C00
03C01C00
ENDCHAR
STARTCHAR Ycircumflex
ENCODING 374
SWIDTH 630 0
DWIDTH 20 0
BBX 20 30 0 0
BITMAP
007000
00F000
01F800
039C00
078E00
000000
000000
000000
F00070
7000E0
3801E0
3801C0
1C0380
1E0380
0E0700
0F0F00
070E00
039E00
03DC00
01F800
01F800
00F000
00F000
007000
007000
007000
007000
007000
007000
007000
ENDCHAR
STARTCHAR ycircumflex
ENCODING 375
SWIDTH 514 0
DWIDTH 16 0
BBX 17 31 0 -6
BITMAP
01C000
03E000
07E000
0F7000
1E3800
000000
000000
000000
E00780
700700
700700
700E00
380E00
381C00
1C1C00
1C1C00
0C3800
0E3800
0E3000
077000
077000
03E000
03E000
03C000
01C000
018000
038000
478000
7F0000
FE0000
7C0000
ENDCHAR
STARTCHAR Ydieresis
ENCODING 376
SWIDTH 630 0
DWIDTH 20 0
BBX 20 27 0 0
BITMAP
038C00
039E00
038C00
000000
000000
F00070
7000E0
3801E0
3801C0
1C0380
1E0380
0E0700
0F0F00
070E00
039E00
03DC00
01F800
01F800
00F000
00F000
007000
007000
007000
007000
007000
007000
007000
ENDCHAR
STARTCHAR Zacute
ENCODING 377
SWIDTH 662 0
DWIDTH 21 0
BBX 19 29 1 0
BITMAP
001000
003E00
003800
007000
00E000
000000
000000
7FFFE0
7FFFE0
7FFFC0
0003C0
000780
000F00
001E00
001C00
003800
007800
00F000
01E000
03C000
038000
070000
0F0000
1E0000
3C0000
780000
7FFFE0
FFFFE0
FFFFE0
ENDCHAR
STARTCHAR zacute
ENCODING 378
SWIDTH 531 0
DWIDTH 17 0
BBX 14 24 2 0
BITMAP
00C0
01E0
03C0
0780
0000
0000
0000
FFF8
FFF8
FFF8
0070
00F0
01E0
03C0
0380
0700
0E00
1E00
3C00
7800
7000
FFFC
FFFC
FFFC
ENDCHAR
STARTCHAR Zdotaccent
ENCODING 379
SWIDTH 662 0
DWIDTH 21 0
BBX 19 28 1 0
BITMAP
006000
00F000
00F000
006000
000000
000000
7FFFE0
7FFFE0
7FFFC0
0003C0
000780
000F00
001E00
001C00
003800
007800
00F000
01E000
03C000
038000
070000
0F0000
1E0000
3C0000
780000
7FFFE0
FFFFE0
FFFFE0
ENDCHAR
STARTCHAR zdotaccent
ENCODING 380
SWIDTH 531 0
DWIDTH 17 0
BBX 14 24 2 0
BITMAP
0700
0700
0700
0700
0000
0000
0000
FFF8
FFF8
FFF8
0070
00F0
01E0
03C0
0380
0700
0E00
1E00
3C00
7800
7000
FFFC
FFFC
FFFC
ENDCHAR
STARTCHAR Zcaron
ENCODING 381
SWIDTH 662 0
DWIDTH 21 0
BBX 19 30 1 0
BITMAP
0E1C00
073800
03F000
03F000
01E000
000000
000000
000000
7FFFE0
7FFFE0
7FFFC0
0003C0
000780
000F00
001E00
001C00
003800
007800
00F000
01E000
03C000
038000
070000
0F0000
1E0000
3C0000
780000
7FFFE0
FFFFE0
FFFFE0
ENDCHAR
STARTCHAR zcaron
ENCODING 382
SWIDTH 531 0
DWIDTH 17 0
BBX 14 25 2 0
BITMAP
3870
38E0
1DC0
0F80
0780
0000
0000
0000
FFF8
FFF8
FFF8
0070
00F0
01E0
03C0
0380
0700
0E00
1E00
3C00
7800
7000
FFFC
FFFC
FFFC
ENDCHAR
STARTCHAR uni018F
ENCODING 399
SWIDTH 782 0
DWIDTH 25 0
BBX 23 22 1 0
BITMAP
00FE00
07FF80
0FFFE0
3F01F0
1C0078
080038
00001C
00001C
00001E
00000E
FFFFFE
FFFFFE
FFFFFE
F0001E
70001C
70003C
380038
3C0078
1F01F0
0FFFE0
03FF80
00FE00
ENDCHAR
STARTCHAR florin
ENCODING 402
SWIDTH 358 0
DWIDTH 11 0
BBX 18 30 -4 -6
BITMAP
001F00
003FC0
007F80
007000
00E000
00E000
00E000
00E000
03FE00
07FE00
07FE00
01C000
01C000
01C000
01C000
01C000
01C000
01C000
01C000
038000
038000
038000
038000
038000
038000
038000
070000
7F0000
FE0000
7C0000
ENDCHAR
STARTCHAR Ohorn
ENCODING 416
SWIDTH 837 0
DWIDTH 27 0
BBX 24 26 1 0
BITMAP
000006
00000E
00000E
00000E
00FF0E
03FFFC
0FFFF8
1F00F8
3E007C
38001C
78001E
70000E
F0000E
E0000F
E00007
E00007
E0000F
F0000E
70000E
78001E
38001C
3E007C
1F00F8
0FFFF0
03FFC0
00FE00
ENDCHAR
STARTCHAR ohorn
ENCODING 417
SWIDTH 651 0
DWIDTH 21 0
BBX 19 21 1 0
BITMAP
000060
0000E0
000060
000060
03F0E0
0FFFE0
1FFFC0
3C0F00
780780
700380
F00380
E001C0
E001C0
E001C0
F00380
700380
780780
3C0F00
1FFE00
0FFC00
03F000
ENDCHAR
STARTCHAR Uhorn
ENCODING 431
SWIDTH 787 0
DWIDTH 25 0
BBX 22 26 3 0
BITMAP
00000C
00000C
00000C
00001C
E000F8
E000F0
E000E0
E000E0
E000E0
E000E0
E000E0
E000E0
E000E0
E000E0
E000E0
E000E0
E000E0
E000E0
E001E0
E001C0
F001C0
7003C0
780780
3FFF00
1FFE00
07F800
ENDCHAR
STARTCHAR uhorn
ENCODING 432
SWIDTH 654 0
DWIDTH 21 0
BBX 19 21 2 0
BITMAP
0000C0
0000E0
0000E0
0000E0
E007C0
E00780
E00700
E00700
E00700
E00700
E00700
E00700
E00700
E00700
E00700
F00F00
700F00
781F00
7FF700
3FE700
0FC700
ENDCHAR
STARTCHAR uni01C4
ENCODING 452
SWIDTH 1445 0
DWIDTH 46 0
BBX 42 30 3 0
BITMAP
0000001C3800
0000000E7000
00000007F000
00000007E000
00000003C000
000000000000
000000000000
000000000000
FFF800FFFFC0
FFFE00FFFFC0
FFFF80FFFF80
E007C0000780
E001E0000F00
E000E0001E00
E000F0003C00
E00070003800
E00078007800
E0003800F000
E0003801E000
E0003803C000
E00038038000
E00078070000
E000700F0000
E000701E0000
E000E03C0000
E001E0780000
E007C0700000
FFFF80FFFFC0
FFFE01FFFFC0
FFF801FFFFC0
ENDCHAR
STARTCHAR uni01C5
ENCODING 453
SWIDTH 1314 0
DWIDTH 42 0
BBX 38 25 3 0
BITMAP
0000003870
0000003CE0
0000001DC0
FFF8000F80
FFFE000780
FFFF800000
E007C00000
E001E00000
E000E0FFFC
E000F0FFFC
E00070FFF8
E000780070
E0003800F0
E0003801E0
E0003801C0
E000380380
E000780700
E000700E00
E000701E00
E000E03C00
E001E03800
E007C07000
FFFF80FFFC
FFFE00FFFC
FFF800FFFC
ENDCHAR
STARTCHAR uni01C6
ENCODING 454
SWIDTH 1211 0
DWIDTH 39 0
BBX 36 25 1 0
BITMAP
000000E1C0
0001C073C0
0001C03B80
0001C01F00
0001C01E00
0001C00000
0001C00000
0001C00000
07E1C1FFF0
1FF9C1FFF0
3FFDC1FFF0
3C0FC000E0
7807C001C0
7003C00380
F003C00780
E001C00F00
E001C00E00
E001C01C00
F003C03800
7003C07000
7807C0F000
3C0FC1E000
3FFDC1FFF0
1FF9C3FFF0
07E1C3FFF0
ENDCHAR
STARTCHAR uni01C7
ENCODING 455
SWIDTH 1015 0
DWIDTH 32 0
BBX 27 22 3 0
BITMAP
E000FFE0
E000FFE0
E000FFE0
E00000E0
E00000E0
E00000E0
E00000E0
E00000E0
E00000E0
E00000E0
E00000E0
E00000E0
E00000E0
E00000E0
E00000E0
E00000E0
E00000E0
E00101C0
E00381C0
FFFBFFC0
FFF9FF80
FFF87E00
ENDCHAR
STARTCHAR uni01C8
ENCODING 456
SWIDTH 787 0
DWIDTH 25 0
BBX 20 30 3 -6
BITMAP
000060
0000F0
E000F0
E00060
E00000
E00000
E00000
E00070
E00070
E00070
E00070
E00070
E00070
E00070
E00070
E00070
E00070
E00070
E00070
E00070
E00070
FFF870
FFF870
FFF870
000070
0000F0
0000E0
000FE0
000FC0
000F80
ENDCHAR
STARTCHAR uni01C9
ENCODING 457
SWIDTH 548 0
DWIDTH 18 0
BBX 12 30 3 -6
BITMAP
E070
E070
E070
E070
E000
E000
E000
E070
E070
E070
E070
E070
E070
E070
E070
E070
E070
E070
E070
E070
E070
E070
E070
E070
0070
0070
00F0
07E0
07E0
0F80
ENDCHAR
STARTCHAR uni01CA
ENCODING 458
SWIDTH 1284 0
DWIDTH 41 0
BBX 35 22 3 0
BITMAP
F000E0FFE0
F000E0FFE0
F800E0FFE0
FC00E000E0
FE00E000E0
FE00E000E0
EF00E000E0
E780E000E0
E3C0E000E0
E1C0E000E0
E1E0E000E0
E0F0E000E0
E078E000E0
E038E000E0
E03CE000E0
E01EE000E0
E00FE000E0
E007E100E0
E007E1C1E0
E003E3FFC0
E001E0FF80
E000E03F00
ENDCHAR
STARTCHAR uni01CB
ENCODING 459
SWIDTH 1056 0
DWIDTH 34 0
BBX 29 30 3 -6
BITMAP
00000070
00000078
F000E078
F000E070
F800E000
FC00E000
FE00E000
FE00E070
EF00E070
E780E070
E3C0E070
E1C0E070
E1E0E070
E0F0E070
E078E070
E038E070
E03CE070
E01EE070
E00FE070
E007E070
E007E070
E003E070
E001E070
E000E070
00000070
00000070
00000070
000007F0
000007E0
000007C0
ENDCHAR
STARTCHAR uni01CC
ENCODING 460
SWIDTH 921 0
DWIDTH 29 0
BBX 24 30 3 -6
BITMAP
000007
000007
000007
000007
000000
000000
000000
E3F007
EFFC07
FFFE07
F81E07
F00E07
E00F07
E00707
E00707
E00707
E00707
E00707
E00707
E00707
E00707
E00707
E00707
E00707
000007
000007
00000F
00007E
0000FE
0000F8
ENDCHAR
STARTCHAR Gcaron
ENCODING 486
SWIDTH 751 0
DWIDTH 24 0
BBX 21 30 1 0
BITMAP
038700
038E00
01DC00
00F800
007800
000000
000000
001800
01FF80
07FFE0
0FC1F0
1E0070
3C0020
780000
700000
700000
F00000
E00000
E00FF8
E00FF8
E00FF8
700038
700038
780038
380038
3E0038
1F00F8
0FFFF0
03FFE0
00FF00
ENDCHAR
STARTCHAR gcaron
ENCODING 487
SWIDTH 638 0
DWIDTH 20 0
BBX 17 31 1 -6
BITMAP
0E1C00
073800
077000
03E000
01E000
000000
000000
000000
07E380
1FF380
3FFB80
780F80
700780
700780
E00380
E00380
E00380
E00380
700780
700780
780F80
3FFB80
1FF380
07E380
000380
000780
200700
300F00
7FFE00
1FFC00
07F000
ENDCHAR
STARTCHAR uni01EA
ENCODING 490
SWIDTH 812 0
DWIDTH 26 0
BBX 24 29 1 -7
BITMAP
00FF00
03FFC0
0FFFF0
1F00F8
3E007C
38001C
78001E
70000E
F0000E
E0000F
E00007
E00007
E0000F
F0000E
70000E
78001E
38001C
3E007C
1F00F8
0FFFF0
03FFC0
00FF80
000700
000700
000600
000E00
000FC0
0007C0
0003C0
ENDCHAR
STARTCHAR uni01EB
ENCODING 491
SWIDTH 621 0
DWIDTH 20 0
BBX 18 24 1 -7
BITMAP
03F000
0FFC00
1FFE00
3C0F00
780780
700380
F00380
E001C0
E001C0
E001C0
F00380
700380
780780
3C0F00
1FFE00
0FFC00
03F800
003000
007000
006000
00E000
007C00
007C00
003C00
ENDCHAR
STARTCHAR Aringacute
ENCODING 506
SWIDTH 726 0
DWIDTH 23 0
BBX 23 35 0 0
BITMAP
000E00
001F00
007C00
001000
003800
007C00
00C600
00C600
00C600
007C00
003800
000000
000000
003800
007C00
007C00
00EE00
00EE00
00E700
01C700
01C780
038380
0383C0
0701C0
0701C0
0F00E0
0E00E0
1FFFF0
1FFFF0
1FFFF8
380038
38003C
70001C
70001E
F0000E
ENDCHAR
STARTCHAR aringacute
ENCODING 507
SWIDTH 581 0
DWIDTH 19 0
BBX 15 30 1 0
BITMAP
0070
00F8
03C0
0080
01C0
03E0
0660
0430
0620
07E0
03C0
0000
0000
07F0
1FF8
7FFC
301E
000E
000E
000E
0FFE
3FFE
7FFE
700E
E00E
E00E
703E
7FFE
3FEE
0F8E
ENDCHAR
STARTCHAR AEacute
ENCODING 508
SWIDTH 1037 0
DWIDTH 33 0
BBX 31 29 0 0
BITMAP
00000400
00000F80
00000E00
00001C00
00002800
00000000
00000000
0007FFFE
000FFFFE
000FFFFE
001DE000
001DE000
0039E000
0071E000
0071E000
00E1E000
00E1FFFC
01C1FFFC
0381FFFC
0381E000
07FFE000
07FFE000
0FFFE000
1C01E000
1C01E000
3801E000
3801FFFE
7001FFFE
F001FFFE
ENDCHAR
STARTCHAR aeacute
ENCODING 509
SWIDTH 978 0
DWIDTH 31 0
BBX 29 24 1 0
BITMAP
0000C000
0001E000
0003C000
00078000
00000000
00000000
00000000
07F03F00
1FF8FFC0
7FFDFFE0
301F80F0
000F0070
000F0038
000E0038
0FFFFFF8
3FFFFFF8
780E0000
700E0000
E00F0000
E00F8020
703BC060
7FF1FFF0
3FE0FFC0
0FC03F00
ENDCHAR
STARTCHAR Oslashacute
ENCODING 510
SWIDTH 812 0
DWIDTH 26 0
BBX 24 30 1 -1
BITMAP
000600
000780
000F00
001C00
002800
00001C
000018
00FF38
03FFF0
0FFFF0
1F00F8
3E01FC
3803BC
78031E
70070E
F00E0E
E00C0F
E01C07
E03807
E0300F
F0700E
70E00E
78C01E
39C01C
3F8078
1F00F8
0FFFE0
0FFFC0
1CFE00
380000
ENDCHAR
STARTCHAR oslashacute
ENCODING 511
SWIDTH 621 0
DWIDTH 20 0
BBX 18 27 1 -3
BITMAP
003000
007C00
007000
01E000
0001C0
000180
000300
03F700
0FFE00
3FFE00
3C0F00
701F80
703380
E07380
E061C0
E0C1C0
E181C0
E38180
730380
760780
3C0F00
1FFE00
1FFC00
33F000
300000
600000
C00000
ENDCHAR
STARTCHAR uni0200
ENCODING 512
SWIDTH 726 0
DWIDTH 23 0
BBX 23 29 0 0
BITMAP
010800
07BC00
039C00
01CE00
00A500
000000
000000
003800
007C00
007C00
00EE00
00EE00
00E700
01C700
01C780
038380
0383C0
0701C0
0701C0
0F00E0
0E00E0
1FFFF0
1FFFF0
1FFFF8
380038
38003C
70001C
70001E
F0000E
ENDCHAR
STARTCHAR uni0201
ENCODING 513
SWIDTH 581 0
DWIDTH 19 0
BBX 15 24 1 0
BITMAP
18C0
3DC0
1CE0
0E70
0000
0000
0000
07F0
1FF8
7FFC
301E
000E
000E
000E
0FFE
3FFE
7FFE
700E
E00E
E00E
703E
7FFE
3FEE
0F8E
ENDCHAR
STARTCHAR uni0202
ENCODING 514
SWIDTH 726 0
DWIDTH 23 0
BBX 23 30 0 0
BITMAP
001000
007C00
00FE00
00C700
01C300
000000
000000
000000
003800
007C00
007C00
00EE00
00EE00
00E700
01C700
01C780
038380
0383C0
0701C0
0701C0
0F00E0
0E00E0
1FFFF0
1FFFF0
1FFFF8
380038
38003C
70001C
70001E
F0000E
ENDCHAR
STARTCHAR uni0203
ENCODING 515
SWIDTH 581 0
DWIDTH 19 0
BBX 15 25 1 0
BITMAP
0080
07E0
07F0
0E30
0C30
0000
0000
0000
07F0
1FF8
7FFC
301E
000E
000E
000E
0FFE
3FFE
7FFE
700E
E00E
E00E
703E
7FFE
3FEE
0F8E
ENDCHAR
STARTCHAR uni0204
ENCODING 516
SWIDTH 653 0
DWIDTH 21 0
BBX 16 29 3 0
BITMAP
18C0
39C0
1CE0
0E70
0420
0000
0000
FFFF
FFFF
FFFF
E000
E000
E000
E000
E000
E000
FFFC
FFFC
FFFC
E000
E000
E000
E000
E000
E000
E000
FFFF
FFFF
FFFF
ENDCHAR
STARTCHAR uni0205
ENCODING 517
SWIDTH 588 0
DWIDTH 19 0
BBX 17 24 1 0
BITMAP
18C000
3DE000
0E6000
0E7000
010000
000000
000000
03F000
0FFC00
3FFE00
380E00
700700
700300
E00300
FFFF80
FFFF80
FFFF80
E00000
700000
780200
3C0600
3FFF00
0FFC00
03F000
ENDCHAR
STARTCHAR uni0206
ENCODING 518
SWIDTH 653 0
DWIDTH 21 0
BBX 16 30 3 0
BITMAP
0080
07E0
07F0
0E30
0C38
0000
0000
0000
FFFF
FFFF
FFFF
E000
E000
E000
E000
E000
E000
FFFC
FFFC
FFFC
E000
E000
E000
E000
E000
E000
E000
FFFF
FFFF
FFFF
ENDCHAR
STARTCHAR uni0207
ENCODING 519
SWIDTH 588 0
DWIDTH 19 0
BBX 17 25 1 0
BITMAP
008000
03E000
07F000
0E3800
0C1800
000000
000000
000000
03F000
0FFC00
3FFE00
380E00
700700
700300
E00300
FFFF80
FFFF80
FFFF80
E00000
700000
780200
3C0600
3FFF00
0FFC00
03F000
ENDCHAR
STARTCHAR uni0208
ENCODING 520
SWIDTH 296 0
DWIDTH 9 0
BBX 11 29 -2 0
BITMAP
2100
F780
39C0
39C0
14A0
0000
0000
0700
0700
0700
0700
0700
0700
0700
0700
0700
0700
0700
0700
0700
0700
0700
0700
0700
0700
0700
0700
0700
0700
ENDCHAR
STARTCHAR uni0209
ENCODING 521
SWIDTH 274 0
DWIDTH 9 0
BBX 10 24 -2 0
BITMAP
6300
F780
7380
39C0
0000
0000
0000
0700
0700
0700
0700
0700
0700
0700
0700
0700
0700
0700
0700
0700
0700
0700
0700
0700
ENDCHAR
STARTCHAR uni020A
ENCODING 522
SWIDTH 296 0
DWIDTH 9 0
BBX 9 30 0 0
BITMAP
0800
3F00
7F00
6380
E180
0000
0000
0000
1C00
1C00
1C00
1C00
1C00
1C00
1C00
1C00
1C00
1C00
1C00
1C00
1C00
1C00
1C00
1C00
1C00
1C00
1C00
1C00
1C00
1C00
ENDCHAR
STARTCHAR uni020B
ENCODING 523
SWIDTH 274 0
DWIDTH 9 0
BBX 8 24 0 0
BITMAP
1C
7E
7F
63
E3
00
00
1C
1C
1C
1C
1C
1C
1C
1C
1C
1C
1C
1C
1C
1C
1C
1C
1C
ENDCHAR
STARTCHAR uni020C
ENCODING 524
SWIDTH 812 0
DWIDTH 26 0
BBX 24 29 1 0
BITMAP
018C00
039C00
01CE00
00E600
004300
000000
000000
00FF00
03FFC0
0FFFF0
1F00F8
3E007C
38001C
78001E
70000E
F0000E
E0000F
E00007
E00007
E0000F
F0000E
70000E
78001E
38001C
3E007C
1F00F8
0FFFE0
03FFC0
00FE00
ENDCHAR
STARTCHAR uni020D
ENCODING 525
SWIDTH 621 0
DWIDTH 20 0
BBX 18 24 1 0
BITMAP
0C6000
1CE000
0E7000
073800
000000
000000
000000
03F000
0FFC00
1FFE00
3C0F00
780780
700380
F00380
E001C0
E001C0
E001C0
F00380
700380
780780
3C0F00
1FFE00
0FFC00
03F000
ENDCHAR
STARTCHAR uni020E
ENCODING 526
SWIDTH 812 0
DWIDTH 26 0
BBX 24 30 1 0
BITMAP
001000
007E00
00FF00
00E700
00C300
000000
000000
000000
00FF00
03FFC0
0FFFF0
1F00F8
3E007C
38001C
78001E
70000E
F0000E
E0000F
E00007
E00007
E0000F
F0000E
70000E
78001E
38001C
3E007C
1F00F8
0FFFE0
03FFC0
00FE00
ENDCHAR
STARTCHAR uni020F
ENCODING 527
SWIDTH 621 0
DWIDTH 20 0
BBX 18 25 1 0
BITMAP
008000
03F000
07F800
073800
061800
000000
000000
000000
03F000
0FFC00
1FFE00
3C0F00
780780
700380
F00380
E001C0
E001C0
E001C0
F00380
700380
780780
3C0F00
1FFE00
0FFC00
03F000
ENDCHAR
STARTCHAR uni0210
ENCODING 528
SWIDTH 723 0
DWIDTH 23 0
BBX 18 29 3 0
BITMAP
18C000
39C000
1CE000
0E6000
043000
000000
000000
FFF800
FFFE00
FFFF00
E00780
E00380
E001C0
E001C0
E001C0
E001C0
E001C0
E00380
E00780
FFFF00
FFFE00
FFF800
E01C00
E01C00
E00E00
E00F00
E00700
E00380
E003C0
ENDCHAR
STARTCHAR uni0211
ENCODING 529
SWIDTH 382 0
DWIDTH 12 0
BBX 11 24 1 0
BITMAP
6300
F780
3380
39C0
0000
0000
0000
38E0
3BE0
3FE0
3E00
3C00
3C00
3800
3800
3800
3800
3800
3800
3800
3800
3800
3800
3800
ENDCHAR
STARTCHAR uni0212
ENCODING 530
SWIDTH 723 0
DWIDTH 23 0
BBX 18 30 3 0
BITMAP
010000
07E000
0FF000
0E7000
0C3000
000000
000000
000000
FFF800
FFFE00
FFFF00
E00780
E00380
E001C0
E001C0
E001C0
E001C0
E001C0
E00380
E00780
FFFF00
FFFE00
FFF800
E01C00
E01C00
E00E00
E00F00
E00700
E00380
E003C0
ENDCHAR
STARTCHAR uni0213
ENCODING 531
SWIDTH 382 0
DWIDTH 12 0
BBX 9 25 3 0
BITMAP
0800
3E00
7F00
E300
C180
0000
0000
0000
E380
EF80
FF80
F800
F000
F000
E000
E000
E000
E000
E000
E000
E000
E000
E000
E000
E000
ENDCHAR
STARTCHAR uni0214
ENCODING 532
SWIDTH 762 0
DWIDTH 24 0
BBX 19 29 3 0
BITMAP
0C6000
1CE000
0E7000
073800
021000
000000
000000
E000E0
E000E0
E000E0
E000E0
E000E0
E000E0
E000E0
E000E0
E000E0
E000E0
E000E0
E000E0
E000E0
E000E0
E001E0
E001C0
F001C0
7003C0
780780
3FFF00
1FFE00
07F800
ENDCHAR
STARTCHAR uni0215
ENCODING 533
SWIDTH 649 0
DWIDTH 21 0
BBX 16 24 2 0
BITMAP
18C0
3DE0
1CE0
0E70
0000
0000
0000
E007
E007
E007
E007
E007
E007
E007
E007
E007
E007
E007
F00F
700F
781F
7FF7
3FE7
0FC7
ENDCHAR
STARTCHAR uni0216
ENCODING 534
SWIDTH 762 0
DWIDTH 24 0
BBX 19 30 3 0
BITMAP
004000
03F000
03F800
071800
061800
000000
000000
000000
E000E0
E000E0
E000E0
E000E0
E000E0
E000E0
E000E0
E000E0
E000E0
E000E0
E000E0
E000E0
E000E0
E000E0
E001E0
E001C0
F001C0
7003C0
780780
3FFF00
1FFE00
07F800
ENDCHAR
STARTCHAR uni0217
ENCODING 535
SWIDTH 649 0
DWIDTH 21 0
BBX 16 25 2 0
BITMAP
0080
03E0
07F0
0E30
0C38
0000
0000
0000
E007
E007
E007
E007
E007
E007
E007
E007
E007
E007
E007
F00F
700F
781F
7FF7
3FE7
0FC7
ENDCHAR
STARTCHAR Scommaaccent
ENCODING 536
SWIDTH 616 0
DWIDTH 20 0
BBX 17 29 1 -7
BITMAP
03F800
0FFF80
3FFF00
3C0700
780100
780000
780000
7C0000
3E0000
1FC000
0FF800
03FE00
007F00
000F80
000780
000780
400380
600780
F80F00
7FFF00
3FFC00
07F000
000000
000000
01C000
01C000
01C000
018000
038000
ENDCHAR
STARTCHAR scommaaccent
ENCODING 537
SWIDTH 460 0
DWIDTH 15 0
BBX 13 24 1 -7
BITMAP
0FC0
3FF0
7FF0
7020
6000
7000
7800
3F00
1FE0
03F0
0070
0038
8038
E078
FFF0
7FE0
1FC0
0000
0000
0700
0600
0E00
0E00
0C00
ENDCHAR
STARTCHAR uni021A
ENCODING 538
SWIDTH 567 0
DWIDTH 18 0
BBX 18 29 0 -7
BITMAP
FFFFC0
FFFFC0
FFFFC0
00E000
00E000
00E000
00E000
00E000
00E000
00E000
00E000
00E000
00E000
00E000
00E000
00E000
00E000
00E000
00E000
00E000
00E000
00E000
000000
000000
00E000
01C000
01C000
018000
018000
ENDCHAR
STARTCHAR uni021B
ENCODING 539
SWIDTH 397 0
DWIDTH 13 0
BBX 11 28 1 -7
BITMAP
1C00
1C00
1C00
1C00
FFE0
FFE0
FFE0
1C00
1C00
1C00
1C00
1C00
1C00
1C00
1C00
1C00
1C00
1C20
1FE0
1FE0
07C0
0000
0000
0300
0700
0700
0600
0600
ENDCHAR
STARTCHAR uni022A
ENCODING 554
SWIDTH 812 0
DWIDTH 26 0
BBX 24 32 1 0
BITMAP
00FF00
00FF00
00FF00
000000
000000
00E700
00E700
00E700
000000
000000
00FF00
03FFC0
0FFFF0
1F00F8
3E007C
38001C
78001E
70000E
F0000E
E0000F
E00007
E00007
E0000F
F0000E
70000E
78001E
38001C
3E007C
1F00F8
0FFFE0
03FFC0
00FE00
ENDCHAR
STARTCHAR uni022B
ENCODING 555
SWIDTH 621 0
DWIDTH 20 0
BBX 18 27 1 0
BITMAP
07F800
07F800
07F800
000000
000000
073800
073800
073800
000000
000000
03F000
0FFC00
1FFE00
3C0F00
780780
700380
F00380
E001C0
E001C0
E001C0
F00380
700380
780780
3C0F00
1FFE00
0FFC00
03F000
ENDCHAR
STARTCHAR uni022C
ENCODING 556
SWIDTH 812 0
DWIDTH 26 0
BBX 24 32 1 0
BITMAP
00FF00
00FF00
00FF00
000000
000000
00E180
00F980
01FF00
018F00
000000
00FF00
03FFC0
0FFFF0
1F00F8
3E007C
38001C
78001E
70000E
F0000E
E0000F
E00007
E00007
E0000F
F0000E
70000E
78001E
38001C
3E007C
1F00F8
0FFFE0
03FFC0
00FE00
ENDCHAR
STARTCHAR uni022D
ENCODING 557
SWIDTH 621 0
DWIDTH 20 0
BBX 18 27 1 0
BITMAP
07F800
07F800
07F800
000000
000000
070C00
0FCC00
0FF800
0C7800
000000
03F000
0FFC00
1FFE00
3C0F00
780780
700380
F00380
E001C0
E001C0
E001C0
F00380
700380
780780
3C0F00
1FFE00
0FFC00
03F000
ENDCHAR
STARTCHAR uni0230
ENCODING 560
SWIDTH 812 0
DWIDTH 26 0
BBX 24 32 1 0
BITMAP
003FC0
003FC0
003FC0
000000
000000
000600
000E00
000F00
000600
000000
00FF00
03FFC0
0FFFF0
1F00F8
3E007C
38001C
78001E
70000E
F0000E
E0000F
E00007
E00007
E0000F
F0000E
70000E
78001E
38001C
3E007C
1F00F8
0FFFE0
03FFC0
00FE00
ENDCHAR
STARTCHAR uni0231
ENCODING 561
SWIDTH 621 0
DWIDTH 20 0
BBX 18 27 1 0
BITMAP
07F800
07F800
07F800
000000
000000
00C000
01E000
01E000
00C000
000000
03F000
0FFC00
1FFE00
3C0F00
780780
700380
F00380
E001C0
E001C0
E001C0
F00380
700380
780780
3C0F00
1FFE00
0FFC00
03F000
ENDCHAR
STARTCHAR uni0232
ENCODING 562
SWIDTH 630 0
DWIDTH 20 0
BBX 20 28 0 0
BITMAP
07FE00
07FE00
07FE00
000000
000000
000000
F00070
7000E0
3801E0
3801C0
1C0380
1E0380
0E0700
0F0F00
070E00
039E00
03DC00
01F800
01F800
00F000
00F000
007000
007000
007000
007000
007000
007000
007000
ENDCHAR
STARTCHAR uni0233
ENCODING 563
SWIDTH 514 0
DWIDTH 16 0
BBX 17 30 0 -6
BITMAP
0FF800
0FF800
0FF800
000000
000000
000000
000000
E00780
700700
700700
700E00
380E00
381C00
1C1C00
1C1C00
0C3800
0E3800
0E3000
077000
077000
03E000
03E000
03C000
01C000
018000
038000
478000
7F0000
FE0000
7C0000
ENDCHAR
STARTCHAR uni0237
ENCODING 567
SWIDTH 263 0
DWIDTH 8 0
BBX 8 23 -2 -6
BITMAP
07
07
07
07
07
07
07
07
07
07
07
07
07
07
07
07
07
07
07
0F
7E
FE
F8
ENDCHAR
STARTCHAR uni0259
ENCODING 601
SWIDTH 588 0
DWIDTH 19 0
BBX 17 17 1 0
BITMAP
07E000
1FF800
7FFC00
301E00
000F00
000700
000700
FFFF00
FFFF80
FFFF80
E00700
600700
700F00
781E00
3FFC00
1FF800
07E000
ENDCHAR
STARTCHAR uni02BB
ENCODING 699
SWIDTH 189 0
DWIDTH 6 0
BBX 2 6 2 16
BITMAP
C0
C0
C0
C0
C0
C0
ENDCHAR
STARTCHAR uni02BC
ENCODING 700
SWIDTH 138 0
DWIDTH 4 0
BBX 2 8 1 14
BITMAP
C0
C0
C0
C0
C0
C0
C0
C0
ENDCHAR
STARTCHAR uni02BE
ENCODING 702
SWIDTH 249 0
DWIDTH 8 0
BBX 4 7 2 18
BITMAP
C0
60
30
30
30
20
C0
ENDCHAR
STARTCHAR uni02BF
ENCODING 703
SWIDTH 248 0
DWIDTH 8 0
BBX 4 7 2 18
BITMAP
30
60
C0
80
C0
40
30
ENDCHAR
STARTCHAR circumflex
ENCODING 710
SWIDTH 332 0
DWIDTH 11 0
BBX 10 5 0 20
BITMAP
0E00
1F00
3F00
7B80
F1C0
ENDCHAR
STARTCHAR caron
ENCODING 711
SWIDTH 332 0
DWIDTH 11 0
BBX 9 5 0 20
BITMAP
E380
E380
7700
3E00
1C00
ENDCHAR
STARTCHAR uni02C8
ENCODING 712
SWIDTH 105 0
DWIDTH 3 0
BBX 2 6 1 17
BITMAP
C0
C0
C0
C0
C0
C0
ENDCHAR
STARTCHAR uni02C9
ENCODING 713
SWIDTH 350 0
DWIDTH 11 0
BBX 9 3 1 21
BITMAP
FF80
FF80
FF80
ENDCHAR
STARTCHAR uni02CA
ENCODING 714
SWIDTH 350 0
DWIDTH 11 0
BBX 6 4 3 20
BITMAP
10
3C
78
E0
ENDCHAR
STARTCHAR uni02CB
ENCODING 715
SWIDTH 350 0
DWIDTH 11 0
BBX 6 4 2 20
BITMAP
60
F0
78
3C
ENDCHAR
STARTCHAR uni02CC
ENCODING 716
SWIDTH 104 0
DWIDTH 3 0
BBX 2 6 1 -7
BITMAP
C0
C0
C0
C0
C0
C0
ENDCHAR
STARTCHAR breve
ENCODING 728
SWIDTH 328 0
DWIDTH 11 0
BBX 9 5 1 20
BITMAP
C380
C300
FF00
7E00
3C00
ENDCHAR
STARTCHAR dotaccent
ENCODING 729
SWIDTH 293 0
DWIDTH 9 0
BBX 4 4 3 20
BITMAP
E0
E0
F0
E0
ENDCHAR
STARTCHAR ring
ENCODING 730
SWIDTH 434 0
DWIDTH 14 0
BBX 7 7 2 19
BITMAP
38
7C
C6
C6
C6
7C
38
ENDCHAR
STARTCHAR ogonek
ENCODING 731
SWIDTH 266 0
DWIDTH 9 0
BBX 5 8 1 -7
BITMAP
18
78
60
E0
C0
F8
F8
78
ENDCHAR
STARTCHAR tilde
ENCODING 732
SWIDTH 371 0
DWIDTH 12 0
BBX 10 4 1 19
BITMAP
78C0
FFC0
FF80
C780
ENDCHAR
STARTCHAR hungarumlaut
ENCODING 733
SWIDTH 464 0
DWIDTH 15 0
BBX 11 4 2 20
BITMAP
18C0
3DE0
7380
E700
ENDCHAR
STARTCHAR gravecomb
ENCODING 768
SWIDTH 0 0
DWIDTH 0 0
BBX 6 4 -8 20
BITMAP
60
F0
78
3C
ENDCHAR
STARTCHAR acutecomb
ENCODING 769
SWIDTH 0 0
DWIDTH 0 0
BBX 6 4 -7 20
BITMAP
18
3C
78
F0
ENDCHAR
STARTCHAR uni0302
ENCODING 770
SWIDTH 0 0
DWIDTH 0 0
BBX 10 5 -10 20
BITMAP
1C00
3E00
3F00
7780
E3C0
ENDCHAR
STARTCHAR tildecomb
ENCODING 771
SWIDTH 0 0
DWIDTH 0 0
BBX 10 4 -11 19
BITMAP
78C0
7FC0
FFC0
C780
ENDCHAR
STARTCHAR uni0304
ENCODING 772
SWIDTH 0 0
DWIDTH 0 0
BBX 9 3 -9 21
BITMAP
FF80
FF80
FF80
ENDCHAR
STARTCHAR uni0306
ENCODING 774
SWIDTH 0 0
DWIDTH 0 0
BBX 9 5 -10 20
BITMAP
E180
6180
7F80
7F00
1E00
ENDCHAR
STARTCHAR uni0307
ENCODING 775
SWIDTH 0 0
DWIDTH 0 0
BBX 3 4 -5 20
BITMAP
E0
E0
E0
E0
ENDCHAR
STARTCHAR uni0308
ENCODING 776
SWIDTH 0 0
DWIDTH 0 0
BBX 8 3 -10 20
BITMAP
C7
E7
C7
ENDCHAR
STARTCHAR hookabovecomb
ENCODING 777
SWIDTH 0 0
DWIDTH 0 0
BBX 6 7 -7 19
BITMAP
30
FC
7C
1C
1C
18
38
ENDCHAR
STARTCHAR uni030A
ENCODING 778
SWIDTH 0 0
DWIDTH 0 0
BBX 7 7 -9 19
BITMAP
38
7C
C6
C6
C6
7C
38
ENDCHAR
STARTCHAR uni030B
ENCODING 779
SWIDTH 0 0
DWIDTH 0 0
BBX 10 4 -12 20
BITMAP
3D80
39C0
7380
E700
ENDCHAR
STARTCHAR uni030C
ENCODING 780
SWIDTH 0 0
DWIDTH 0 0
BBX 9 5 -10 20
BITMAP
E380
E380
7700
3E00
1C00
ENDCHAR
STARTCHAR uni030F
ENCODING 783
SWIDTH 0 0
DWIDTH 0 0
BBX 10 4 -12 20
BITMAP
6300
F780
7380
39C0
ENDCHAR
STARTCHAR uni0311
ENCODING 785
SWIDTH 0 0
DWIDTH 0 0
BBX 9 5 -10 20
BITMAP
0800
3F00
7F00
6380
E180
ENDCHAR
STARTCHAR uni0312
ENCODING 786
SWIDTH 0 0
DWIDTH 0 0
BBX 4 5 -5 20
BITMAP
70
60
60
E0
E0
ENDCHAR
STARTCHAR uni031B
ENCODING 795
SWIDTH 0 0
DWIDTH 0 0
BBX 5 7 -6 15
BITMAP
10
38
38
38
F8
F0
E0
ENDCHAR
STARTCHAR dotbelowcomb
ENCODING 803
SWIDTH 0 0
DWIDTH 0 0
BBX 3 4 -5 -6
BITMAP
E0
E0
E0
E0
ENDCHAR
STARTCHAR uni0324
ENCODING 804
SWIDTH 0 0
DWIDTH 0 0
BBX 9 4 -10 -6
BITMAP
6300
E780
E780
E300
ENDCHAR
STARTCHAR uni0326
ENCODING 806
SWIDTH 0 0
DWIDTH 0 0
BBX 4 5 -5 -7
BITMAP
70
E0
E0
C0
C0
ENDCHAR
STARTCHAR uni0327
ENCODING 807
SWIDTH 0 0
DWIDTH 0 0
BBX 7 7 -8 -7
BITMAP
18
30
3C
0E
7E
FC
78
ENDCHAR
STARTCHAR uni0328
ENCODING 808
SWIDTH 0 0
DWIDTH 0 0
BBX 6 8 -7 -7
BITMAP
1C
38
70
E0
E0
F8
FC
7C
ENDCHAR
STARTCHAR uni032E
ENCODING 814
SWIDTH 0 0
DWIDTH 0 0
BBX 9 5 -10 -6
BITMAP
E180
6180
7F80
7F00
1E00
ENDCHAR
STARTCHAR uni0331
ENCODING 817
SWIDTH 0 0
DWIDTH 0 0
BBX 9 3 -10 -5
BITMAP
FF80
FF80
FF80
ENDCHAR
STARTCHAR uni0335
ENCODING 821
SWIDTH 0 0
DWIDTH 0 0
BBX 11 2 -11 13
BITMAP
FFE0
FFE0
ENDCHAR
STARTCHAR uni0336
ENCODING 822
SWIDTH 0 0
DWIDTH 0 0
BBX 13 2 -16 13
BITMAP
FFF8
FFF8
ENDCHAR
STARTCHAR uni0337
ENCODING 823
SWIDTH 0 0
DWIDTH 0 0
BBX 8 15 -9 3
BITMAP
07
07
06
0E
0E
0C
1C
1C
18
38
38
30
70
70
E0
ENDCHAR
STARTCHAR uni0338
ENCODING 824
SWIDTH 0 0
DWIDTH 0 0
BBX 11 24 -10 0
BITMAP
00E0
00E0
00C0
01C0
01C0
0180
0380
0380
0300
0700
0700
0600
0E00
0E00
0C00
1C00
1C00
1800
3800
3800
3000
7000
7000
E000
ENDCHAR
STARTCHAR uni0394
ENCODING 916
SWIDTH 726 0
DWIDTH 23 0
BBX 23 22 0 0
BITMAP
003C00
007C00
007E00
00EE00
00EE00
01C700
01C700
01C380
038380
0383C0
0701C0
0701E0
0E00E0
0E00E0
1E0070
1C0070
1C0078
380038
38003C
70001C
7FFFFE
FFFFFE
ENDCHAR
STARTCHAR uni03A9
ENCODING 937
SWIDTH 892 0
DWIDTH 29 0
BBX 28 23 0 0
BITMAP
00020000
007FE000
01FFF800
03F07C00
07801E00
0F000F00
0E000780
1E000380
1C000380
1C0001C0
1C0001C0
1C0001C0
1C0001C0
1C0001C0
1C000180
0C000380
0E000300
07000700
07000E00
03C01C00
FFE03FF0
FFE03FF0
FFE03FF0
ENDCHAR
STARTCHAR uni03BC
ENCODING 956
SWIDTH 672 0
DWIDTH 22 0
BBX 16 23 3 -6
BITMAP
E007
E007
E007
E007
E007
E007
E007
E007
E007
E00F
E00F
E00F
F01F
F83F
FFF7
FFE7
FFC7
E000
E000
E000
E000
E000
E000
ENDCHAR
STARTCHAR pi
ENCODING 960
SWIDTH 723 0
DWIDTH 23 0
BBX 23 17 0 0
BITMAP
1FFFFE
7FFFFE
F9C1C0
E1C1C0
C1C1C0
C1C1C0
C1C1C0
E181C0
4181C0
0181C0
0181C0
0381C0
0381C0
0381C0
0381C0
0301C0
0301C0
ENDCHAR
STARTCHAR uni1E08
ENCODING 7688
SWIDTH 699 0
DWIDTH 22 0
BBX 20 36 1 -8
BITMAP
000C00
001F00
003C00
007800
000000
000000
00FE00
03FFC0
07FFE0
1F00F0
1C0060
380020
780000
700000
700000
E00000
E00000
E00000
E00000
F00000
700000
700000
780000
3C0020
3E0070
1F81F0
0FFFE0
03FFC0
00FE00
003800
003000
003C00
000E00
007E00
00FC00
001000
ENDCHAR
STARTCHAR uni1E09
ENCODING 7689
SWIDTH 562 0
DWIDTH 18 0
BBX 16 31 1 -7
BITMAP
0070
00F8
01E0
03C0
0000
0000
0000
03F0
0FFC
3FFE
3C0E
7804
7000
E000
E000
E000
E000
E000
7000
7804
3C06
3FFF
1FFC
07F0
0180
0180
01E0
0070
03F0
07E0
03C0
ENDCHAR
STARTCHAR uni1E0C
ENCODING 7692
SWIDTH 783 0
DWIDTH 25 0
BBX 21 28 3 -6
BITMAP
FFF800
FFFE00
FFFF80
E007C0
E001E0
E000E0
E000F0
E00070
E00078
E00038
E00038
E00038
E00038
E00078
E00070
E00070
E000E0
E001E0
E007C0
FFFF80
FFFE00
FFF800
000000
000000
00E000
01E000
01E000
00E000
ENDCHAR
STARTCHAR uni1E0D
ENCODING 7693
SWIDTH 680 0
DWIDTH 22 0
BBX 18 30 1 -6
BITMAP
0001C0
0001C0
0001C0
0001C0
0001C0
0001C0
0001C0
07E1C0
1FF9C0
3FFDC0
3C0FC0
7807C0
7003C0
F003C0
E001C0
E001C0
E001C0
F003C0
7003C0
7807C0
3C0FC0
3FFDC0
1FF9C0
07E1C0
000000
000000
006000
00F000
00F000
006000
ENDCHAR
STARTCHAR uni1E0E
ENCODING 7694
SWIDTH 783 0
DWIDTH 25 0
BBX 21 27 3 -5
BITMAP
FFF800
FFFE00
FFFF80
E007C0
E001E0
E000E0
E000F0
E00070
E00078
E00038
E00038
E00038
E00038
E00078
E00070
E00070
E000E0
E001E0
E007C0
FFFF80
FFFE00
FFF800
000000
000000
07FC00
07FC00
07FC00
ENDCHAR
STARTCHAR uni1E0F
ENCODING 7695
SWIDTH 680 0
DWIDTH 22 0
BBX 18 29 1 -5
BITMAP
0001C0
0001C0
0001C0
0001C0
0001C0
0001C0
0001C0
07E1C0
1FF9C0
3FFDC0
3C0FC0
7807C0
7003C0
F003C0
E001C0
E001C0
E001C0
F003C0
7003C0
7807C0
3C0FC0
3FFDC0
1FF9C0
07E1C0
000000
000000
03FE00
03FE00
03FE00
ENDCHAR
STARTCHAR uni1E14
ENCODING 7700
SWIDTH 653 0
DWIDTH 21 0
BBX 16 32 3 0
BITMAP
0700
0F80
03E0
0080
0000
07F8
07F8
07F8
0000
0000
FFFF
FFFF
FFFF
E000
E000
E000
E000
E000
E000
FFFC
FFFC
FFFC
E000
E000
E000
E000
E000
E000
E000
FFFF
FFFF
FFFF
ENDCHAR
STARTCHAR uni1E15
ENCODING 7701
SWIDTH 588 0
DWIDTH 19 0
BBX 17 26 1 0
BITMAP
060000
0F8000
03C000
008000
0FF000
0FF000
0FF000
000000
000000
03F000
0FFC00
3FFE00
380E00
700700
700300
E00300
FFFF80
FFFF80
FFFF80
E00000
700000
780200
3C0600
3FFF00
0FFC00
03F000
ENDCHAR
STARTCHAR uni1E16
ENCODING 7702
SWIDTH 653 0
DWIDTH 21 0
BBX 16 32 3 0
BITMAP
0060
01F0
03C0
0100
0000
0FF0
0FF0
0FF0
0000
0000
FFFF
FFFF
FFFF
E000
E000
E000
E000
E000
E000
FFFC
FFFC
FFFC
E000
E000
E000
E000
E000
E000
E000
FFFF
FFFF
FFFF
ENDCHAR
STARTCHAR uni1E17
ENCODING 7703
SWIDTH 588 0
DWIDTH 19 0
BBX 17 26 1 0
BITMAP
007000
00F800
03E000
008000
07F800
07F800
07F800
000000
000000
03F000
0FFC00
3FFE00
380E00
700700
700300
E00300
FFFF80
FFFF80
FFFF80
E00000
700000
780200
3C0600
3FFF00
0FFC00
03F000
ENDCHAR
STARTCHAR uni1E1C
ENCODING 7708
SWIDTH 653 0
DWIDTH 21 0
BBX 16 36 3 -7
BITMAP
1C30
0C30
0FF0
07E0
03C0
0000
0000
FFFF
FFFF
FFFF
E000
E000
E000
E000
E000
E000
FFFC
FFFC
FFFC
E000
E000
E000
E000
E000
E000
E000
FFFF
FFFF
FFFF
0180
0180
01E0
0060
03F0
07E0
03C0
ENDCHAR
STARTCHAR uni1E1D
ENCODING 7709
SWIDTH 588 0
DWIDTH 19 0
BBX 17 32 1 -8
BITMAP
0C3800
0E3000
07F000
07E000
018000
000000
000000
03F000
0FFC00
1FFE00
3C0E00
780700
700700
E00300
E00380
FFFF80
FFFF80
E00000
700000
700000
780600
3E0F00
1FFE00
07F800
00C000
018000
01E000
007000
007000
03F000
07E000
018000
ENDCHAR
STARTCHAR uni1E20
ENCODING 7712
SWIDTH 751 0
DWIDTH 24 0
BBX 21 28 1 0
BITMAP
03FF00
03FF00
03FF00
000000
000000
001800
01FF80
07FFE0
0FC1F0
1E0070
3C0020
780000
700000
700000
F00000
E00000
E00FF8
E00FF8
E00FF8
700038
700038
780038
380038
3E0038
1F00F8
0FFFF0
03FFE0
00FF00
ENDCHAR
STARTCHAR uni1E21
ENCODING 7713
SWIDTH 638 0
DWIDTH 20 0
BBX 17 30 1 -6
BITMAP
0FF800
0FF800
0FF800
000000
000000
000000
000000
07E380
1FF380
3FFB80
780F80
700780
700780
E00380
E00380
E00380
E00380
700780
700780
780F80
3FFB80
1FF380
07E380
000380
000780
200700
300F00
7FFE00
1FFC00
07F000
ENDCHAR
STARTCHAR uni1E24
ENCODING 7716
SWIDTH 793 0
DWIDTH 25 0
BBX 19 28 3 -6
BITMAP
E000E0
E000E0
E000E0
E000E0
E000E0
E000E0
E000E0
E000E0
E000E0
FFFFE0
FFFFE0
FFFFE0
E000E0
E000E0
E000E0
E000E0
E000E0
E000E0
E000E0
E000E0
E000E0
E000E0
000000
000000
00E000
00E000
00F000
00E000
ENDCHAR
STARTCHAR uni1E25
ENCODING 7717
SWIDTH 665 0
DWIDTH 21 0
BBX 16 30 3 -6
BITMAP
E000
E000
E000
E000
E000
E000
E000
E3F0
E7FC
EFFE
F81E
F00F
F007
E007
E007
E007
E007
E007
E007
E007
E007
E007
E007
E007
0000
0000
0180
03C0
03C0
0180
ENDCHAR
STARTCHAR uni1E2A
ENCODING 7722
SWIDTH 793 0
DWIDTH 25 0
BBX 19 28 3 -6
BITMAP
E000E0
E000E0
E000E0
E000E0
E000E0
E000E0
E000E0
E000E0
E000E0
FFFFE0
FFFFE0
FFFFE0
E000E0
E000E0
E000E0
E000E0
E000E0
E000E0
E000E0
E000E0
E000E0
E000E0
000000
070C00
031C00
03FC00
03F800
00F000
ENDCHAR
STARTCHAR uni1E2B
ENCODING 7723
SWIDTH 665 0
DWIDTH 21 0
BBX 16 30 3 -6
BITMAP
E000
E000
E000
E000
E000
E000
E000
E3F0
E7FC
EFFE
F81E
F00F
F007
E007
E007
E007
E007
E007
E007
E007
E007
E007
E007
E007
0000
0C30
0C30
0FF0
07E0
03C0
ENDCHAR
STARTCHAR uni1E2E
ENCODING 7726
SWIDTH 296 0
DWIDTH 9 0
BBX 9 32 0 0
BITMAP
0700
0F80
3E00
0800
0000
6300
F380
6300
0000
0000
1C00
1C00
1C00
1C00
1C00
1C00
1C00
1C00
1C00
1C00
1C00
1C00
1C00
1C00
1C00
1C00
1C00
1C00
1C00
1C00
1C00
1C00
ENDCHAR
STARTCHAR uni1E2F
ENCODING 7727
SWIDTH 274 0
DWIDTH 9 0
BBX 9 27 0 0
BITMAP
0700
0F80
3E00
0800
0000
E300
E780
E300
0000
0000
1C00
1C00
1C00
1C00
1C00
1C00
1C00
1C00
1C00
1C00
1C00
1C00
1C00
1C00
1C00
1C00
1C00
ENDCHAR
STARTCHAR uni1E36
ENCODING 7734
SWIDTH 524 0
DWIDTH 17 0
BBX 13 28 3 -6
BITMAP
E000
E000
E000
E000
E000
E000
E000
E000
E000
E000
E000
E000
E000
E000
E000
E000
E000
E000
E000
FFF8
FFF8
FFF8
0000
0000
0700
0700
0780
0700
ENDCHAR
STARTCHAR uni1E37
ENCODING 7735
SWIDTH 285 0
DWIDTH 9 0
BBX 3 30 3 -6
BITMAP
E0
E0
E0
E0
E0
E0
E0
E0
E0
E0
E0
E0
E0
E0
E0
E0
E0
E0
E0
E0
E0
E0
E0
E0
00
00
E0
E0
E0
E0
ENDCHAR
STARTCHAR uni1E3A
ENCODING 7738
SWIDTH 524 0
DWIDTH 17 0
BBX 13 27 3 -5
BITMAP
E000
E000
E000
E000
E000
E000
E000
E000
E000
E000
E000
E000
E000
E000
E000
E000
E000
E000
E000
FFF8
FFF8
FFF8
0000
0000
3FE0
3FE0
3FE0
ENDCHAR
STARTCHAR uni1E3B
ENCODING 7739
SWIDTH 285 0
DWIDTH 9 0
BBX 9 29 0 -5
BITMAP
1C00
1C00
1C00
1C00
1C00
1C00
1C00
1C00
1C00
1C00
1C00
1C00
1C00
1C00
1C00
1C00
1C00
1C00
1C00
1C00
1C00
1C00
1C00
1C00
0000
0000
FF80
FF80
FF80
ENDCHAR
STARTCHAR uni1E42
ENCODING 7746
SWIDTH 939 0
DWIDTH 30 0
BBX 24 28 3 -6
BITMAP
F0000F
F8001F
F8001F
FC003F
FC003F
FE0077
EE0077
E700E7
E700E7
E381C7
E381C7
E1C387
E1C387
E0E707
E0F707
E07E07
E07E07
E03C07
E03C07
E01807
E00007
E00007
000000
000000
001800
003C00
003C00
001800
ENDCHAR
STARTCHAR uni1E43
ENCODING 7747
SWIDTH 1044 0
DWIDTH 33 0
BBX 28 23 3 -6
BITMAP
E3F01F80
EFFC7FC0
FFFCFFE0
F81FC1E0
F00F80F0
E00F0070
E00F0070
E00F0070
E00E0070
E00E0070
E00E0070
E00E0070
E00E0070
E00E0070
E00E0070
E00E0070
E00E0070
00000000
00000000
00060000
000F0000
000F0000
00060000
ENDCHAR
STARTCHAR uni1E44
ENCODING 7748
SWIDTH 794 0
DWIDTH 25 0
BBX 19 28 3 0
BITMAP
006000
00F000
00F000
006000
000000
000000
F000E0
F000E0
F800E0
FC00E0
FE00E0
FE00E0
EF00E0
E780E0
E3C0E0
E1C0E0
E1E0E0
E0F0E0
E078E0
E038E0
E03CE0
E01EE0
E00FE0
E007E0
E007E0
E003E0
E001E0
E000E0
ENDCHAR
STARTCHAR uni1E45
ENCODING 7749
SWIDTH 659 0
DWIDTH 21 0
BBX 16 24 3 0
BITMAP
0180
03C0
03C0
0180
0000
0000
0000
E3F0
EFFC
FFFE
F81E
F00E
E00F
E007
E007
E007
E007
E007
E007
E007
E007
E007
E007
E007
ENDCHAR
STARTCHAR uni1E46
ENCODING 7750
SWIDTH 794 0
DWIDTH 25 0
BBX 19 28 3 -6
BITMAP
F000E0
F000E0
F800E0
FC00E0
FE00E0
FE00E0
EF00E0
E780E0
E3C0E0
E1C0E0
E1E0E0
E0F0E0
E078E0
E038E0
E03CE0
E01EE0
E00FE0
E007E0
E007E0
E003E0
E001E0
E000E0
000000
000000
00E000
00E000
00F000
00E000
ENDCHAR
STARTCHAR uni1E47
ENCODING 7751
SWIDTH 659 0
DWIDTH 21 0
BBX 16 23 3 -6
BITMAP
E3F0
EFFC
FFFE
F81E
F00E
E00F
E007
E007
E007
E007
E007
E007
E007
E007
E007
E007
E007
0000
0000
0380
0380
03C0
0380
ENDCHAR
STARTCHAR uni1E48
ENCODING 7752
SWIDTH 794 0
DWIDTH 25 0
BBX 19 27 3 -5
BITMAP
F000E0
F000E0
F800E0
FC00E0
FE00E0
FE00E0
EF00E0
E780E0
E3C0E0
E1C0E0
E1E0E0
E0F0E0
E078E0
E038E0
E03CE0
E01EE0
E00FE0
E007E0
E007E0
E003E0
E001E0
E000E0
000000
000000
07FC00
07FC00
07FC00
ENDCHAR
STARTCHAR uni1E49
ENCODING 7753
SWIDTH 659 0
DWIDTH 21 0
BBX 16 22 3 -5
BITMAP
E3F0
EFFC
FFFE
F81E
F00E
E00F
E007
E007
E007
E007
E007
E007
E007
E007
E007
E007
E007
0000
0000
1FF0
1FF0
1FF0
ENDCHAR
STARTCHAR uni1E4C
ENCODING 7756
SWIDTH 812 0
DWIDTH 26 0
BBX 24 33 1 0
BITMAP
000600
000F80
003C00
001000
000000
000000
00E180
00F980
01FF00
018F00
000000
00FF00
03FFC0
0FFFF0
1F00F8
3E007C
38001C
78001E
70000E
F0000E
E0000F
E00007
E00007
E0000F
F0000E
70000E
78001E
38001C
3E007C
1F00F8
0FFFE0
03FFC0
00FE00
ENDCHAR
STARTCHAR uni1E4D
ENCODING 7757
SWIDTH 621 0
DWIDTH 20 0
BBX 18 28 1 0
BITMAP
003000
007800
01E000
008000
000000
000000
070C00
0FCC00
0FF800
0C7800
000000
03F000
0FFC00
1FFE00
3C0F00
780780
700380
F00380
E001C0
E001C0
E001C0
F00380
700380
780780
3C0F00
1FFE00
0FFC00
03F000
ENDCHAR
STARTCHAR uni1E4E
ENCODING 7758
SWIDTH 812 0
DWIDTH 26 0
BBX 24 32 1 0
BITMAP
00C600
01E700
00C600
000000
000000
00E100
01F300
01FF00
018E00
000000
00FF00
03FFC0
0FFFF0
1F00F8
3E007C
38001C
78001E
70000E
F0000E
E0000F
E00007
E00007
E0000F
F0000E
70000E
78001E
38001C
3E007C
1F00F8
0FFFE0
03FFC0
00FE00
ENDCHAR
STARTCHAR uni1E4F
ENCODING 7759
SWIDTH 621 0
DWIDTH 20 0
BBX 18 27 1 0
BITMAP
063000
0F3800
063000
000000
000000
070800
0F9800
0FF800
0C7000
000000
03F000
0FFC00
1FFE00
3C0F00
780780
700380
F00380
E001C0
E001C0
E001C0
F00380
700380
780780
3C0F00
1FFE00
0FFC00
03F000
ENDCHAR
STARTCHAR uni1E50
ENCODING 7760
SWIDTH 812 0
DWIDTH 26 0
BBX 24 32 1 0
BITMAP
006000
00F800
003C00
000800
000000
00FF00
00FF00
00FF00
000000
000000
00FF00
03FFC0
0FFFF0
1F00F8
3E007C
38001C
78001E
70000E
F0000E
E0000F
E00007
E00007
E0000F
F0000E
70000E
78001E
38001C
3E007C
1F00F8
0FFFE0
03FFC0
00FE00
ENDCHAR
STARTCHAR uni1E51
ENCODING 7761
SWIDTH 621 0
DWIDTH 20 0
BBX 18 26 1 0
BITMAP
070000
0F8000
03E000
008000
07F800
07F800
07F800
000000
000000
03F000
0FFC00
1FFE00
3C0F00
780780
700380
F00380
E001C0
E001C0
E001C0
F00380
700380
780780
3C0F00
1FFE00
0FFC00
03F000
ENDCHAR
STARTCHAR uni1E52
ENCODING 7762
SWIDTH 812 0
DWIDTH 26 0
BBX 24 32 1 0
BITMAP
000E00
001F00
007C00
001000
000000
00FF00
00FF00
00FF00
000000
000000
00FF00
03FFC0
0FFFF0
1F00F8
3E007C
38001C
78001E
70000E
F0000E
E0000F
E00007
E00007
E0000F
F0000E
70000E
78001E
38001C
3E007C
1F00F8
0FFFE0
03FFC0
00FE00
ENDCHAR
STARTCHAR uni1E53
ENCODING 7763
SWIDTH 621 0
DWIDTH 20 0
BBX 18 26 1 0
BITMAP
003000
007800
01E000
008000
07F800
07F800
07F800
000000
000000
03F000
0FFC00
1FFE00
3C0F00
780780
700380
F00380
E001C0
E001C0
E001C0
F00380
700380
780780
3C0F00
1FFE00
0FFC00
03F000
ENDCHAR
STARTCHAR uni1E5A
ENCODING 7770
SWIDTH 723 0
DWIDTH 23 0
BBX 18 28 3 -6
BITMAP
FFF800
FFFE00
FFFF00
E00780
E00380
E001C0
E001C0
E001C0
E001C0
E001C0
E00380
E00780
FFFF00
FFFE00
FFF800
E01C00
E01C00
E00E00
E00F00
E00700
E00380
E003C0
000000
000000
01C000
01C000
01C000
01C000
ENDCHAR
STARTCHAR uni1E5B
ENCODING 7771
SWIDTH 382 0
DWIDTH 12 0
BBX 10 23 2 -6
BITMAP
71C0
77C0
7FC0
7C00
7800
7800
7000
7000
7000
7000
7000
7000
7000
7000
7000
7000
7000
0000
0000
7000
7000
F000
7000
ENDCHAR
STARTCHAR uni1E5E
ENCODING 7774
SWIDTH 723 0
DWIDTH 23 0
BBX 18 27 3 -5
BITMAP
FFF800
FFFE00
FFFF00
E00780
E00380
E001C0
E001C0
E001C0
E001C0
E001C0
E00380
E00780
FFFF00
FFFE00
FFF800
E01C00
E01C00
E00E00
E00F00
E00700
E00380
E003C0
000000
000000
0FF800
0FF800
0FF800
ENDCHAR
STARTCHAR uni1E5F
ENCODING 7775
SWIDTH 382 0
DWIDTH 12 0
BBX 11 22 1 -5
BITMAP
38E0
3BE0
3FE0
3E00
3C00
3C00
3800
3800
3800
3800
3800
3800
3800
3800
3800
3800
3800
0000
0000
FF80
FF80
FF80
ENDCHAR
STARTCHAR uni1E60
ENCODING 7776
SWIDTH 616 0
DWIDTH 20 0
BBX 17 28 1 0
BITMAP
00C000
01E000
01E000
00C000
000000
000000
03F800
0FFF80
3FFF00
3C0700
780100
780000
780000
7C0000
3E0000
1FC000
0FF800
03FE00
007F00
000F80
000780
000780
400380
600780
F80F00
7FFF00
3FFC00
07F000
ENDCHAR
STARTCHAR uni1E61
ENCODING 7777
SWIDTH 460 0
DWIDTH 15 0
BBX 13 24 1 0
BITMAP
0700
0700
0700
0700
0000
0000
0000
0FC0
3FF0
7FF0
7020
6000
7000
7800
3F00
1FE0
03F0
0070
0038
8038
E078
FFF0
7FE0
1FC0
ENDCHAR
STARTCHAR uni1E62
ENCODING 7778
SWIDTH 616 0
DWIDTH 20 0
BBX 17 28 1 -6
BITMAP
03F800
0FFF80
3FFF00
3C0700
780100
780000
780000
7C0000
3E0000
1FC000
0FF800
03FE00
007F00
000F80
000780
000780
400380
600780
F80F00
7FFF00
3FFC00
07F000
000000
000000
00C000
01E000
01E000
00C000
ENDCHAR
STARTCHAR uni1E63
ENCODING 7779
SWIDTH 460 0
DWIDTH 15 0
BBX 13 23 1 -6
BITMAP
0FC0
3FF0
7FF0
7020
6000
7000
7800
3F00
1FE0
03F0
0070
0038
8038
E078
FFF0
7FE0
1FC0
0000
0000
0700
0700
0F00
0700
ENDCHAR
STARTCHAR uni1E64
ENCODING 7780
SWIDTH 616 0
DWIDTH 20 0
BBX 17 32 1 0
BITMAP
00C000
01E000
01E000
00C000
006000
01F000
03C000
010000
000000
000000
03F800
0FFF80
3FFF00
3C0700
780100
780000
780000
7C0000
3E0000
1FC000
0FF800
03FE00
007F00
000F80
000780
000780
400380
600780
F80F00
7FFF00
3FFC00
07F000
ENDCHAR
STARTCHAR uni1E65
ENCODING 7781
SWIDTH 460 0
DWIDTH 15 0
BBX 13 27 1 0
BITMAP
0700
0700
0700
0700
0380
07C0
1F00
0400
0000
0000
0FC0
3FF0
7FF0
7020
6000
7000
7800
3F00
1FE0
03F0
0070
0038
8038
E078
FFF0
7FE0
1FC0
ENDCHAR
STARTCHAR uni1E66
ENCODING 7782
SWIDTH 616 0
DWIDTH 20 0
BBX 17 31 1 0
BITMAP
00C000
00E000
00E000
00C000
0F1E00
03B800
01F000
000000
000000
03F800
0FFF80
3FFF00
3C0700
780100
780000
780000
7C0000
3E0000
1FC000
0FF800
03FE00
007F00
000F80
000780
000780
400380
600780
F80F00
7FFF00
3FFC00
07F000
ENDCHAR
STARTCHAR uni1E67
ENCODING 7783
SWIDTH 460 0
DWIDTH 15 0
BBX 13 26 1 0
BITMAP
0300
0780
0780
0300
78F0
1FE0
0FC0
0000
0000
0FC0
3FF0
7FF0
7020
6000
7000
7800
3F00
1FE0
03F0
0070
0038
8038
E078
FFF0
7FE0
1FC0
ENDCHAR
STARTCHAR uni1E68
ENCODING 7784
SWIDTH 616 0
DWIDTH 20 0
BBX 17 34 1 -6
BITMAP
00C000
01E000
01E000
00C000
000000
000000
03F800
0FFF80
3FFF00
3C0700
780100
780000
780000
7C0000
3E0000
1FC000
0FF800
03FE00
007F00
000F80
000780
000780
400380
600780
F80F00
7FFF00
3FFC00
07F000
000000
000000
00C000
01E000
01E000
00C000
ENDCHAR
STARTCHAR uni1E69
ENCODING 7785
SWIDTH 460 0
DWIDTH 15 0
BBX 13 30 1 -6
BITMAP
0700
0700
0F00
0700
0000
0000
0000
0FC0
3FF0
7FF0
7020
6000
7000
7800
3F00
1FE0
03F0
0070
0038
8038
E078
FFF0
7FE0
1FC0
0000
0000
0700
0700
0F00
0700
ENDCHAR
STARTCHAR uni1E6C
ENCODING 7788
SWIDTH 567 0
DWIDTH 18 0
BBX 18 28 0 -6
BITMAP
FFFFC0
FFFFC0
FFFFC0
00E000
00E000
00E000
00E000
00E000
00E000
00E000
00E000
00E000
00E000
00E000
00E000
00E000
00E000
00E000
00E000
00E000
00E000
00E000
000000
000000
00C000
01E000
01E000
00C000
ENDCHAR
STARTCHAR uni1E6D
ENCODING 7789
SWIDTH 397 0
DWIDTH 13 0
BBX 11 27 1 -6
BITMAP
1C00
1C00
1C00
1C00
FFE0
FFE0
FFE0
1C00
1C00
1C00
1C00
1C00
1C00
1C00
1C00
1C00
1C00
1C20
1FE0
1FE0
07C0
0000
0000
0300
0780
0780
0300
ENDCHAR
STARTCHAR uni1E6E
ENCODING 7790
SWIDTH 567 0
DWIDTH 18 0
BBX 18 27 0 -5
BITMAP
FFFFC0
FFFFC0
FFFFC0
00E000
00E000
00E000
00E000
00E000
00E000
00E000
00E000
00E000
00E000
00E000
00E000
00E000
00E000
00E000
00E000
00E000
00E000
00E000
000000
000000
0FFC00
0FFC00
0FFC00
ENDCHAR
STARTCHAR uni1E6F
ENCODING 7791
SWIDTH 397 0
DWIDTH 13 0
BBX 12 26 1 -5
BITMAP
1C00
1C00
1C00
1C00
FFE0
FFE0
FFE0
1C00
1C00
1C00
1C00
1C00
1C00
1C00
1C00
1C00
1C00
1C20
1FE0
1FE0
07C0
0000
0000
3FF0
3FF0
3FF0
ENDCHAR
STARTCHAR uni1E78
ENCODING 7800
SWIDTH 762 0
DWIDTH 24 0
BBX 19 33 3 0
BITMAP
003800
007C00
01F000
004000
000000
000000
078C00
07CC00
0FFC00
0C3800
000000
E000E0
E000E0
E000E0
E000E0
E000E0
E000E0
E000E0
E000E0
E000E0
E000E0
E000E0
E000E0
E000E0
E000E0
E001E0
E001C0
F001C0
7003C0
780780
3FFF00
1FFE00
07F800
ENDCHAR
STARTCHAR uni1E79
ENCODING 7801
SWIDTH 649 0
DWIDTH 21 0
BBX 16 28 2 0
BITMAP
0070
00F8
03E0
0080
0000
0000
0718
0F98
0FF8
0870
0000
E007
E007
E007
E007
E007
E007
E007
E007
E007
E007
E007
F00F
700F
781F
7FF7
3FE7
0FC7
ENDCHAR
STARTCHAR uni1E7A
ENCODING 7802
SWIDTH 762 0
DWIDTH 24 0
BBX 19 31 3 0
BITMAP
063800
073800
063800
000000
07F800
07F800
07F800
000000
000000
E000E0
E000E0
E000E0
E000E0
E000E0
E000E0
E000E0
E000E0
E000E0
E000E0
E000E0
E000E0
E000E0
E000E0
E001E0
E001C0
F001C0
7003C0
780780
3FFF00
1FFE00
07F800
ENDCHAR
STARTCHAR uni1E7B
ENCODING 7803
SWIDTH 649 0
DWIDTH 21 0
BBX 16 25 2 0
BITMAP
0C70
0E70
0C70
0FF0
0FF0
0FF0
0000
0000
E007
E007
E007
E007
E007
E007
E007
E007
E007
E007
E007
F00F
700F
781F
7FF7
3FE7
0FC7
ENDCHAR
STARTCHAR Wgrave
ENCODING 7808
SWIDTH 1046 0
DWIDTH 33 0
BBX 33 29 0 0
BITMAP
0002000000
000F000000
0007800000
0003C00000
0000800000
0000000000
0000000000
F001E00380
7001E00380
7003E00700
7803E00700
3803F00700
3803700E00
3C07300E00
1C07380E00
1C06381C00
1C0E181C00
0E0E1C1C00
0E0C1C1800
0E1C1C3800
071C0E3800
07180E3000
07380E7000
03B8077000
03B0076000
01F007E000
01F003E000
01E003C000
00E003C000
ENDCHAR
STARTCHAR wgrave
ENCODING 7809
SWIDTH 876 0
DWIDTH 28 0
BBX 28 24 0 0
BITMAP
00180000
007C0000
001C0000
000E0000
00010000
00000000
00000000
E00F0070
700F0070
700F80E0
701F80E0
381F80E0
381DC1C0
3839C1C0
1C39C180
1C30E380
0C70E380
0E706300
0E607700
06E07700
07E03600
07C03E00
03C03C00
03C01C00
ENDCHAR
STARTCHAR Wacute
ENCODING 7810
SWIDTH 1046 0
DWIDTH 33 0
BBX 33 29 0 0
BITMAP
0000200000
00007C0000
0000700000
0000E00000
0001C00000
0000000000
0000000000
F001E00380
7001E00380
7003E00700
7803E00700
3803F00700
3803700E00
3C07300E00
1C07380E00
1C06381C00
1C0E181C00
0E0E1C1C00
0E0C1C1800
0E1C1C3800
071C0E3800
07180E3000
07380E7000
03B8077000
03B0076000
01F007E000
01F003E000
01E003C000
00E003C000
ENDCHAR
STARTCHAR wacute
ENCODING 7811
SWIDTH 876 0
DWIDTH 28 0
BBX 28 24 0 0
BITMAP
00018000
0001E000
00038000
00070000
00080000
00000000
00000000
E00F0070
700F0070
700F80E0
701F80E0
381F80E0
381DC1C0
3839C1C0
1C39C180
1C30E380
0C70E380
0E706300
0E607700
06E07700
07E03600
07C03E00
03C03C00
03C01C00
ENDCHAR
STARTCHAR Wdieresis
ENCODING 7812
SWIDTH 1046 0
DWIDTH 33 0
BBX 33 27 0 0
BITMAP
0006380000
000F380000
0006380000
0000000000
0000000000
F001E00380
7001E00380
7003E00700
7803E00700
3803F00700
3803700E00
3C07300E00
1C07380E00
1C06381C00
1C0E181C00
0E0E1C1C00
0E0C1C1800
0E1C1C3800
071C0E3800
07180E3000
07380E7000
03B8077000
03B0076000
01F007E000
01F003E000
01E003C000
00E003C000
ENDCHAR
STARTCHAR wdieresis
ENCODING 7813
SWIDTH 876 0
DWIDTH 28 0
BBX 28 23 0 0
BITMAP
0038C000
0039E000
0038C000
00000000
00000000
00000000
E00F0070
700F0070
700F80E0
701F80E0
381F80E0
381DC1C0
3839C1C0
1C39C180
1C30E380
0C70E380
0E706300
0E607700
06E07700
07E03600
07C03E00
03C03C00
03C01C00
ENDCHAR
STARTCHAR uni1E8E
ENCODING 7822
SWIDTH 630 0
DWIDTH 20 0
BBX 20 28 0 0
BITMAP
006000
00F000
00F000
006000
000000
000000
F00070
7000E0
3801E0
3801C0
1C0380
1E0380
0E0700
0F0F00
070E00
039E00
03DC00
01F800
01F800
00F000
00F000
007000
007000
007000
007000
007000
007000
007000
ENDCHAR
STARTCHAR uni1E8F
ENCODING 7823
SWIDTH 514 0
DWIDTH 16 0
BBX 17 30 0 -6
BITMAP
01C000
01C000
03C000
01C000
000000
000000
000000
E00780
700700
700700
700E00
380E00
381C00
1C1C00
1C1C00
0C3800
0E3800
0E3000
077000
077000
03E000
03E000
03C000
01C000
018000
038000
478000
7F0000
FE0000
7C0000
ENDCHAR
STARTCHAR uni1E92
ENCODING 7826
SWIDTH 662 0
DWIDTH 21 0
BBX 19 28 1 -6
BITMAP
7FFFE0
7FFFE0
7FFFC0
0003C0
000780
000F00
001E00
001C00
003800
007800
00F000
01E000
03C000
038000
070000
0F0000
1E0000
3C0000
780000
7FFFE0
FFFFE0
FFFFE0
000000
000000
00E000
00E000
00E000
00E000
ENDCHAR
STARTCHAR uni1E93
ENCODING 7827
SWIDTH 531 0
DWIDTH 17 0
BBX 14 23 2 -6
BITMAP
FFF8
FFF8
FFF8
0070
00F0
01E0
03C0
0380
0700
0E00
1E00
3C00
7800
7000
FFFC
FFFC
FFFC
0000
0000
0700
0700
0780
0700
ENDCHAR
STARTCHAR uni1E97
ENCODING 7831
SWIDTH 397 0
DWIDTH 13 0
BBX 11 27 1 0
BITMAP
E300
E700
E300
0000
0000
0000
1C00
1C00
1C00
1C00
FFE0
FFE0
FFE0
1C00
1C00
1C00
1C00
1C00
1C00
1C00
1C00
1C00
1C00
1C20
1FE0
1FE0
07C0
ENDCHAR
STARTCHAR uni1E9E
ENCODING 7838
SWIDTH 676 0
DWIDTH 22 0
BBX 17 22 3 0
BITMAP
07F000
1FFE00
3FFF00
780700
F00700
E00E00
E01E00
E03C00
E07800
E07000
E07E00
E07F00
E00F80
E00380
E00380
E00380
E00380
E00380
E00780
E1FF00
E1FE00
E1F800
ENDCHAR
STARTCHAR uni1EA0
ENCODING 7840
SWIDTH 726 0
DWIDTH 23 0
BBX 23 28 0 -6
BITMAP
003800
007C00
007C00
00EE00
00EE00
00E700
01C700
01C780
038380
0383C0
0701C0
0701C0
0F00E0
0E00E0
1FFFF0
1FFFF0
1FFFF8
380038
38003C
70001C
70001E
F0000E
000000
000000
003800
003800
003800
003800
ENDCHAR
STARTCHAR uni1EA1
ENCODING 7841
SWIDTH 581 0
DWIDTH 19 0
BBX 15 23 1 -6
BITMAP
07F0
1FF8
7FFC
301E
000E
000E
000E
0FFE
3FFE
7FFE
700E
E00E
E00E
703E
7FFE
3FEE
0F8E
0000
0000
0180
03C0
03C0
0180
ENDCHAR
STARTCHAR uni1EA2
ENCODING 7842
SWIDTH 726 0
DWIDTH 23 0
BBX 23 31 0 0
BITMAP
001000
007C00
007C00
000E00
000C00
001C00
001800
000000
000000
003800
007C00
007C00
00EE00
00EE00
00E700
01C700
01C780
038380
0383C0
0701C0
0701C0
0F00E0
0E00E0
1FFFF0
1FFFF0
1FFFF8
380038
38003C
70001C
70001E
F0000E
ENDCHAR
STARTCHAR uni1EA3
ENCODING 7843
SWIDTH 581 0
DWIDTH 19 0
BBX 15 26 1 0
BITMAP
0180
07E0
03E0
00E0
00E0
00C0
01C0
0000
0000
07F0
1FF8
7FFC
301E
000E
000E
000E
0FFE
3FFE
7FFE
700E
E00E
E00E
703E
7FFE
3FEE
0F8E
ENDCHAR
STARTCHAR uni1EA4
ENCODING 7844
SWIDTH 726 0
DWIDTH 23 0
BBX 23 32 0 0
BITMAP
000E00
001F00
007C00
001000
000000
007C00
00EE00
03C780
000000
000000
003800
007C00
007C00
00EE00
00EE00
00E700
01C700
01C780
038380
0383C0
0701C0
0701C0
0F00E0
0E00E0
1FFFF0
1FFFF0
1FFFF8
380038
38003C
70001C
70001E
F0000E
ENDCHAR
STARTCHAR uni1EA5
ENCODING 7845
SWIDTH 581 0
DWIDTH 19 0
BBX 15 27 1 0
BITMAP
0060
00F8
03C0
0080
0000
07E0
0FF0
1E3C
0000
0000
07F0
1FF8
7FFC
301E
000E
000E
000E
0FFE
3FFE
7FFE
700E
E00E
E00E
703E
7FFE
3FEE
0F8E
ENDCHAR
STARTCHAR uni1EA6
ENCODING 7846
SWIDTH 726 0
DWIDTH 23 0
BBX 23 32 0 0
BITMAP
00E000
01F000
007C00
001000
000000
007C00
00EE00
03C780
000000
000000
003800
007C00
007C00
00EE00
00EE00
00E700
01C700
01C780
038380
0383C0
0701C0
0701C0
0F00E0
0E00E0
1FFFF0
1FFFF0
1FFFF8
380038
38003C
70001C
70001E
F0000E
ENDCHAR
STARTCHAR uni1EA7
ENCODING 7847
SWIDTH 581 0
DWIDTH 19 0
BBX 15 27 1 0
BITMAP
0600
1F00
03C0
0100
0000
07E0
0FF0
1E3C
0000
0000
07F0
1FF8
7FFC
301E
000E
000E
000E
0FFE
3FFE
7FFE
700E
E00E
E00E
703E
7FFE
3FEE
0F8E
ENDCHAR
STARTCHAR uni1EA8
ENCODING 7848
SWIDTH 726 0
DWIDTH 23 0
BBX 23 33 0 0
BITMAP
007C00
003C00
000C00
001C00
000800
000000
007E00
00FF00
01C3C0
000000
000000
003800
007C00
007C00
00EE00
00EE00
00E700
01C700
01C780
038380
0383C0
0701C0
0701C0
0F00E0
0E00E0
1FFFF0
1FFFF0
1FFFF8
380038
38003C
70001C
70001E
F0000E
ENDCHAR
STARTCHAR uni1EA9
ENCODING 7849
SWIDTH 581 0
DWIDTH 19 0
BBX 15 28 1 0
BITMAP
07C0
03E0
00C0
01C0
0080
0000
07E0
0FF0
1E3C
0000
0000
07F0
1FF8
7FFC
301E
000E
000E
000E
0FFE
3FFE
7FFE
700E
E00E
E00E
703E
7FFE
3FEE
0F8E
ENDCHAR
STARTCHAR uni1EAA
ENCODING 7850
SWIDTH 726 0
DWIDTH 23 0
BBX 23 31 0 0
BITMAP
00E180
01F900
01FF00
018E00
007C00
00EE00
03C780
000000
000000
003800
007C00
007C00
00EE00
00EE00
00E700
01C700
01C780
038380
0383C0
0701C0
0701C0
0F00E0
0E00E0
1FFFF0
1FFFF0
1FFFF8
380038
38003C
70001C
70001E
F0000E
ENDCHAR
STARTCHAR uni1EAB
ENCODING 7851
SWIDTH 581 0
DWIDTH 19 0
BBX 15 26 1 0
BITMAP
0F18
0F98
1FF8
18F0
03E0
0F70
1E3C
0000
0000
07F0
1FF8
7FFC
301E
000E
000E
000E
0FFE
3FFE
7FFE
700E
E00E
E00E
703E
7FFE
3FEE
0F8E
ENDCHAR
STARTCHAR uni1EAC
ENCODING 7852
SWIDTH 726 0
DWIDTH 23 0
BBX 23 36 0 -6
BITMAP
003800
007C00
00FE00
00EE00
01C700
000000
000000
000000
003800
007C00
007C00
00EE00
00EE00
00E700
01C700
01C780
038380
0383C0
0701C0
0701C0
0F00E0
0E00E0
1FFFF0
1FFFF0
1FFFF8
380038
38003C
70001C
70001E
F0000E
000000
000000
003800
003800
003800
003800
ENDCHAR
STARTCHAR uni1EAD
ENCODING 7853
SWIDTH 581 0
DWIDTH 19 0
BBX 15 31 1 -6
BITMAP
01C0
03C0
07E0
0E70
1E38
0000
0000
0000
07F0
1FF8
7FFC
301E
000E
000E
000E
0FFE
3FFE
7FFE
700E
E00E
E00E
703E
7FFE
3FEE
0F8E
0000
0000
0180
03C0
03C0
0180
ENDCHAR
STARTCHAR uni1EAE
ENCODING 7854
SWIDTH 726 0
DWIDTH 23 0
BBX 23 32 0 0
BITMAP
000E00
001F00
007C00
001000
018300
01FF00
00FE00
007C00
000000
000000
003800
007C00
007C00
00EE00
00EE00
00E700
01C700
01C780
038380
0383C0
0701C0
0701C0
0F00E0
0E00E0
1FFFF0
1FFFF0
1FFFF8
380038
38003C
70001C
70001E
F0000E
ENDCHAR
STARTCHAR uni1EAF
ENCODING 7855
SWIDTH 581 0
DWIDTH 19 0
BBX 15 27 1 0
BITMAP
0060
00F8
03C0
0080
0C30
0FF0
07F0
03C0
0000
0000
07F0
1FF8
7FFC
301E
000E
000E
000E
0FFE
3FFE
7FFE
700E
E00E
E00E
703E
7FFE
3FEE
0F8E
ENDCHAR
STARTCHAR uni1EB0
ENCODING 7856
SWIDTH 726 0
DWIDTH 23 0
BBX 23 32 0 0
BITMAP
00E000
01F000
007C00
001000
01C300
00FF00
00FE00
007C00
000000
000000
003800
007C00
007C00
00EE00
00EE00
00E700
01C700
01C780
038380
0383C0
0701C0
0701C0
0F00E0
0E00E0
1FFFF0
1FFFF0
1FFFF8
380038
38003C
70001C
70001E
F0000E
ENDCHAR
STARTCHAR uni1EB1
ENCODING 7857
SWIDTH 581 0
DWIDTH 19 0
BBX 15 27 1 0
BITMAP
0600
1F00
03C0
0100
0C30
0FF0
07F0
03C0
0000
0000
07F0
1FF8
7FFC
301E
000E
000E
000E
0FFE
3FFE
7FFE
700E
E00E
E00E
703E
7FFE
3FEE
0F8E
ENDCHAR
STARTCHAR uni1EB2
ENCODING 7858
SWIDTH 726 0
DWIDTH 23 0
BBX 23 33 0 0
BITMAP
007C00
007C00
000C00
001800
003000
018300
01FF00
00FE00
007C00
000000
000000
003800
007C00
007C00
00EE00
00EE00
00E700
01C700
01C780
038380
0383C0
0701C0
0701C0
0F00E0
0E00E0
1FFFF0
1FFFF0
1FFFF8
380038
38003C
70001C
70001E
F0000E
ENDCHAR
STARTCHAR uni1EB3
ENCODING 7859
SWIDTH 581 0
DWIDTH 19 0
BBX 15 28 1 0
BITMAP
07C0
03E0
00C0
01C0
0080
0C30
0FF0
07F0
03C0
0000
0000
07F0
1FF8
7FFC
301E
000E
000E
000E
0FFE
3FFE
7FFE
700E
E00E
E00E
703E
7FFE
3FEE
0F8E
ENDCHAR
STARTCHAR uni1EB4
ENCODING 7860
SWIDTH 726 0
DWIDTH 23 0
BBX 23 32 0 0
BITMAP
00E180
01F300
01FF00
018E00
018300
01FF00
00FE00
007C00
000000
000000
003800
007C00
007C00
00EE00
00EE00
00E700
01C700
01C780
038380
0383C0
0701C0
0701C0
0F00E0
0E00E0
1FFFF0
1FFFF0
1FFFF8
380038
38003C
70001C
70001E
F0000E
ENDCHAR
STARTCHAR uni1EB5
ENCODING 7861
SWIDTH 581 0
DWIDTH 19 0
BBX 15 27 1 0
BITMAP
0F18
0F98
1FF8
18F0
0C30
0FF0
07F0
03E0
0000
0000
07F0
1FF8
7FFC
301E
000E
000E
000E
0FFE
3FFE
7FFE
700E
E00E
E00E
703E
7FFE
3FEE
0F8E
ENDCHAR
STARTCHAR uni1EB6
ENCODING 7862
SWIDTH 726 0
DWIDTH 23 0
BBX 23 35 0 -6
BITMAP
018300
01C700
00FE00
00FE00
007C00
000000
000000
003800
007C00
007C00
00EE00
00EE00
00E700
01C700
01C780
038380
0383C0
0701C0
0701C0
0F00E0
0E00E0
1FFFF0
1FFFF0
1FFFF8
380038
38003C
70001C
70001E
F0000E
000000
000000
003800
003800
003800
003800
ENDCHAR
STARTCHAR uni1EB7
ENCODING 7863
SWIDTH 581 0
DWIDTH 19 0
BBX 15 31 1 -6
BITMAP
0C30
0C30
0FF0
07E0
03C0
0000
0000
0000
07F0
1FF8
7FFC
301E
000E
000E
000E
0FFE
3FFE
7FFE
700E
E00E
E00E
703E
7FFE
3FEE
0F8E
0000
0000
0180
03C0
03C0
0180
ENDCHAR
STARTCHAR uni1EB8
ENCODING 7864
SWIDTH 653 0
DWIDTH 21 0
BBX 16 28 3 -6
BITMAP
FFFF
FFFF
FFFF
E000
E000
E000
E000
E000
E000
FFFC
FFFC
FFFC
E000
E000
E000
E000
E000
E000
E000
FFFF
FFFF
FFFF
0000
0000
0180
03C0
03C0
0180
ENDCHAR
STARTCHAR uni1EB9
ENCODING 7865
SWIDTH 588 0
DWIDTH 19 0
BBX 17 23 1 -6
BITMAP
03F000
0FFC00
3FFE00
380E00
700700
700300
E00300
FFFF80
FFFF80
FFFF80
E00000
700000
780200
3C0600
3FFF00
0FFC00
03F000
000000
000000
01C000
01C000
01C000
01C000
ENDCHAR
STARTCHAR uni1EBA
ENCODING 7866
SWIDTH 653 0
DWIDTH 21 0
BBX 16 31 3 0
BITMAP
0180
07E0
03E0
00E0
00E0
00C0
01C0
0000
0000
FFFF
FFFF
FFFF
E000
E000
E000
E000
E000
E000
FFFC
FFFC
FFFC
E000
E000
E000
E000
E000
E000
E000
FFFF
FFFF
FFFF
ENDCHAR
STARTCHAR uni1EBB
ENCODING 7867
SWIDTH 588 0
DWIDTH 19 0
BBX 17 26 1 0
BITMAP
008000
03E000
03E000
006000
006000
00E000
01C000
000000
000000
03F000
0FFC00
3FFE00
380E00
700700
700300
E00300
FFFF80
FFFF80
FFFF80
E00000
700000
780200
3C0600
3FFF00
0FFC00
03F000
ENDCHAR
STARTCHAR uni1EBC
ENCODING 7868
SWIDTH 653 0
DWIDTH 21 0
BBX 16 28 3 0
BITMAP
0F18
0FF8
1FF8
1870
0000
0000
FFFF
FFFF
FFFF
E000
E000
E000
E000
E000
E000
FFFC
FFFC
FFFC
E000
E000
E000
E000
E000
E000
E000
FFFF
FFFF
FFFF
ENDCHAR
STARTCHAR uni1EBD
ENCODING 7869
SWIDTH 588 0
DWIDTH 19 0
BBX 17 23 1 0
BITMAP
071800
0FF800
0FF800
0C7000
000000
000000
03F000
0FFC00
3FFE00
380E00
700700
700300
E00300
FFFF80
FFFF80
FFFF80
E00000
700000
780200
3C0600
3FFF00
0FFC00
03F000
ENDCHAR
STARTCHAR uni1EBE
ENCODING 7870
SWIDTH 653 0
DWIDTH 21 0
BBX 16 32 3 0
BITMAP
0070
00F8
03E0
0080
0000
03E0
0F70
1E3C
0000
0000
FFFF
FFFF
FFFF
E000
E000
E000
E000
E000
E000
FFFC
FFFC
FFFC
E000
E000
E000
E000
E000
E000
E000
FFFF
FFFF
FFFF
ENDCHAR
STARTCHAR uni1EBF
ENCODING 7871
SWIDTH 588 0
DWIDTH 19 0
BBX 17 27 1 0
BITMAP
007000
00F800
03E000
008000
000000
03E000
077000
1E3C00
000000
000000
03F000
0FFC00
3FFE00
380E00
700700
700300
E00300
FFFF80
FFFF80
FFFF80
E00000
700000
780200
3C0600
3FFF00
0FFC00
03F000
ENDCHAR
STARTCHAR uni1EC0
ENCODING 7872
SWIDTH 653 0
DWIDTH 21 0
BBX 16 32 3 0
BITMAP
0600
1F00
03C0
0080
0000
03E0
0F70
1E3C
0000
0000
FFFF
FFFF
FFFF
E000
E000
E000
E000
E000
E000
FFFC
FFFC
FFFC
E000
E000
E000
E000
E000
E000
E000
FFFF
FFFF
FFFF
ENDCHAR
STARTCHAR uni1EC1
ENCODING 7873
SWIDTH 588 0
DWIDTH 19 0
BBX 17 27 1 0
BITMAP
060000
0F8000
03C000
008000
000000
03E000
077000
1E3C00
000000
000000
03F000
0FFC00
3FFE00
380E00
700700
700300
E00300
FFFF80
FFFF80
FFFF80
E00000
700000
780200
3C0600
3FFF00
0FFC00
03F000
ENDCHAR
STARTCHAR uni1EC2
ENCODING 7874
SWIDTH 653 0
DWIDTH 21 0
BBX 16 33 3 0
BITMAP
03E0
01E0
0060
00C0
0180
0000
03E0
0770
1E3C
0000
0000
FFFF
FFFF
FFFF
E000
E000
E000
E000
E000
E000
FFFC
FFFC
FFFC
E000
E000
E000
E000
E000
E000
E000
FFFF
FFFF
FFFF
ENDCHAR
STARTCHAR uni1EC3
ENCODING 7875
SWIDTH 588 0
DWIDTH 19 0
BBX 17 28 1 0
BITMAP
03C000
03E000
006000
00C000
018000
000000
03E000
077000
1E3C00
000000
000000
03F000
0FFC00
3FFE00
380E00
700700
700300
E00300
FFFF80
FFFF80
FFFF80
E00000
700000
780200
3C0600
3FFF00
0FFC00
03F000
ENDCHAR
STARTCHAR uni1EC4
ENCODING 7876
SWIDTH 653 0
DWIDTH 21 0
BBX 16 31 3 0
BITMAP
0718
0F98
0FF8
1870
03E0
0F70
1E3C
0000
0000
FFFF
FFFF
FFFF
E000
E000
E000
E000
E000
E000
FFFC
FFFC
FFFC
E000
E000
E000
E000
E000
E000
E000
FFFF
FFFF
FFFF
ENDCHAR
STARTCHAR uni1EC5
ENCODING 7877
SWIDTH 588 0
DWIDTH 19 0
BBX 17 26 1 0
BITMAP
070800
0F9800
0FF800
087000
03E000
077000
1E3C00
000000
000000
03F000
0FFC00
3FFE00
380E00
700700
700300
E00300
FFFF80
FFFF80
FFFF80
E00000
700000
780200
3C0600
3FFF00
0FFC00
03F000
ENDCHAR
STARTCHAR uni1EC6
ENCODING 7878
SWIDTH 653 0
DWIDTH 21 0
BBX 16 36 3 -6
BITMAP
01C0
03C0
07E0
0F70
1E38
0000
0000
0000
FFFF
FFFF
FFFF
E000
E000
E000
E000
E000
E000
FFFC
FFFC
FFFC
E000
E000
E000
E000
E000
E000
E000
FFFF
FFFF
FFFF
0000
0000
0180
03C0
03C0
0180
ENDCHAR
STARTCHAR uni1EC7
ENCODING 7879
SWIDTH 588 0
DWIDTH 19 0
BBX 17 31 1 -6
BITMAP
01C000
03E000
07F000
077000
0E3800
000000
000000
000000
03F000
0FFC00
3FFE00
380E00
700700
700300
E00300
FFFF80
FFFF80
FFFF80
E00000
700000
780200
3C0600
3FFF00
0FFC00
03F000
000000
000000
01C000
01C000
01C000
01C000
ENDCHAR
STARTCHAR uni1EC8
ENCODING 7880
SWIDTH 296 0
DWIDTH 9 0
BBX 6 31 2 0
BITMAP
20
F8
FC
1C
18
18
30
00
00
70
70
70
70
70
70
70
70
70
70
70
70
70
70
70
70
70
70
70
70
70
70
ENDCHAR
STARTCHAR uni1EC9
ENCODING 7881
SWIDTH 274 0
DWIDTH 9 0
BBX 6 26 1 0
BITMAP
10
FC
7C
1C
0C
1C
38
00
00
38
38
38
38
38
38
38
38
38
38
38
38
38
38
38
38
38
ENDCHAR
STARTCHAR uni1ECA
ENCODING 7882
SWIDTH 296 0
DWIDTH 9 0
BBX 4 28 3 -6
BITMAP
E0
E0
E0
E0
E0
E0
E0
E0
E0
E0
E0
E0
E0
E0
E0
E0
E0
E0
E0
E0
E0
E0
00
00
E0
F0
F0
E0
ENDCHAR
STARTCHAR uni1ECB
ENCODING 7883
SWIDTH 274 0
DWIDTH 9 0
BBX 3 30 3 -6
BITMAP
E0
E0
E0
E0
00
00
00
E0
E0
E0
E0
E0
E0
E0
E0
E0
E0
E0
E0
E0
E0
E0
E0
E0
00
00
E0
E0
E0
E0
ENDCHAR
STARTCHAR uni1ECC
ENCODING 7884
SWIDTH 812 0
DWIDTH 26 0
BBX 24 28 1 -6
BITMAP
00FF00
03FFC0
0FFFF0
1F00F8
3E007C
38001C
78001E
70000E
F0000E
E0000F
E00007
E00007
E0000F
F0000E
70000E
78001E
38001C
3E007C
1F00F8
0FFFE0
03FFC0
00FE00
000000
000000
001800
003C00
003C00
001800
ENDCHAR
STARTCHAR uni1ECD
ENCODING 7885
SWIDTH 621 0
DWIDTH 20 0
BBX 18 23 1 -6
BITMAP
03F000
0FFC00
1FFE00
3C0F00
780780
700380
F00380
E001C0
E001C0
E001C0
F00380
700380
780780
3C0F00
1FFE00
0FFC00
03F000
000000
000000
00C000
01E000
01E000
00C000
ENDCHAR
STARTCHAR uni1ECE
ENCODING 7886
SWIDTH 812 0
DWIDTH 26 0
BBX 24 31 1 0
BITMAP
001000
007C00
003E00
000E00
000E00
000C00
001800
000000
000000
00FF00
03FFC0
0FFFF0
1F00F8
3E007C
38001C
78001E
70000E
F0000E
E0000F
E00007
E00007
E0000F
F0000E
70000E
78001E
38001C
3E007C
1F00F8
0FFFE0
03FFC0
00FE00
ENDCHAR
STARTCHAR uni1ECF
ENCODING 7887
SWIDTH 621 0
DWIDTH 20 0
BBX 18 26 1 0
BITMAP
008000
03E000
03F000
007000
007000
006000
00C000
000000
000000
03F000
0FFC00
1FFE00
3C0F00
780780
700380
F00380
E001C0
E001C0
E001C0
F00380
700380
780780
3C0F00
1FFE00
0FFC00
03F000
ENDCHAR
STARTCHAR uni1ED0
ENCODING 7888
SWIDTH 812 0
DWIDTH 26 0
BBX 24 32 1 0
BITMAP
000600
000F80
003C00
001000
000000
007E00
00FF00
01C3C0
000000
000000
00FF00
03FFC0
0FFFF0
1F00F8
3E007C
38001C
78001E
70000E
F0000E
E0000F
E00007
E00007
E0000F
F0000E
70000E
78001E
38001C
3E007C
1F00F8
0FFFE0
03FFC0
00FE00
ENDCHAR
STARTCHAR uni1ED1
ENCODING 7889
SWIDTH 621 0
DWIDTH 20 0
BBX 18 27 1 0
BITMAP
003000
007800
01E000
008000
000000
03F000
07F800
1E1C00
000000
000000
03F000
0FFC00
1FFE00
3C0F00
780780
700380
F00380
E001C0
E001C0
E001C0
F00380
700380
780780
3C0F00
1FFE00
0FFC00
03F000
ENDCHAR
STARTCHAR uni1ED2
ENCODING 7890
SWIDTH 812 0
DWIDTH 26 0
BBX 24 32 1 0
BITMAP
00E000
01F000
007C00
001000
000000
007E00
00FF00
03C380
000000
000000
00FF00
03FFC0
0FFFF0
1F00F8
3E007C
38001C
78001E
70000E
F0000E
E0000F
E00007
E00007
E0000F
F0000E
70000E
78001E
38001C
3E007C
1F00F8
0FFFE0
03FFC0
00FE00
ENDCHAR
STARTCHAR uni1ED3
ENCODING 7891
SWIDTH 621 0
DWIDTH 20 0
BBX 18 27 1 0
BITMAP
070000
0F8000
03E000
008000
000000
03F000
07F800
1E1C00
000000
000000
03F000
0FFC00
1FFE00
3C0F00
780780
700380
F00380
E001C0
E001C0
E001C0
F00380
700380
780780
3C0F00
1FFE00
0FFC00
03F000
ENDCHAR
STARTCHAR uni1ED4
ENCODING 7892
SWIDTH 812 0
DWIDTH 26 0
BBX 24 33 1 0
BITMAP
003C00
003E00
000E00
000C00
001800
000000
003E00
007700
01E3C0
000000
000000
00FF00
03FFC0
0FFFF0
1F00F8
3E007C
38001C
78001E
70000E
F0000E
E0000F
E00007
E00007
E0000F
F0000E
70000E
78001E
38001C
3E007C
1F00F8
0FFFE0
03FFC0
00FE00
ENDCHAR
STARTCHAR uni1ED5
ENCODING 7893
SWIDTH 621 0
DWIDTH 20 0
BBX 18 28 1 0
BITMAP
03E000
01E000
006000
00E000
004000
000000
03F000
07F800
1E1C00
000000
000000
03F000
0FFC00
1FFE00
3C0F00
780780
700380
F00380
E001C0
E001C0
E001C0
F00380
700380
780780
3C0F00
1FFE00
0FFC00
03F000
ENDCHAR
STARTCHAR uni1ED6
ENCODING 7894
SWIDTH 812 0
DWIDTH 26 0
BBX 24 31 1 0
BITMAP
00E180
00F980
01FF00
018F00
007E00
00FF00
01C3C0
000000
000000
00FF00
03FFC0
0FFFF0
1F00F8
3E007C
38001C
78001E
70000E
F0000E
E0000F
E00007
E00007
E0000F
F0000E
70000E
78001E
38001C
3E007C
1F00F8
0FFFE0
03FFC0
00FE00
ENDCHAR
STARTCHAR uni1ED7
ENCODING 7895
SWIDTH 621 0
DWIDTH 20 0
BBX 18 26 1 0
BITMAP
070C00
0FCC00
0FF800
0C7800
03F000
07F800
1E1C00
000000
000000
03F000
0FFC00
1FFE00
3C0F00
780780
700380
F00380
E001C0
E001C0
E001C0
F00380
700380
780780
3C0F00
1FFE00
0FFC00
03F000
ENDCHAR
STARTCHAR uni1ED8
ENCODING 7896
SWIDTH 812 0
DWIDTH 26 0
BBX 24 36 1 -6
BITMAP
003C00
003C00
007E00
00E700
01E380
000000
000000
000000
00FF00
03FFC0
0FFFF0
1F00F8
3E007C
38001C
78001E
70000E
F0000E
E0000F
E00007
E00007
E0000F
F0000E
70000E
78001E
38001C
3E007C
1F00F8
0FFFE0
03FFC0
00FE00
000000
000000
001800
003C00
003C00
001800
ENDCHAR
STARTCHAR uni1ED9
ENCODING 7897
SWIDTH 621 0
DWIDTH 20 0
BBX 18 31 1 -6
BITMAP
01E000
01E000
03F000
073800
0E3C00
000000
000000
000000
03F000
0FFC00
1FFE00
3C0F00
780780
700380
F00380
E001C0
E001C0
E001C0
F00380
700380
780780
3C0F00
1FFE00
0FFC00
03F000
000000
000000
00C000
01E000
01E000
00C000
ENDCHAR
STARTCHAR uni1EDA
ENCODING 7898
SWIDTH 837 0
DWIDTH 27 0
BBX 24 29 1 0
BITMAP
000600
000780
000F00
001C06
00280E
00000E
00000E
00FF0E
03FFFC
0FFFF8
1F00F8
3E007C
38001C
78001E
70000E
F0000E
E0000F
E00007
E00007
E0000F
F0000E
70000E
78001E
38001C
3E007C
1F00F8
0FFFF0
03FFC0
00FE00
ENDCHAR
STARTCHAR uni1EDB
ENCODING 7899
SWIDTH 651 0
DWIDTH 21 0
BBX 19 24 1 0
BITMAP
003000
007C00
007000
01E060
0000E0
000060
000060
03F0E0
0FFFE0
1FFFC0
3C0F00
780780
700380
F00380
E001C0
E001C0
E001C0
F00380
700380
780780
3C0F00
1FFE00
0FFC00
03F000
ENDCHAR
STARTCHAR uni1EDC
ENCODING 7900
SWIDTH 837 0
DWIDTH 27 0
BBX 24 29 1 0
BITMAP
004000
01E000
00F000
003806
00140E
00000E
00000E
00FF0E
03FFFC
0FFFF8
1F00F8
3E007C
38001C
78001E
70000E
F0000E
E0000F
E00007
E00007
E0000F
F0000E
70000E
78001E
38001C
3E007C
1F00F8
0FFFF0
03FFC0
00FE00
ENDCHAR
STARTCHAR uni1EDD
ENCODING 7901
SWIDTH 651 0
DWIDTH 21 0
BBX 19 24 1 0
BITMAP
030000
0F0000
038000
01C060
0020E0
000060
000060
03F0E0
0FFFE0
1FFFC0
3C0F00
780780
700380
F00380
E001C0
E001C0
E001C0
F00380
700380
780780
3C0F00
1FFE00
0FFC00
03F000
ENDCHAR
STARTCHAR uni1EDE
ENCODING 7902
SWIDTH 837 0
DWIDTH 27 0
BBX 24 31 1 0
BITMAP
001000
007C00
003E00
000E00
000E00
000C06
00180E
00000E
00000E
00FF0E
03FFFC
0FFFF8
1F00F8
3E007C
38001C
78001E
70000E
F0000E
E0000F
E00007
E00007
E0000F
F0000E
70000E
78001E
38001C
3E007C
1F00F8
0FFFF0
03FFC0
00FE00
ENDCHAR
STARTCHAR uni1EDF
ENCODING 7903
SWIDTH 651 0
DWIDTH 21 0
BBX 19 26 1 0
BITMAP
008000
03E000
03F000
007000
007000
006060
00C0E0
000060
000060
03F0E0
0FFFE0
1FFFC0
3C0F00
780780
700380
F00380
E001C0
E001C0
E001C0
F00380
700380
780780
3C0F00
1FFE00
0FFC00
03F000
ENDCHAR
STARTCHAR uni1EE0
ENCODING 7904
SWIDTH 837 0
DWIDTH 27 0
BBX 24 28 1 0
BITMAP
00F180
01FF80
01FF06
018F0E
00000E
00000E
00FF0E
03FFFC
0FFFF8
1F00F8
3E007C
38001C
78001E
70000E
F0000E
E0000F
E00007
E00007
E0000F
F0000E
70000E
78001E
38001C
3E007C
1F00F8
0FFFF0
03FFC0
00FE00
ENDCHAR
STARTCHAR uni1EE1
ENCODING 7905
SWIDTH 651 0
DWIDTH 21 0
BBX 19 23 1 0
BITMAP
078C00
0FFC00
0FF860
0C78E0
000060
000060
03F0E0
0FFFE0
1FFFC0
3C0F00
780780
700380
F00380
E001C0
E001C0
E001C0
F00380
700380
780780
3C0F00
1FFE00
0FFC00
03F000
ENDCHAR
STARTCHAR uni1EE2
ENCODING 7906
SWIDTH 837 0
DWIDTH 27 0
BBX 24 32 1 -6
BITMAP
000006
00000E
00000E
00000E
00FF0E
03FFFC
0FFFF8
1F00F8
3E007C
38001C
78001E
70000E
F0000E
E0000F
E00007
E00007
E0000F
F0000E
70000E
78001E
38001C
3E007C
1F00F8
0FFFF0
03FFC0
00FE00
000000
000000
001800
003C00
003C00
001800
ENDCHAR
STARTCHAR uni1EE3
ENCODING 7907
SWIDTH 652 0
DWIDTH 21 0
BBX 19 27 1 -6
BITMAP
000060
0000E0
000060
000060
03F0E0
0FFFE0
1FFFC0
3C0F00
780780
700380
F00380
E001C0
E001C0
E001C0
F00380
700380
780780
3C0F00
1FFE00
0FFC00
03F000
000000
000000
00C000
01E000
01E000
00C000
ENDCHAR
STARTCHAR uni1EE4
ENCODING 7908
SWIDTH 762 0
DWIDTH 24 0
BBX 19 28 3 -6
BITMAP
E000E0
E000E0
E000E0
E000E0
E000E0
E000E0
E000E0
E000E0
E000E0
E000E0
E000E0
E000E0
E000E0
E000E0
E001E0
E001C0
F001C0
7003C0
780780
3FFF00
1FFE00
07F800
000000
000000
00C000
01E000
01E000
00C000
ENDCHAR
STARTCHAR uni1EE5
ENCODING 7909
SWIDTH 649 0
DWIDTH 21 0
BBX 16 23 2 -6
BITMAP
E007
E007
E007
E007
E007
E007
E007
E007
E007
E007
E007
F00F
700F
781F
7FF7
3FE7
0FC7
0000
0000
01C0
01C0
01C0
01C0
ENDCHAR
STARTCHAR uni1EE6
ENCODING 7910
SWIDTH 762 0
DWIDTH 24 0
BBX 19 31 3 0
BITMAP
00C000
03F000
01F000
007000
007000
006000
00E000
000000
000000
E000E0
E000E0
E000E0
E000E0
E000E0
E000E0
E000E0
E000E0
E000E0
E000E0
E000E0
E000E0
E000E0
E000E0
E001E0
E001C0
F001C0
7003C0
780780
3FFF00
1FFE00
07F800
ENDCHAR
STARTCHAR uni1EE7
ENCODING 7911
SWIDTH 649 0
DWIDTH 21 0
BBX 16 26 2 0
BITMAP
0080
07E0
03E0
0060
0060
00E0
01C0
0000
0000
E007
E007
E007
E007
E007
E007
E007
E007
E007
E007
E007
F00F
700F
781F
7FF7
3FE7
0FC7
ENDCHAR
STARTCHAR uni1EE8
ENCODING 7912
SWIDTH 787 0
DWIDTH 25 0
BBX 22 29 3 0
BITMAP
001000
003C00
007800
00F00C
00400C
00000C
00001C
E000F8
E000F0
E000E0
E000E0
E000E0
E000E0
E000E0
E000E0
E000E0
E000E0
E000E0
E000E0
E000E0
E000E0
E001E0
E001C0
F001C0
7003C0
780780
3FFF00
1FFE00
07F800
ENDCHAR
STARTCHAR uni1EE9
ENCODING 7913
SWIDTH 654 0
DWIDTH 21 0
BBX 19 24 2 0
BITMAP
002000
007800
00F000
01C0C0
0000E0
0000E0
0000E0
E007C0
E00780
E00700
E00700
E00700
E00700
E00700
E00700
E00700
E00700
E00700
F00F00
700F00
781F00
7FF700
3FE700
0FC700
ENDCHAR
STARTCHAR uni1EEA
ENCODING 7914
SWIDTH 787 0
DWIDTH 25 0
BBX 22 29 3 0
BITMAP
010000
0F0000
038000
01C00C
00A00C
00000C
00001C
E000F8
E000F0
E000E0
E000E0
E000E0
E000E0
E000E0
E000E0
E000E0
E000E0
E000E0
E000E0
E000E0
E000E0
E001E0
E001C0
F001C0
7003C0
780780
3FFF00
1FFE00
07F800
ENDCHAR
STARTCHAR uni1EEB
ENCODING 7915
SWIDTH 654 0
DWIDTH 21 0
BBX 19 24 2 0
BITMAP
060000
1F0000
078000
03C0C0
0000E0
0000E0
0000E0
E007C0
E00780
E00700
E00700
E00700
E00700
E00700
E00700
E00700
E00700
E00700
F00F00
700F00
781F00
7FF700
3FE700
0FC700
ENDCHAR
STARTCHAR uni1EEC
ENCODING 7916
SWIDTH 787 0
DWIDTH 25 0
BBX 22 31 3 0
BITMAP
00C000
03F000
01F000
007000
007000
00600C
00E00C
00000C
00001C
E000F8
E000F0
E000E0
E000E0
E000E0
E000E0
E000E0
E000E0
E000E0
E000E0
E000E0
E000E0
E000E0
E000E0
E001E0
E001C0
F001C0
7003C0
780780
3FFF00
1FFE00
07F800
ENDCHAR
STARTCHAR uni1EED
ENCODING 7917
SWIDTH 654 0
DWIDTH 21 0
BBX 19 26 2 0
BITMAP
008000
07E000
03E000
006000
006000
00E0C0
01C0E0
0000E0
0000E0
E007C0
E00780
E00700
E00700
E00700
E00700
E00700
E00700
E00700
E00700
E00700
F00F00
700F00
781F00
7FF700
3FE700
0FC700
ENDCHAR
STARTCHAR uni1EEE
ENCODING 7918
SWIDTH 787 0
DWIDTH 25 0
BBX 22 28 3 0
BITMAP
078C00
07FC00
0FFC0C
0C380C
00000C
00001C
E000F8
E000F0
E000E0
E000E0
E000E0
E000E0
E000E0
E000E0
E000E0
E000E0
E000E0
E000E0
E000E0
E000E0
E001E0
E001C0
F001C0
7003C0
780780
3FFF00
1FFE00
07F800
ENDCHAR
STARTCHAR uni1EEF
ENCODING 7919
SWIDTH 654 0
DWIDTH 21 0
BBX 19 23 2 0
BITMAP
071800
0FF800
0FF8C0
1C70E0
0000E0
0000E0
E007C0
E00780
E00700
E00700
E00700
E00700
E00700
E00700
E00700
E00700
E00700
F00F00
700F00
781F00
7FF700
3FE700
0FC700
ENDCHAR
STARTCHAR uni1EF0
ENCODING 7920
SWIDTH 787 0
DWIDTH 25 0
BBX 22 32 3 -6
BITMAP
00000C
00000C
00000C
00001C
E000F8
E000F0
E000E0
E000E0
E000E0
E000E0
E000E0
E000E0
E000E0
E000E0
E000E0
E000E0
E000E0
E000E0
E001E0
E001C0
F001C0
7003C0
780780
3FFF00
1FFE00
07F800
000000
000000
00C000
01E000
01E000
00C000
ENDCHAR
STARTCHAR uni1EF1
ENCODING 7921
SWIDTH 654 0
DWIDTH 21 0
BBX 19 27 2 -6
BITMAP
0000C0
0000E0
0000E0
0000E0
E007C0
E00780
E00700
E00700
E00700
E00700
E00700
E00700
E00700
E00700
E00700
F00F00
700F00
781F00
7FF700
3FE700
0FC700
000000
000000
01C000
01C000
01C000
01C000
ENDCHAR
STARTCHAR Ygrave
ENCODING 7922
SWIDTH 630 0
DWIDTH 20 0
BBX 20 29 0 0
BITMAP
018000
078000
03C000
00E000
005000
000000
000000
F00070
7000E0
3801E0
3801C0
1C0380
1E0380
0E0700
0F0F00
070E00
039E00
03DC00
01F800
01F800
00F000
00F000
007000
007000
007000
007000
007000
007000
007000
ENDCHAR
STARTCHAR ygrave
ENCODING 7923
SWIDTH 514 0
DWIDTH 16 0
BBX 17 30 0 -6
BITMAP
060000
1F0000
078000
03C000
000000
000000
000000
E00780
700700
700700
700E00
380E00
381C00
1C1C00
1C1C00
0C3800
0E3800
0E3000
077000
077000
03E000
03E000
03C000
01C000
018000
038000
478000
7F0000
FE0000
7C0000
ENDCHAR
STARTCHAR uni1EF4
ENCODING 7924
SWIDTH 630 0
DWIDTH 20 0
BBX 20 28 0 -6
BITMAP
F00070
7000E0
3801E0
3801C0
1C0380
1E0380
0E0700
0F0F00
070E00
039E00
03DC00
01F800
01F800
00F000
00F000
007000
007000
007000
007000
007000
007000
007000
000000
000000
006000
00F000
00F000
006000
ENDCHAR
STARTCHAR uni1EF5
ENCODING 7925
SWIDTH 514 0
DWIDTH 16 0
BBX 17 23 0 -6
BITMAP
E00780
700700
700700
700E00
380E00
381C00
1C1C00
1C1C00
0C3800
0E3800
0E3000
077000
077000
03E000
03E000
03C000
01C000
018000
038000
479C00
7F1E00
FE1E00
7C1C00
ENDCHAR
STARTCHAR uni1EF6
ENCODING 7926
SWIDTH 630 0
DWIDTH 20 0
BBX 20 31 0 0
BITMAP
004000
01F000
00F800
003800
003800
003000
007000
000000
000000
F00070
7000E0
3801E0
3801C0
1C0380
1E0380
0E0700
0F0F00
070E00
039E00
03DC00
01F800
01F800
00F000
00F000
007000
007000
007000
007000
007000
007000
007000
ENDCHAR
STARTCHAR uni1EF7
ENCODING 7927
SWIDTH 514 0
DWIDTH 16 0
BBX 17 32 0 -6
BITMAP
008000
07E000
03E000
00E000
006000
00C000
01C000
000000
000000
E00780
700700
700700
700E00
380E00
381C00
1C1C00
1C1C00
0C3800
0E3800
0E3000
077000
077000
03E000
03E000
03C000
01C000
018000
038000
478000
7F0000
FE0000
7C0000
ENDCHAR
STARTCHAR uni1EF8
ENCODING 7928
SWIDTH 630 0
DWIDTH 20 0
BBX 20 28 0 0
BITMAP
03C600
03FE00
07FE00
063C00
000000
000000
F00070
7000E0
3801E0
3801C0
1C0380
1E0380
0E0700
0F0F00
070E00
039E00
03DC00
01F800
01F800
00F000
00F000
007000
007000
007000
007000
007000
007000
007000
ENDCHAR
STARTCHAR uni1EF9
ENCODING 7929
SWIDTH 514 0
DWIDTH 16 0
BBX 17 29 0 -6
BITMAP
071800
0FF800
1FF800
187000
000000
000000
E00780
700700
700700
700E00
380E00
381C00
1C1C00
1C1C00
0C3800
0E3800
0E3000
077000
077000
03E000
03E000
03C000
01C000
018000
038000
478000
7F0000
FE0000
7C0000
ENDCHAR
STARTCHAR uni2007
ENCODING 8199
SWIDTH 700 0
DWIDTH 22 0
BBX 1 1 0 0
BITMAP
00
ENDCHAR
STARTCHAR uni2008
ENCODING 8200
SWIDTH 207 0
DWIDTH 7 0
BBX 1 1 0 0
BITMAP
00
ENDCHAR
STARTCHAR uni2009
ENCODING 8201
SWIDTH 200 0
DWIDTH 6 0
BBX 1 1 0 0
BITMAP
00
ENDCHAR
STARTCHAR uni200A
ENCODING 8202
SWIDTH 100 0
DWIDTH 3 0
BBX 1 1 0 0
BITMAP
00
ENDCHAR
STARTCHAR uni200B
ENCODING 8203
SWIDTH 0 0
DWIDTH 0 0
BBX 1 1 0 0
BITMAP
00
ENDCHAR
STARTCHAR uni2010
ENCODING 8208
SWIDTH 366 0
DWIDTH 12 0
BBX 8 3 2 9
BITMAP
FF
FF
FF
ENDCHAR
STARTCHAR figuredash
ENCODING 8210
SWIDTH 617 0
DWIDTH 20 0
BBX 20 3 0 9
BITMAP
FFFFF0
FFFFF0
FFFFF0
ENDCHAR
STARTCHAR endash
ENCODING 8211
SWIDTH 404 0
DWIDTH 13 0
BBX 13 3 0 9
BITMAP
FFF8
FFF8
FFF8
ENDCHAR
STARTCHAR emdash
ENCODING 8212
SWIDTH 706 0
DWIDTH 23 0
BBX 23 3 0 9
BITMAP
FFFFFE
FFFFFE
FFFFFE
ENDCHAR
STARTCHAR uni2015
ENCODING 8213
SWIDTH 706 0
DWIDTH 23 0
BBX 23 3 0 9
BITMAP
FFFFFE
FFFFFE
FFFFFE
ENDCHAR
STARTCHAR quoteleft
ENCODING 8216
SWIDTH 204 0
DWIDTH 7 0
BBX 4 7 1 17
BITMAP
30
30
60
60
F0
F0
60
ENDCHAR
STARTCHAR quoteright
ENCODING 8217
SWIDTH 204 0
DWIDTH 7 0
BBX 4 7 1 17
BITMAP
70
70
70
60
60
60
C0
ENDCHAR
STARTCHAR quotesinglbase
ENCODING 8218
SWIDTH 204 0
DWIDTH 7 0
BBX 4 7 1 -4
BITMAP
70
70
70
60
60
60
C0
ENDCHAR
STARTCHAR quotedblleft
ENCODING 8220
SWIDTH 340 0
DWIDTH 11 0
BBX 8 7 1 17
BITMAP
31
33
63
66
F7
F7
67
ENDCHAR
STARTCHAR quotedblright
ENCODING 8221
SWIDTH 340 0
DWIDTH 11 0
BBX 8 7 1 17
BITMAP
77
77
77
63
66
66
C4
ENDCHAR
STARTCHAR quotedblbase
ENCODING 8222
SWIDTH 340 0
DWIDTH 11 0
BBX 8 7 1 -4
BITMAP
77
77
77
63
66
66
C4
ENDCHAR
STARTCHAR dagger
ENCODING 8224
SWIDTH 524 0
DWIDTH 17 0
BBX 16 28 0 -6
BITMAP
01C0
01C0
01C0
01C0
01C0
01C0
FFFF
FFFF
FFFF
01C0
01C0
01C0
01C0
01C0
01C0
01C0
01C0
01C0
01C0
01C0
01C0
01C0
01C0
01C0
01C0
01C0
01C0
01C0
ENDCHAR
STARTCHAR daggerdbl
ENCODING 8225
SWIDTH 524 0
DWIDTH 17 0
BBX 16 28 0 -6
BITMAP
01C0
01C0
01C0
01C0
01C0
01C0
FFFF
FFFF
FFFF
01C0
01C0
01C0
01C0
01C0
01C0
01C0
01C0
FFFF
FFFF
FFFF
01C0
01C0
01C0
01C0
01C0
01C0
01C0
01C0
ENDCHAR
STARTCHAR bullet
ENCODING 8226
SWIDTH 262 0
DWIDTH 8 0
BBX 5 5 2 6
BITMAP
70
F8
F8
F8
70
ENDCHAR
STARTCHAR ellipsis
ENCODING 8230
SWIDTH 582 0
DWIDTH 19 0
BBX 15 4 2 0
BITMAP
C30E
E38E
E38E
C30E
ENDCHAR
STARTCHAR perthousand
ENCODING 8240
SWIDTH 1399 0
DWIDTH 45 0
BBX 42 22 1 0
BITMAP
0F8007000000
3FC00E000000
70E01C000000
606018000000
E03030000000
C03070000000
C030E0000000
C030C0000000
E03180000000
60630F803E00
70E73FE07F80
3FCE3060C180
1F8C6071C0C0
0018603180C0
0038603180C0
0070603180C0
0060603180C0
00C0603180C0
01C06031C0C0
03803060C1C0
03003FE07F80
06000F803E00
ENDCHAR
STARTCHAR minute
ENCODING 8242
SWIDTH 187 0
DWIDTH 6 0
BBX 4 8 1 14
BITMAP
70
60
60
60
E0
E0
E0
C0
ENDCHAR
STARTCHAR second
ENCODING 8243
SWIDTH 331 0
DWIDTH 11 0
BBX 8 8 1 14
BITMAP
77
67
67
67
E6
E6
E6
C6
ENDCHAR
STARTCHAR guilsinglleft
ENCODING 8249
SWIDTH 274 0
DWIDTH 9 0
BBX 6 11 1 3
BITMAP
1C
18
38
70
60
E0
60
70
38
18
1C
ENDCHAR
STARTCHAR guilsinglright
ENCODING 8250
SWIDTH 274 0
DWIDTH 9 0
BBX 6 11 2 3
BITMAP
C0
E0
70
30
38
1C
38
30
70
E0
C0
ENDCHAR
STARTCHAR fraction
ENCODING 8260
SWIDTH 67 0
DWIDTH 2 0
BBX 19 22 -9 0
BITMAP
000060
0000C0
0001C0
000380
000300
000600
000E00
001C00
001800
003000
007000
00E000
00C000
018000
038000
070000
060000
0C0000
180000
380000
700000
E00000
ENDCHAR
STARTCHAR uni2070
ENCODING 8304
SWIDTH 444 0
DWIDTH 14 0
BBX 12 13 1 11
BITMAP
0F80
3FC0
70E0
6060
E030
C030
C030
C030
E030
6060
70E0
3FC0
1F80
ENDCHAR
STARTCHAR uni2074
ENCODING 8308
SWIDTH 352 0
DWIDTH 11 0
BBX 11 13 0 12
BITMAP
0600
0C00
0C00
1800
3800
3180
7180
6180
FFE0
FFE0
0180
0180
0180
ENDCHAR
STARTCHAR uni2075
ENCODING 8309
SWIDTH 382 0
DWIDTH 12 0
BBX 10 13 1 11
BITMAP
7FC0
7FC0
6000
6000
6000
7F00
7F80
01C0
00C0
00C0
41C0
FF80
3F00
ENDCHAR
STARTCHAR uni2076
ENCODING 8310
SWIDTH 402 0
DWIDTH 13 0
BBX 11 13 1 11
BITMAP
0F80
3FC0
7000
6000
6700
DFC0
D0C0
E0E0
E060
60E0
70C0
3FC0
1F00
ENDCHAR
STARTCHAR uni2077
ENCODING 8311
SWIDTH 319 0
DWIDTH 10 0
BBX 10 13 0 12
BITMAP
FFC0
FFC0
C1C0
C180
0380
0300
0300
0600
0600
0C00
0C00
1800
3800
ENDCHAR
STARTCHAR uni2078
ENCODING 8312
SWIDTH 408 0
DWIDTH 13 0
BBX 11 14 1 12
BITMAP
1F00
3F80
71C0
60C0
60C0
71C0
1F80
3F80
60C0
C060
C060
E0E0
7FC0
1F00
ENDCHAR
STARTCHAR uni2079
ENCODING 8313
SWIDTH 402 0
DWIDTH 13 0
BBX 11 13 1 12
BITMAP
1F00
7F80
61C0
C0C0
C0C0
E1E0
7FE0
3EE0
00C0
00C0
4180
7F80
3E00
ENDCHAR
STARTCHAR uni2080
ENCODING 8320
SWIDTH 444 0
DWIDTH 14 0
BBX 12 13 1 -3
BITMAP
0F80
3FC0
70E0
6060
E030
C030
C030
C030
E030
6060
70E0
3FC0
1F80
ENDCHAR
STARTCHAR uni2081
ENCODING 8321
SWIDTH 232 0
DWIDTH 7 0
BBX 5 13 0 -3
BITMAP
F8
F8
18
18
18
18
18
18
18
18
18
18
18
ENDCHAR
STARTCHAR uni2082
ENCODING 8322
SWIDTH 351 0
DWIDTH 11 0
BBX 10 13 0 -3
BITMAP
1F00
7F80
E1C0
41C0
0180
0180
0300
0600
0C00
1800
3000
7FC0
7FC0
ENDCHAR
STARTCHAR uni2083
ENCODING 8323
SWIDTH 348 0
DWIDTH 11 0
BBX 9 13 1 -3
BITMAP
FF00
FF00
0600
0C00
1800
3E00
0300
0180
0180
0180
C380
FF00
7E00
ENDCHAR
STARTCHAR uni2084
ENCODING 8324
SWIDTH 352 0
DWIDTH 11 0
BBX 11 13 0 -3
BITMAP
0600
0C00
0C00
1800
3800
3180
7180
6180
FFE0
FFE0
0180
0180
0180
ENDCHAR
STARTCHAR uni2085
ENCODING 8325
SWIDTH 382 0
DWIDTH 12 0
BBX 10 13 1 -3
BITMAP
7FC0
7FC0
6000
6000
6000
7F00
7F80
01C0
00C0
00C0
41C0
FF80
3F00
ENDCHAR
STARTCHAR uni2086
ENCODING 8326
SWIDTH 402 0
DWIDTH 13 0
BBX 11 13 1 -3
BITMAP
0F80
3FC0
7000
6000
6700
DFC0
D0C0
E0E0
E060
60E0
70C0
3FC0
1F00
ENDCHAR
STARTCHAR uni2087
ENCODING 8327
SWIDTH 319 0
DWIDTH 10 0
BBX 10 13 0 -3
BITMAP
FFC0
FFC0
C1C0
C180
0380
0300
0300
0600
0600
0C00
0C00
1800
3800
ENDCHAR
STARTCHAR uni2088
ENCODING 8328
SWIDTH 408 0
DWIDTH 13 0
BBX 11 14 1 -3
BITMAP
1F00
3F80
71C0
60C0
60C0
71C0
1F80
3F80
60C0
C060
C060
E0E0
7FC0
1F00
ENDCHAR
STARTCHAR uni2089
ENCODING 8329
SWIDTH 402 0
DWIDTH 13 0
BBX 11 13 1 -3
BITMAP
1F00
7F80
61C0
C0C0
C0C0
E1E0
7FE0
3EE0
00C0
00C0
4180
7F80
3E00
ENDCHAR
STARTCHAR colonmonetary
ENCODING 8353
SWIDTH 699 0
DWIDTH 22 0
BBX 20 31 1 -4
BITMAP
007300
006300
006700
006700
006600
01FE00
07FFC0
0FFFE0
1F00F0
3C0060
780020
780000
700000
F00000
E00000
E00000
E00000
E00000
700000
700000
780000
380000
3C0020
1F00F0
0FFFE0
03FFC0
00FF00
00CE00
00CE00
00CC00
01CC00
ENDCHAR
STARTCHAR franc
ENCODING 8355
SWIDTH 567 0
DWIDTH 18 0
BBX 17 22 1 0
BITMAP
3FFF80
3FFF80
3FFF80
380000
380000
380000
380000
380000
380000
380000
3FFF00
3FFF00
3FFF00
380000
380000
380000
FFF800
FFF800
380000
380000
380000
380000
ENDCHAR
STARTCHAR lira
ENCODING 8356
SWIDTH 544 0
DWIDTH 17 0
BBX 16 22 1 0
BITMAP
01F0
07FC
0FFF
0E06
1C02
1C00
1C00
1C00
FFF0
FFF0
1C00
1C00
FFF0
FFF0
1C00
1C00
1C00
1C00
1C00
FFFE
FFFE
FFFE
ENDCHAR
STARTCHAR uni20A6
ENCODING 8358
SWIDTH 763 0
DWIDTH 24 0
BBX 23 22 1 0
BITMAP
3C0070
3C0070
3E0070
3F0070
3F8070
3B8070
39C070
39E070
FFFFFE
FFFFFE
387870
383870
FFFFFE
FFFFFE
380E70
380770
3807F0
3803F0
3801F0
3801F0
3800F0
380070
ENDCHAR
STARTCHAR peseta
ENCODING 8359
SWIDTH 1480 0
DWIDTH 47 0
BBX 43 22 3 0
BITMAP
FFF000000000
FFFC07000000
FFFE07000000
E00F07000000
E00707000000
E0073FF83F80
E003BFF87FE0
E003BFF8FFC0
E0038701C040
E0070701C000
E0070701C000
E00F0700F000
FFFE0700FE00
FFFC07003F80
FFF0070007C0
E000070001E0
E000070000E0
E000070000E0
E000070180E0
E00007FBFFE0
E00003F8FFC0
E00001F03F00
ENDCHAR
STARTCHAR uni20A9
ENCODING 8361
SWIDTH 960 0
DWIDTH 31 0
BBX 31 22 0 0
BITMAP
7003801C
7007801C
7807C03C
3807C038
3806C038
380EE038
1C0EE070
1C0CE070
FFFFFFFE
FFFFFFFE
0E1870E0
0E1830E0
FFFFFFFC
FFFFFFFC
073039C0
073019C0
07701D80
03F01F80
03E00F80
03E00F00
01E00F00
01C00F00
ENDCHAR
STARTCHAR dong
ENCODING 8363
SWIDTH 678 0
DWIDTH 22 0
BBX 20 28 1 -4
BITMAP
0001C0
0001C0
0001C0
003FF0
003FF0
0001C0
0001C0
07E1C0
1FF9C0
3FFDC0
3C0FC0
7807C0
7003C0
F003C0
E001C0
E001C0
E001C0
F003C0
7003C0
7807C0
3C0FC0
3FFDC0
1FF9C0
07E1C0
000000
000000
1FFF00
1FFF00
ENDCHAR
STARTCHAR Euro
ENCODING 8364
SWIDTH 792 0
DWIDTH 25 0
BBX 23 22 1 0
BITMAP
001FC0
007FF8
01FFFC
03E01E
078004
0F0000
0E0000
0E0000
FFFF00
FFFF00
1C0000
1C0000
FFFF00
FFFF00
0E0000
0F0000
070000
07800C
03E01E
01FFFC
007FF8
001FC0
ENDCHAR
STARTCHAR uni20AD
ENCODING 8365
SWIDTH 649 0
DWIDTH 21 0
BBX 20 22 0 0
BITMAP
3C01F0
3C03C0
3C0780
3C0F00
3C1E00
3C3C00
3C7800
3CF000
3DE000
3FC000
FFFFC0
FFFFC0
3FC000
3DE000
3CF000
3C3800
3C1C00
3C0E00
3C0700
3C0380
3C01E0
3C00F0
ENDCHAR
STARTCHAR uni20B1
ENCODING 8369
SWIDTH 762 0
DWIDTH 24 0
BBX 23 22 1 0
BITMAP
1FFE00
1FFFC0
1FFFE0
1C00E0
FFFFFE
FFFFFE
1C0070
1C0070
FFFFFE
FFFFFE
1C00E0
1C01E0
1FFFC0
1FFF80
1FFE00
1C0000
1C0000
1C0000
1C0000
1C0000
1C0000
1C0000
ENDCHAR
STARTCHAR uni20B2
ENCODING 8370
SWIDTH 725 0
DWIDTH 23 0
BBX 21 31 1 -4
BITMAP
001800
001800
001800
001800
007E00
03FFC0
07FFE0
0F81F8
1E0070
3C0020
780000
700000
700000
F00000
E00000
E00000
E00030
F00030
700030
700030
780030
3C0030
1E0070
0F81F0
07FFE0
03FFC0
007E00
001800
001800
001800
001800
ENDCHAR
STARTCHAR uni20B5
ENCODING 8373
SWIDTH 699 0
DWIDTH 22 0
BBX 20 31 1 -4
BITMAP
003800
003800
003800
003800
007E00
03FF80
07FFE0
0F81F0
1E0070
3C0020
780000
700000
700000
F00000
E00000
E00000
E00000
F00000
700000
700000
780000
3C0020
1E0070
1F81F0
07FFE0
03FF80
007E00
003800
003800
003800
003800
ENDCHAR
STARTCHAR uni20B9
ENCODING 8377
SWIDTH 593 0
DWIDTH 19 0
BBX 17 22 1 0
BITMAP
FFFF80
FFFF80
01F800
003C00
001E00
000E00
FFFF80
FFFF80
000E00
000E00
001C00
003C00
FFF800
FFF000
FFF000
007000
003800
003C00
001E00
000E00
000700
000780
ENDCHAR
STARTCHAR uni20BA
ENCODING 8378
SWIDTH 672 0
DWIDTH 22 0
BBX 20 22 1 0
BITMAP
1C0000
1C0000
1C0300
1C1F00
1DF800
1FC000
FC0100
FC0F00
1C7E00
1FF000
7F0000
FC0070
9C00F0
1C00E0
1C00E0
1C01E0
1C01C0
1C03C0
1C0F80
1FFF00
1FFC00
1FF000
ENDCHAR
STARTCHAR uni20BC
ENCODING 8380
SWIDTH 737 0
DWIDTH 24 0
BBX 22 22 1 0
BITMAP
007000
007000
007000
00FC00
07FF00
0FFFC0
1E73E0
3C70F0
787070
707078
F07038
E07038
E07038
E0703C
E0703C
E0703C
E0703C
E0703C
E0703C
E0703C
E0703C
E0703C
ENDCHAR
STARTCHAR uni20BD
ENCODING 8381
SWIDTH 671 0
DWIDTH 21 0
BBX 20 22 1 0
BITMAP
3FFE00
3FFF80
3FFFC0
3801E0
3800E0
3800E0
380070
380070
3800F0
3800E0
3801E0
3803C0
3FFF80
3FFF00
3FE000
380000
380000
FFF800
FFF800
380000
380000
380000
ENDCHAR
STARTCHAR uni2113
ENCODING 8467
SWIDTH 466 0
DWIDTH 15 0
BBX 13 23 1 0
BITMAP
0040
01F0
03B0
0618
0618
0E18
0C30
0C30
0C70
0C60
1CC0
1DC0
1B80
1F00
1E00
3800
7800
F800
B810
3838
1CF0
1FE0
0F80
ENDCHAR
STARTCHAR uni2116
ENCODING 8470
SWIDTH 1193 0
DWIDTH 38 0
BBX 33 23 3 0
BITMAP
0000007C00
F000E0FF00
F000E1C380
F800E18180
FC00E38180
FE00E38180
FE00E18180
EF00E1C380
E780E0FF00
E3C0E07C00
E1C0E00000
E1E0E00000
E0F0E0FF00
E078E0FF00
E038E0FF00
E03CE00000
E01EE00000
E00FE00000
E007E00000
E007E00000
E003E00000
E001E00000
E000E00000
ENDCHAR
STARTCHAR trademark
ENCODING 8482
SWIDTH 880 0
DWIDTH 28 0
BBX 26 13 0 9
BITMAP
FFCE01C0
FFCF01C0
0C0F03C0
0C0D83C0
0C0D86C0
0C0CC6C0
0C0CCEC0
0C0C6CC0
0C0C7CC0
0C0C38C0
0C0C38C0
0C0C30C0
0C0C00C0
ENDCHAR
STARTCHAR uni2126
ENCODING 8486
SWIDTH 892 0
DWIDTH 29 0
BBX 28 23 0 0
BITMAP
00020000
007FE000
01FFF800
03F07C00
07801E00
0F000F00
0E000780
1E000380
1C000380
1C0001C0
1C0001C0
1C0001C0
1C0001C0
1C0001C0
1C000180
0C000380
0E000300
07000700
07000E00
03C01C00
FFE03FF0
FFE03FF0
FFE03FF0
ENDCHAR
STARTCHAR estimated
ENCODING 8494
SWIDTH 809 0
DWIDTH 26 0
BBX 22 19 2 1
BITMAP
00FC00
070300
0C00C0
100020
300030
700038
700038
700038
F0003C
FFFFFC
F00000
F00000
700000
700000
300000
300000
180060
0C0080
03FF00
ENDCHAR
STARTCHAR uni2153
ENCODING 8531
SWIDTH 820 0
DWIDTH 26 0
BBX 24 22 0 0
BITMAP
F80070
F800E0
1800C0
180180
180380
180700
180600
180C00
181C00
1839FE
1831FE
18600C
18E018
01C030
01807C
03000E
070003
0E0003
0C0003
180187
3803FE
7000FC
ENDCHAR
STARTCHAR uni2154
ENCODING 8532
SWIDTH 884 0
DWIDTH 28 0
BBX 27 22 0 0
BITMAP
1F000700
7F800C00
E1C01C00
41C03800
01803000
01806000
0300E000
0601C000
0C018000
18033FE0
30073FE0
7FCE01C0
7FCC0380
00180600
00380F80
007000E0
00600060
00C00060
01C00060
038030E0
03003FC0
0E000F80
ENDCHAR
STARTCHAR oneeighth
ENCODING 8539
SWIDTH 790 0
DWIDTH 25 0
BBX 24 22 0 0
BITMAP
F80070
F800E0
1800C0
180180
180380
180700
180600
180C00
181C78
1839FC
183386
186306
18C306
01C186
0380FC
0301FE
060306
0E0303
1C0703
180307
3003FE
7000FC
ENDCHAR
STARTCHAR threeeighths
ENCODING 8540
SWIDTH 875 0
DWIDTH 28 0
BBX 26 22 1 0
BITMAP
FF001C00
FF003800
06007000
0C006000
1800C000
3E018000
03038000
01870000
01863E00
018C7F00
C39CE380
FF38C180
3C30C180
0060E380
00E07F00
01C07F00
0180C180
030180C0
070180C0
0E01C180
0C00FF80
18003E00
ENDCHAR
STARTCHAR fiveeighths
ENCODING 8541
SWIDTH 906 0
DWIDTH 29 0
BBX 27 22 1 0
BITMAP
7FC00E00
7FC01C00
60003800
60003000
60006000
7F00C000
7F81C000
01C38000
00C31F00
00C63F80
41CE71C0
619C60C0
FF9860C0
1E3071C0
00703F80
00E03F80
00C060C0
0180C060
0380C060
0700E0C0
06007FC0
0C001F00
ENDCHAR
STARTCHAR seveneighths
ENCODING 8542
SWIDTH 814 0
DWIDTH 26 0
BBX 25 22 0 0
BITMAP
FFC03800
FFC07000
C1C0E000
C180C000
01818000
03038000
03070000
06060000
060C7C00
0E18FE00
0C39C700
1C718300
18618300
20C1C700
01C07E00
0380FE00
03018300
06030180
0E030180
1C038300
1801FF00
30007C00
ENDCHAR
STARTCHAR arrowleft
ENCODING 8592
SWIDTH 600 0
DWIDTH 19 0
BBX 14 13 3 2
BITMAP
0F00
0E00
1C00
3800
3800
7FFC
FFFC
7000
3800
1C00
1C00
0E00
0700
ENDCHAR
STARTCHAR arrowup
ENCODING 8593
SWIDTH 600 0
DWIDTH 19 0
BBX 13 14 3 2
BITMAP
0200
0700
0FC0
3FE0
7FF0
E738
C718
8708
0700
0700
0700
0700
0700
0700
ENDCHAR
STARTCHAR arrowright
ENCODING 8594
SWIDTH 600 0
DWIDTH 19 0
BBX 14 13 2 2
BITMAP
01C0
00E0
00E0
0070
0038
FFF8
FFFC
0038
0070
0070
00E0
01C0
0180
ENDCHAR
STARTCHAR arrowdown
ENCODING 8595
SWIDTH 600 0
DWIDTH 19 0
BBX 13 13 4 2
BITMAP
0700
0700
0700
0700
0700
0700
8708
E738
F778
7FF0
1FC0
0F80
0200
ENDCHAR
STARTCHAR arrowboth
ENCODING 8596
SWIDTH 693 0
DWIDTH 22 0
BBX 19 13 2 2
BITMAP
1E1E00
1C0600
380700
700380
700180
FFFFC0
FFFFE0
E001C0
700380
380700
380700
1C0E00
0E1C00
ENDCHAR
STARTCHAR arrowupdn
ENCODING 8597
SWIDTH 600 0
DWIDTH 19 0
BBX 13 19 3 2
BITMAP
0200
0780
1FC0
3FE0
FF78
E738
8708
0700
0700
0700
0700
0700
8708
E738
F778
3FF0
1FC0
0F80
0200
ENDCHAR
STARTCHAR uni2196
ENCODING 8598
SWIDTH 600 0
DWIDTH 19 0
BBX 11 11 4 4
BITMAP
07C0
7FE0
7E00
7800
7C00
EE00
E700
C380
C1C0
C0E0
4060
ENDCHAR
STARTCHAR uni2197
ENCODING 8599
SWIDTH 600 0
DWIDTH 19 0
BBX 12 12 4 3
BITMAP
3800
7FC0
1FE0
01E0
03E0
0760
0E60
1C70
3870
F020
6020
4000
ENDCHAR
STARTCHAR uni2198
ENCODING 8600
SWIDTH 600 0
DWIDTH 19 0
BBX 12 12 4 3
BITMAP
4000
6020
F020
7870
3C70
1E60
0F60
07E0
03E0
0FE0
7FC0
3C00
ENDCHAR
STARTCHAR uni2199
ENCODING 8601
SWIDTH 600 0
DWIDTH 19 0
BBX 11 12 4 3
BITMAP
0040
4060
C0E0
C1C0
E380
E700
EE00
7C00
7800
7F80
7FE0
0180
ENDCHAR
STARTCHAR partialdiff
ENCODING 8706
SWIDTH 606 0
DWIDTH 19 0
BBX 17 23 1 0
BITMAP
010000
1FF000
7FF800
783C00
201E00
000E00
000700
000700
000300
0FE380
3FF380
7C3B80
700F80
F00780
E00780
E00780
E00700
E00700
700F00
781E00
3FFC00
1FF800
0FE000
ENDCHAR
STARTCHAR emptyset
ENCODING 8709
SWIDTH 487 0
DWIDTH 16 0
BBX 15 14 0 3
BITMAP
07C6
0FFC
1C78
383C
306C
70CC
618E
630C
360C
3C1C
1C38
7FF0
E7E0
4000
ENDCHAR
STARTCHAR uni2206
ENCODING 8710
SWIDTH 675 0
DWIDTH 22 0
BBX 22 22 0 0
BITMAP
007800
00F800
00FC00
01DC00
01DE00
01CE00
038F00
038700
070700
070380
0E0380
0E01C0
1C01C0
1C01E0
3C00E0
3800F0
380070
700078
700038
FFFFF8
FFFFFC
FFFFFC
ENDCHAR
STARTCHAR product
ENCODING 8719
SWIDTH 753 0
DWIDTH 24 0
BBX 18 30 3 -6
BITMAP
FFFFC0
FFFFC0
FFFFC0
E001C0
E001C0
E001C0
E001C0
E001C0
E001C0
E001C0
E001C0
E001C0
E001C0
E001C0
E001C0
E001C0
E001C0
E001C0
E001C0
E001C0
E001C0
E001C0
E001C0
E001C0
E001C0
E001C0
E001C0
E001C0
E001C0
E001C0
ENDCHAR
STARTCHAR summation
ENCODING 8721
SWIDTH 609 0
DWIDTH 19 0
BBX 18 28 1 -4
BITMAP
FFFFC0
FFFFC0
FFFFC0
700000
380000
1C0000
1E0000
0F0000
070000
038000
01C000
00E000
00F000
007800
003800
007000
00E000
01C000
03C000
078000
070000
0E0000
1C0000
3C0000
780000
F00000
FFFFC0
FFFFC0
ENDCHAR
STARTCHAR minus
ENCODING 8722
SWIDTH 494 0
DWIDTH 16 0
BBX 14 2 1 9
BITMAP
FFFC
FFFC
ENDCHAR
STARTCHAR uni2215
ENCODING 8725
SWIDTH 323 0
DWIDTH 10 0
BBX 12 30 0 -4
BITMAP
0070
0070
0060
00E0
00E0
00C0
01C0
01C0
0180
0380
0380
0300
0700
0700
0600
0E00
0E00
0C00
1C00
1C00
1800
3800
3800
3000
7000
7000
6000
E000
E000
C000
ENDCHAR
STARTCHAR uni2219
ENCODING 8729
SWIDTH 262 0
DWIDTH 8 0
BBX 5 5 2 6
BITMAP
F0
F8
F8
F8
F0
ENDCHAR
STARTCHAR radical
ENCODING 8730
SWIDTH 682 0
DWIDTH 22 0
BBX 22 29 0 -5
BITMAP
00003C
000038
000038
000030
000070
000070
000070
0000E0
0000E0
0000E0
0001C0
FC01C0
FE01C0
FE0180
060380
070380
070300
030700
038700
038700
018E00
01CE00
01CE00
00CC00
00FC00
00FC00
007800
007800
007800
ENDCHAR
STARTCHAR infinity
ENCODING 8734
SWIDTH 883 0
DWIDTH 28 0
BBX 26 13 1 3
BITMAP
0F807C00
3FE0FF00
78F1C780
60330180
E01F01C0
C00E00C0
C00C00C0
C01E00C0
603F01C0
70738380
3FE1FF80
1FC0FE00
02001800
ENDCHAR
STARTCHAR integral
ENCODING 8747
SWIDTH 325 0
DWIDTH 10 0
BBX 10 31 0 -4
BITMAP
01C0
07C0
0FC0
0E00
0C00
0C00
0C00
0C00
0C00
0C00
0C00
0C00
0C00
0C00
0C00
0C00
0C00
0E00
0E00
0E00
0E00
0E00
0E00
0E00
0E00
0E00
0E00
0C00
9C00
FC00
F800
ENDCHAR
STARTCHAR approxequal
ENCODING 8776
SWIDTH 494 0
DWIDTH 16 0
BBX 12 11 2 5
BITMAP
7870
7E60
E7E0
C3E0
0000
0000
0000
7870
7E60
E7E0
C1C0
ENDCHAR
STARTCHAR notequal
ENCODING 8800
SWIDTH 494 0
DWIDTH 16 0
BBX 14 18 1 1
BITMAP
00E0
00C0
01C0
01C0
FFFC
FFFC
0380
0300
0300
0700
0600
FFFC
FFFC
0C00
0C00
1C00
1800
1800
ENDCHAR
STARTCHAR lessequal
ENCODING 8804
SWIDTH 494 0
DWIDTH 16 0
BBX 14 19 1 1
BITMAP
0004
001C
007C
01F0
0FC0
3E00
F800
C000
F000
7E00
0F80
03F0
00FC
001C
0004
0000
0000
FFFC
FFFC
ENDCHAR
STARTCHAR greaterequal
ENCODING 8805
SWIDTH 494 0
DWIDTH 16 0
BBX 14 19 1 1
BITMAP
8000
E000
F800
3F00
07C0
01F0
007C
001C
007C
01F0
0FC0
3E00
F800
E000
8000
0000
0000
FFFC
FFFC
ENDCHAR
STARTCHAR filledbox
ENCODING 9632
SWIDTH 600 0
DWIDTH 19 0
BBX 13 13 3 2
BITMAP
FFF8
FFF8
FFF8
FFF8
FFF8
FFF8
FFF8
FFF8
FFF8
FFF8
FFF8
FFF8
FFF8
ENDCHAR
STARTCHAR uni25A1
ENCODING 9633
SWIDTH 600 0
DWIDTH 19 0
BBX 13 13 3 2
BITMAP
FFF8
FFF8
C018
C018
C018
C018
C018
C018
C018
C018
C018
FFF8
FFF8
ENDCHAR
STARTCHAR triagup
ENCODING 9650
SWIDTH 600 0
DWIDTH 19 0
BBX 13 13 3 2
BITMAP
0200
0300
0700
0780
0F80
0FC0
1FC0
1FE0
3FE0
3FF0
7FF0
7FF8
FFF8
ENDCHAR
STARTCHAR uni25B3
ENCODING 9651
SWIDTH 600 0
DWIDTH 19 0
BBX 13 13 3 2
BITMAP
0200
0300
0700
0780
0D80
0DC0
18C0
18E0
3060
3070
6030
7FF8
FFF8
ENDCHAR
STARTCHAR uni25B6
ENCODING 9654
SWIDTH 600 0
DWIDTH 19 0
BBX 13 13 4 2
BITMAP
8000
E000
F800
FE00
FF80
FFE0
FFF8
FFE0
FF80
FE00
F800
E000
8000
ENDCHAR
STARTCHAR uni25B7
ENCODING 9655
SWIDTH 600 0
DWIDTH 19 0
BBX 13 13 4 2
BITMAP
8000
E000
F800
DE00
C780
C1E0
C078
C1E0
C780
DE00
F800
E000
8000
ENDCHAR
STARTCHAR triagdn
ENCODING 9660
SWIDTH 600 0
DWIDTH 19 0
BBX 13 13 3 2
BITMAP
FFF8
7FF8
7FF0
3FF0
3FE0
1FE0
1FC0
0FC0
0F80
0780
0700
0300
0200
ENDCHAR
STARTCHAR uni25BD
ENCODING 9661
SWIDTH 600 0
DWIDTH 19 0
BBX 13 13 3 2
BITMAP
FFF8
7FF8
6030
3070
3060
18E0
18C0
0DC0
0D80
0780
0700
0300
0200
ENDCHAR
STARTCHAR uni25C0
ENCODING 9664
SWIDTH 600 0
DWIDTH 19 0
BBX 13 13 2 2
BITMAP
0008
0038
00F8
03F8
0FF8
3FF8
FFF8
3FF8
0FF8
03F8
00F8
0038
0008
ENDCHAR
STARTCHAR uni25C1
ENCODING 9665
SWIDTH 600 0
DWIDTH 19 0
BBX 13 13 2 2
BITMAP
0008
0038
00F8
03D8
0F18
3C18
F018
3C18
0F18
03D8
00F8
0038
0008
ENDCHAR
STARTCHAR uni25C6
ENCODING 9670
SWIDTH 600 0
DWIDTH 19 0
BBX 17 17 1 0
BITMAP
008000
01C000
03E000
07F000
0FF800
1FFC00
3FFE00
7FFF00
FFFF80
7FFF00
3FFE00
1FFC00
0FF800
07F000
03E000
01C000
008000
ENDCHAR
STARTCHAR uni25C7
ENCODING 9671
SWIDTH 600 0
DWIDTH 19 0
BBX 17 17 1 0
BITMAP
008000
01C000
03E000
077000
0E3800
1C1C00
380E00
700700
E00380
700300
380600
1C0C00
0E1800
073000
03E000
01C000
008000
ENDCHAR
STARTCHAR lozenge
ENCODING 9674
SWIDTH 528 0
DWIDTH 17 0
BBX 15 21 1 0
BITMAP
0100
0380
0380
07C0
0EE0
0CE0
1C70
3838
3038
701C
E00E
701C
3038
3838
1C70
0EE0
0EE0
07C0
0380
0380
0100
ENDCHAR
STARTCHAR uniA78B
ENCODING 42891
SWIDTH 255 0
DWIDTH 8 0
BBX 3 13 3 9
BITMAP
E0
E0
E0
E0
C0
C0
C0
C0
C0
C0
C0
C0
C0
ENDCHAR
STARTCHAR uniA78C
ENCODING 42892
SWIDTH 253 0
DWIDTH 8 0
BBX 3 11 3 10
BITMAP
E0
C0
C0
C0
C0
C0
C0
C0
C0
C0
C0
ENDCHAR
STARTCHAR fi
ENCODING 64257
SWIDTH 616 0
DWIDTH 20 0
BBX 16 24 1 0
BITMAP
03C7
0FE7
1FEF
1C07
1C00
3800
3800
FFC7
FFC7
FFC7
3807
3807
3807
3807
3807
3807
3807
3807
3807
3807
3807
3807
3807
3807
ENDCHAR
STARTCHAR fl
ENCODING 64258
SWIDTH 638 0
DWIDTH 20 0
BBX 16 24 1 0
BITMAP
03C7
0FE7
1FE7
1C07
1C07
3807
3807
FFC7
FFC7
FFC7
3807
3807
3807
3807
3807
3807
3807
3807
3807
3807
3807
3807
3807
3807
ENDCHAR
STARTCHAR .notdef
ENCODING -1
SWIDTH 587 0
DWIDTH 19 0
BBX 17 22 1 0
BITMAP
FFFF80
FFFF80
E00380
E00380
E00380
E00380
E00380
E00380
E00380
E00380
E00380
E00380
E00380
E00380
E00380
E00380
E00380
E00380
E00380
E00380
FFFF80
FFFF80
ENDCHAR
STARTCHAR .null
ENCODING -1
SWIDTH 0 0
DWIDTH 0 0
BBX 1 1 0 0
BITMAP
00
ENDCHAR
STARTCHAR A.ss01
ENCODING -1
SWIDTH 765 0
DWIDTH 24 0
BBX 19 22 3 0
BITMAP
03F800
1FFE00
3FFF00
7C0780
7003C0
F001C0
E001C0
E000E0
E000E0
E000E0
E000E0
E000E0
E000E0
FFFFE0
FFFFE0
FFFFE0
E000E0
E000E0
E000E0
E000E0
E000E0
E000E0
ENDCHAR
STARTCHAR Aacute.ss01
ENCODING -1
SWIDTH 765 0
DWIDTH 24 0
BBX 19 29 3 0
BITMAP
001000
003C00
007800
00F000
004000
000000
000000
03F800
1FFE00
3FFF00
7C0780
7003C0
F001C0
E001C0
E000E0
E000E0
E000E0
E000E0
E000E0
E000E0
FFFFE0
FFFFE0
FFFFE0
E000E0
E000E0
E000E0
E000E0
E000E0
E000E0
ENDCHAR
STARTCHAR Abreve.ss01
ENCODING -1
SWIDTH 765 0
DWIDTH 24 0
BBX 19 29 3 0
BITMAP
061800
061800
07F800
03F000
01E000
000000
000000
03F800
1FFE00
3FFF00
7C0780
7003C0
F001C0
E001C0
E000E0
E000E0
E000E0
E000E0
E000E0
E000E0
FFFFE0
FFFFE0
FFFFE0
E000E0
E000E0
E000E0
E000E0
E000E0
E000E0
ENDCHAR
STARTCHAR uni1EAE.ss01
ENCODING -1
SWIDTH 765 0
DWIDTH 24 0
BBX 19 32 3 0
BITMAP
003800
007C00
01E000
004000
061800
07F800
03F800
01E000
000000
000000
03F800
1FFE00
3FFF00
7C0780
7003C0
F001C0
E001C0
E000E0
E000E0
E000E0
E000E0
E000E0
E000E0
FFFFE0
FFFFE0
FFFFE0
E000E0
E000E0
E000E0
E000E0
E000E0
E000E0
ENDCHAR
STARTCHAR uni1EB6.ss01
ENCODING -1
SWIDTH 765 0
DWIDTH 24 0
BBX 19 35 3 -6
BITMAP
061800
061800
07F800
03F000
01E000
000000
000000
03F800
1FFE00
3FFF00
7C0780
7003C0
F001C0
E001C0
E000E0
E000E0
E000E0
E000E0
E000E0
E000E0
FFFFE0
FFFFE0
FFFFE0
E000E0
E000E0
E000E0
E000E0
E000E0
E000E0
000000
000000
00C000
01E000
01E000
00C000
ENDCHAR
STARTCHAR uni1EB0.ss01
ENCODING -1
SWIDTH 765 0
DWIDTH 24 0
BBX 19 32 3 0
BITMAP
030000
07C000
01E000
004000
061C00
07F800
03F800
01F000
000000
000000
03F800
1FFE00
3FFF00
7C0780
7003C0
F001C0
E001C0
E000E0
E000E0
E000E0
E000E0
E000E0
E000E0
FFFFE0
FFFFE0
FFFFE0
E000E0
E000E0
E000E0
E000E0
E000E0
E000E0
ENDCHAR
STARTCHAR uni1EB2.ss01
ENCODING -1
SWIDTH 765 0
DWIDTH 24 0
BBX 19 33 3 0
BITMAP
03E000
01F000
006000
00E000
004000
061C00
07F800
03F800
01E000
000000
000000
03F800
1FFE00
3FFF00
7C0780
7003C0
F001C0
E001C0
E000E0
E000E0
E000E0
E000E0
E000E0
E000E0
FFFFE0
FFFFE0
FFFFE0
E000E0
E000E0
E000E0
E000E0
E000E0
E000E0
ENDCHAR
STARTCHAR uni1EB4.ss01
ENCODING -1
SWIDTH 765 0
DWIDTH 24 0
BBX 19 32 3 0
BITMAP
078C00
07CC00
0FFC00
0C3800
061C00
07F800
03F800
01E000
000000
000000
03F800
1FFE00
3FFF00
7C0780
7003C0
F001C0
E001C0
E000E0
E000E0
E000E0
E000E0
E000E0
E000E0
FFFFE0
FFFFE0
FFFFE0
E000E0
E000E0
E000E0
E000E0
E000E0
E000E0
ENDCHAR
STARTCHAR Acircumflex.ss01
ENCODING -1
SWIDTH 765 0
DWIDTH 24 0
BBX 19 30 3 0
BITMAP
00E000
01F000
03F000
07B800
0F1C00
000000
000000
000000
03F800
1FFE00
3FFF00
7C0780
7003C0
F001C0
E001C0
E000E0
E000E0
E000E0
E000E0
E000E0
E000E0
FFFFE0
FFFFE0
FFFFE0
E000E0
E000E0
E000E0
E000E0
E000E0
E000E0
ENDCHAR
STARTCHAR uni1EA4.ss01
ENCODING -1
SWIDTH 765 0
DWIDTH 24 0
BBX 19 32 3 0
BITMAP
003800
007C00
01F000
004000
000000
01F000
07B800
0F1E00
000000
000000
03F800
1FFE00
3FFF00
7C0780
7003C0
F001C0
E001C0
E000E0
E000E0
E000E0
E000E0
E000E0
E000E0
FFFFE0
FFFFE0
FFFFE0
E000E0
E000E0
E000E0
E000E0
E000E0
E000E0
ENDCHAR
STARTCHAR uni1EAC.ss01
ENCODING -1
SWIDTH 765 0
DWIDTH 24 0
BBX 19 36 3 -6
BITMAP
00E000
01F000
03F000
07B800
0F1C00
000000
000000
000000
03F800
1FFE00
3FFF00
7C0780
7003C0
F001C0
E001C0
E000E0
E000E0
E000E0
E000E0
E000E0
E000E0
FFFFE0
FFFFE0
FFFFE0
E000E0
E000E0
E000E0
E000E0
E000E0
E000E0
000000
000000
00C000
01E000
01E000
00C000
ENDCHAR
STARTCHAR uni1EA6.ss01
ENCODING -1
SWIDTH 765 0
DWIDTH 24 0
BBX 19 32 3 0
BITMAP
030000
0F8000
01E000
004000
000000
01F000
07B800
0F1E00
000000
000000
03F800
1FFE00
3FFF00
7C0780
7003C0
F001C0
E001C0
E000E0
E000E0
E000E0
E000E0
E000E0
E000E0
FFFFE0
FFFFE0
FFFFE0
E000E0
E000E0
E000E0
E000E0
E000E0
E000E0
ENDCHAR
STARTCHAR uni1EA8.ss01
ENCODING -1
SWIDTH 765 0
DWIDTH 24 0
BBX 19 33 3 0
BITMAP
01F000
00F000
003000
006000
00C000
000000
01F000
03B800
0F1E00
000000
000000
03F800
1FFE00
3FFF00
7C0780
7003C0
F001C0
E001C0
E000E0
E000E0
E000E0
E000E0
E000E0
E000E0
FFFFE0
FFFFE0
FFFFE0
E000E0
E000E0
E000E0
E000E0
E000E0
E000E0
ENDCHAR
STARTCHAR uni1EAA.ss01
ENCODING -1
SWIDTH 765 0
DWIDTH 24 0
BBX 19 31 3 0
BITMAP
038C00
07CC00
07FC00
0C3800
01F000
07B800
0F1E00
000000
000000
03F800
1FFE00
3FFF00
7C0780
7003C0
F001C0
E001C0
E000E0
E000E0
E000E0
E000E0
E000E0
E000E0
FFFFE0
FFFFE0
FFFFE0
E000E0
E000E0
E000E0
E000E0
E000E0
E000E0
ENDCHAR
STARTCHAR uni0200.ss01
ENCODING -1
SWIDTH 765 0
DWIDTH 24 0
BBX 19 29 3 0
BITMAP
0C6000
1CE000
0E7000
073800
021000
000000
000000
03F800
1FFE00
3FFF00
7C0780
7003C0
F001C0
E001C0
E000E0
E000E0
E000E0
E000E0
E000E0
E000E0
FFFFE0
FFFFE0
FFFFE0
E000E0
E000E0
E000E0
E000E0
E000E0
E000E0
ENDCHAR
STARTCHAR Adieresis.alt
ENCODING -1
SWIDTH 726 0
DWIDTH 23 0
BBX 23 23 0 0
BITMAP
040040
0E3CE0
0E7CF0
0E7E60
00EE00
00EE00
01C700
01C700
01C380
038380
0383C0
0701C0
0701E0
0E00E0
0E00E0
1FFFF0
1FFFF0
1FFFF8
380038
38003C
70001C
70001E
F0000E
ENDCHAR
STARTCHAR Adieresis.ss01
ENCODING -1
SWIDTH 765 0
DWIDTH 24 0
BBX 19 27 3 0
BITMAP
071800
073C00
071800
000000
000000
03F800
1FFE00
3FFF00
7C0780
7003C0
F001C0
E001C0
E000E0
E000E0
E000E0
E000E0
E000E0
E000E0
FFFFE0
FFFFE0
FFFFE0
E000E0
E000E0
E000E0
E000E0
E000E0
E000E0
ENDCHAR
STARTCHAR uni1EA0.ss01
ENCODING -1
SWIDTH 765 0
DWIDTH 24 0
BBX 19 28 3 -6
BITMAP
03F800
1FFE00
3FFF00
7C0780
7003C0
F001C0
E001C0
E000E0
E000E0
E000E0
E000E0
E000E0
E000E0
FFFFE0
FFFFE0
FFFFE0
E000E0
E000E0
E000E0
E000E0
E000E0
E000E0
000000
000000
00C000
01E000
01E000
00C000
ENDCHAR
STARTCHAR Agrave.ss01
ENCODING -1
SWIDTH 765 0
DWIDTH 24 0
BBX 19 29 3 0
BITMAP
010000
0F0000
038000
01C000
00A000
000000
000000
03F800
1FFE00
3FFF00
7C0780
7003C0
F001C0
E001C0
E000E0
E000E0
E000E0
E000E0
E000E0
E000E0
FFFFE0
FFFFE0
FFFFE0
E000E0
E000E0
E000E0
E000E0
E000E0
E000E0
ENDCHAR
STARTCHAR uni1EA2.ss01
ENCODING -1
SWIDTH 765 0
DWIDTH 24 0
BBX 19 31 3 0
BITMAP
00C000
03F000
01F000
007000
007000
006000
00E000
000000
000000
03F800
1FFE00
3FFF00
7C0780
7003C0
F001C0
E001C0
E000E0
E000E0
E000E0
E000E0
E000E0
E000E0
FFFFE0
FFFFE0
FFFFE0
E000E0
E000E0
E000E0
E000E0
E000E0
E000E0
ENDCHAR
STARTCHAR uni0202.ss01
ENCODING -1
SWIDTH 765 0
DWIDTH 24 0
BBX 19 30 3 0
BITMAP
004000
03F000
03F800
071800
061800
000000
000000
000000
03F800
1FFE00
3FFF00
7C0780
7003C0
F001C0
E001C0
E000E0
E000E0
E000E0
E000E0
E000E0
E000E0
FFFFE0
FFFFE0
FFFFE0
E000E0
E000E0
E000E0
E000E0
E000E0
E000E0
ENDCHAR
STARTCHAR Amacron.ss01
ENCODING -1
SWIDTH 765 0
DWIDTH 24 0
BBX 19 28 3 0
BITMAP
0FFC00
0FFC00
0FFC00
000000
000000
000000
03F800
1FFE00
3FFF00
7C0780
7003C0
F001C0
E001C0
E000E0
E000E0
E000E0
E000E0
E000E0
E000E0
FFFFE0
FFFFE0
FFFFE0
E000E0
E000E0
E000E0
E000E0
E000E0
E000E0
ENDCHAR
STARTCHAR Aogonek.ss01
ENCODING -1
SWIDTH 765 0
DWIDTH 24 0
BBX 19 29 3 -7
BITMAP
03F800
1FFE00
3FFF00
7C0780
7003C0
F001C0
E001C0
E000E0
E000E0
E000E0
E000E0
E000E0
E000E0
FFFFE0
FFFFE0
FFFFE0
E000E0
E000E0
E000E0
E000E0
E000E0
E000E0
0001C0
000380
000700
000700
0007C0
0007C0
0003E0
ENDCHAR
STARTCHAR Aring.ss01
ENCODING -1
SWIDTH 765 0
DWIDTH 24 0
BBX 19 31 3 0
BITMAP
00E000
01F000
031000
021800
031000
03F000
01E000
000000
000000
03F800
1FFE00
3FFF00
7C0780
7003C0
F001C0
E001C0
E000E0
E000E0
E000E0
E000E0
E000E0
E000E0
FFFFE0
FFFFE0
FFFFE0
E000E0
E000E0
E000E0
E000E0
E000E0
E000E0
ENDCHAR
STARTCHAR Aringacute.ss01
ENCODING -1
SWIDTH 765 0
DWIDTH 24 0
BBX 19 35 3 0
BITMAP
003800
007C00
01F000
004000
00E000
01F000
031000
021800
031000
03F000
01E000
000000
000000
03F800
1FFE00
3FFF00
7C0780
7003C0
F001C0
E001C0
E000E0
E000E0
E000E0
E000E0
E000E0
E000E0
FFFFE0
FFFFE0
FFFFE0
E000E0
E000E0
E000E0
E000E0
E000E0
E000E0
ENDCHAR
STARTCHAR Atilde.ss01
ENCODING -1
SWIDTH 765 0
DWIDTH 24 0
BBX 19 28 3 0
BITMAP
078C00
07FC00
0FFC00
0C3800
000000
000000
03F800
1FFE00
3FFF00
7C0780
7003C0
F001C0
E001C0
E000E0
E000E0
E000E0
E000E0
E000E0
E000E0
FFFFE0
FFFFE0
FFFFE0
E000E0
E000E0
E000E0
E000E0
E000E0
E000E0
ENDCHAR
STARTCHAR uni01C4.ss01
ENCODING -1
SWIDTH 1445 0
DWIDTH 46 0
BBX 42 30 3 0
BITMAP
0000001C3800
0000000E7000
00000007F000
00000007E000
00000003C000
000000000000
000000000000
000000000000
FFF800FFFFC0
FFFE00FFFFC0
FFFF80FFFF80
E007C0000780
E001E0000F00
E000E0001E00
E000F0003C00
E00070007800
E00078007000
E000383FFE00
E000383FFE00
E000383FFE00
E00038078000
E000780F0000
E000700E0000
E000701E0000
E000E03C0000
E001E0780000
E007C0700000
FFFF80FFFFC0
FFFE01FFFFC0
FFF801FFFFC0
ENDCHAR
STARTCHAR uni01C5.ss01
ENCODING -1
SWIDTH 1314 0
DWIDTH 42 0
BBX 38 25 3 0
BITMAP
0000003870
0000001CE0
0000001FC0
FFF8000F80
FFFE000780
FFFF800000
E007C00000
E001E00000
E000E0FFF8
E000F0FFF8
E00070FFF8
E000780070
E0003800E0
E0003801E0
E0003803C0
E000387FF0
E000787FF0
E000707FF0
E000701E00
E000E03C00
E001E03800
E007C07000
FFFF80FFFC
FFFE00FFFC
FFF800FFFC
ENDCHAR
STARTCHAR E.ss01
ENCODING -1
SWIDTH 581 0
DWIDTH 19 0
BBX 17 22 1 0
BITMAP
03FC00
0FFF00
1FFF00
3C0100
380000
380000
380000
380000
1E0000
0FFC00
07FC00
1FFC00
3C0000
700000
700000
F00000
F00000
700000
7C0300
3FFF80
1FFF80
07FC00
ENDCHAR
STARTCHAR Eacute.ss01
ENCODING -1
SWIDTH 581 0
DWIDTH 19 0
BBX 17 29 1 0
BITMAP
001000
003C00
007800
00F000
004000
000000
000000
03FC00
0FFF00
1FFF00
3C0100
380000
380000
380000
380000
1E0000
0FFC00
07FC00
1FFC00
3C0000
700000
700000
F00000
F00000
700000
7C0300
3FFF80
1FFF80
07FC00
ENDCHAR
STARTCHAR Ebreve.ss01
ENCODING -1
SWIDTH 581 0
DWIDTH 19 0
BBX 17 29 1 0
BITMAP
060C00
071C00
03F800
03F800
01F000
000000
000000
03FC00
0FFF00
1FFF00
3C0100
380000
380000
380000
380000
1E0000
0FFC00
07FC00
1FFC00
3C0000
700000
700000
F00000
F00000
700000
7C0300
3FFF80
1FFF80
07FC00
ENDCHAR
STARTCHAR Ecaron.ss01
ENCODING -1
SWIDTH 581 0
DWIDTH 19 0
BBX 17 30 1 0
BITMAP
0E1C00
073800
077000
03E000
01E000
000000
000000
000000
03FC00
0FFF00
1FFF00
3C0100
380000
380000
380000
380000
1E0000
0FFC00
07FC00
1FFC00
3C0000
700000
700000
F00000
F00000
700000
7C0300
3FFF80
1FFF80
07FC00
ENDCHAR
STARTCHAR uni1E1C.ss01
ENCODING -1
SWIDTH 581 0
DWIDTH 19 0
BBX 17 36 1 -7
BITMAP
061800
063800
07F000
03F000
008000
000000
000000
03FC00
0FFF00
1FFF00
3C0100
380000
380000
380000
380000
1E0000
0FFC00
07FC00
1FFC00
3C0000
700000
700000
F00000
F00000
700000
7C0300
3FFF80
1FFF80
07FC00
00C000
00C000
00F000
003800
01F800
03F000
01E000
ENDCHAR
STARTCHAR Ecircumflex.ss01
ENCODING -1
SWIDTH 581 0
DWIDTH 19 0
BBX 17 30 1 0
BITMAP
00E000
01F000
03F800
03B800
071C00
080000
000000
000000
03FC00
0FFF00
1FFF00
3C0100
380000
380000
380000
380000
1E0000
0FFC00
07FC00
1FFC00
3C0000
700000
700000
F00000
F00000
700000
7C0300
3FFF80
1FFF80
07FC00
ENDCHAR
STARTCHAR uni1EBE.ss01
ENCODING -1
SWIDTH 581 0
DWIDTH 19 0
BBX 17 32 1 0
BITMAP
003800
007C00
01F000
004000
000000
01F000
03B800
0F1E00
000000
000000
03FC00
0FFF00
1FFF00
3C0100
380000
380000
380000
380000
1E0000
0FFC00
07FC00
1FFC00
3C0000
700000
700000
F00000
F00000
700000
7C0300
3FFF80
1FFF80
07FC00
ENDCHAR
STARTCHAR uni1EC6.ss01
ENCODING -1
SWIDTH 581 0
DWIDTH 19 0
BBX 17 36 1 -6
BITMAP
00E000
01F000
03F000
07B800
0F1C00
000000
000000
000000
03FC00
0FFF00
1FFF00
3C0100
380000
380000
380000
380000
1E0000
0FFC00
07FC00
1FFC00
3C0000
700000
700000
F00000
F00000
700000
7C0300
3FFF80
1FFF80
07FC00
000000
000000
00E000
01E000
01E000
00E000
ENDCHAR
STARTCHAR uni1EC0.ss01
ENCODING -1
SWIDTH 581 0
DWIDTH 19 0
BBX 17 32 1 0
BITMAP
030000
07C000
01E000
004000
000000
01F000
03B800
0F1E00
000000
000000
03FC00
0FFF00
1FFF00
3C0100
380000
380000
380000
380000
1E0000
0FFC00
07FC00
1FFC00
3C0000
700000
700000
F00000
F00000
700000
7C0300
3FFF80
1FFF80
07FC00
ENDCHAR
STARTCHAR uni1EC2.ss01
ENCODING -1
SWIDTH 581 0
DWIDTH 19 0
BBX 17 33 1 0
BITMAP
01F000
00F000
003000
007000
002000
000000
01F800
03FC00
0F0E00
000000
000000
03FC00
0FFF00
1FFF00
3C0100
380000
380000
380000
380000
1E0000
0FFC00
07FC00
1FFC00
3C0000
700000
700000
F00000
F00000
700000
7C0300
3FFF80
1FFF80
07FC00
ENDCHAR
STARTCHAR uni1EC4.ss01
ENCODING -1
SWIDTH 581 0
DWIDTH 19 0
BBX 17 31 1 0
BITMAP
038400
07CC00
07FC00
043800
01F000
03B800
0F1E00
000000
000000
03FC00
0FFF00
1FFF00
3C0100
380000
380000
380000
380000
1E0000
0FFC00
07FC00
1FFC00
3C0000
700000
700000
F00000
F00000
700000
7C0300
3FFF80
1FFF80
07FC00
ENDCHAR
STARTCHAR uni0204.ss01
ENCODING -1
SWIDTH 581 0
DWIDTH 19 0
BBX 17 29 1 0
BITMAP
042000
1EF000
0E7000
073800
021000
000000
000000
03FC00
0FFF00
1FFF00
3C0100
380000
380000
380000
380000
1E0000
0FFC00
07FC00
1FFC00
3C0000
700000
700000
F00000
F00000
700000
7C0300
3FFF80
1FFF80
07FC00
ENDCHAR
STARTCHAR Edieresis.ss01
ENCODING -1
SWIDTH 581 0
DWIDTH 19 0
BBX 17 27 1 0
BITMAP
071800
071C00
071800
000000
000000
03FC00
0FFF00
1FFF00
3C0100
380000
380000
380000
380000
1E0000
0FFC00
07FC00
1FFC00
3C0000
700000
700000
F00000
F00000
700000
7C0300
3FFF80
1FFF80
07FC00
ENDCHAR
STARTCHAR Edotaccent.ss01
ENCODING -1
SWIDTH 581 0
DWIDTH 19 0
BBX 17 28 1 0
BITMAP
00E000
00E000
00E000
00E000
000000
000000
03FC00
0FFF00
1FFF00
3C0100
380000
380000
380000
380000
1E0000
0FFC00
07FC00
1FFC00
3C0000
700000
700000
F00000
F00000
700000
7C0300
3FFF80
1FFF80
07FC00
ENDCHAR
STARTCHAR uni1EB8.ss01
ENCODING -1
SWIDTH 581 0
DWIDTH 19 0
BBX 17 28 1 -6
BITMAP
03FC00
0FFF00
1FFF00
3C0100
380000
380000
380000
380000
1E0000
0FFC00
07FC00
1FFC00
3C0000
700000
700000
F00000
F00000
700000
7C0300
3FFF80
1FFF80
07FC00
000000
000000
00E000
01E000
01E000
00E000
ENDCHAR
STARTCHAR Egrave.ss01
ENCODING -1
SWIDTH 581 0
DWIDTH 19 0
BBX 17 29 1 0
BITMAP
010000
0F8000
03C000
01C000
00A000
000000
000000
03FC00
0FFF00
1FFF00
3C0100
380000
380000
380000
380000
1E0000
0FFC00
07FC00
1FFC00
3C0000
700000
700000
F00000
F00000
700000
7C0300
3FFF80
1FFF80
07FC00
ENDCHAR
STARTCHAR uni1EBA.ss01
ENCODING -1
SWIDTH 581 0
DWIDTH 19 0
BBX 17 31 1 0
BITMAP
004000
03F000
01F000
003000
003000
007000
00E000
000000
000000
03FC00
0FFF00
1FFF00
3C0100
380000
380000
380000
380000
1E0000
0FFC00
07FC00
1FFC00
3C0000
700000
700000
F00000
F00000
700000
7C0300
3FFF80
1FFF80
07FC00
ENDCHAR
STARTCHAR uni0206.ss01
ENCODING -1
SWIDTH 581 0
DWIDTH 19 0
BBX 17 30 1 0
BITMAP
004000
01F000
03F800
071800
060C00
000000
000000
000000
03FC00
0FFF00
1FFF00
3C0100
380000
380000
380000
380000
1E0000
0FFC00
07FC00
1FFC00
3C0000
700000
700000
F00000
F00000
700000
7C0300
3FFF80
1FFF80
07FC00
ENDCHAR
STARTCHAR Emacron.ss01
ENCODING -1
SWIDTH 581 0
DWIDTH 19 0
BBX 17 28 1 0
BITMAP
0FFC00
0FFC00
0FFC00
000000
000000
000000
03FC00
0FFF00
1FFF00
3C0100
380000
380000
380000
380000
1E0000
0FFC00
07FC00
1FFC00
3C0000
700000
700000
F00000
F00000
700000
7C0300
3FFF80
1FFF80
07FC00
ENDCHAR
STARTCHAR uni1E16.ss01
ENCODING -1
SWIDTH 581 0
DWIDTH 19 0
BBX 17 32 1 0
BITMAP
003000
007C00
01E000
004000
000000
07F800
07F800
07F800
000000
000000
03FC00
0FFF00
1FFF00
3C0100
380000
380000
380000
380000
1E0000
0FFC00
07FC00
1FFC00
3C0000
700000
700000
F00000
F00000
700000
7C0300
3FFF80
1FFF80
07FC00
ENDCHAR
STARTCHAR uni1E14.ss01
ENCODING -1
SWIDTH 581 0
DWIDTH 19 0
BBX 17 32 1 0
BITMAP
038000
07C000
01F000
004000
000000
03FC00
03FC00
03FC00
000000
000000
03FC00
0FFF00
1FFF00
3C0100
380000
380000
380000
380000
1E0000
0FFC00
07FC00
1FFC00
3C0000
700000
700000
F00000
F00000
700000
7C0300
3FFF80
1FFF80
07FC00
ENDCHAR
STARTCHAR Eogonek.ss01
ENCODING -1
SWIDTH 581 0
DWIDTH 19 0
BBX 17 29 1 -7
BITMAP
03FC00
0FFF00
1FFF00
3C0100
380000
380000
380000
380000
1E0000
0FFC00
07FC00
1FFC00
3C0000
700000
700000
F00000
F00000
700000
7C0300
3FFF80
1FFF80
07FF00
000E00
000C00
001C00
001C00
001F00
001F00
000F80
ENDCHAR
STARTCHAR uni1EBC.ss01
ENCODING -1
SWIDTH 581 0
DWIDTH 19 0
BBX 17 28 1 0
BITMAP
038C00
07FC00
07FC00
0E3800
000000
000000
03FC00
0FFF00
1FFF00
3C0100
380000
380000
380000
380000
1E0000
0FFC00
07FC00
1FFC00
3C0000
700000
700000
F00000
F00000
700000
7C0300
3FFF80
1FFF80
07FC00
ENDCHAR
STARTCHAR F.ss01
ENCODING -1
SWIDTH 523 0
DWIDTH 17 0
BBX 14 22 3 0
BITMAP
0FE0
3FFC
7FF8
F008
E000
E000
E000
E000
E000
E000
FFF0
FFF0
FFF0
E000
E000
E000
E000
E000
E000
E000
E000
E000
ENDCHAR
STARTCHAR G.ss01
ENCODING -1
SWIDTH 752 0
DWIDTH 24 0
BBX 21 22 1 0
BITMAP
00FF00
03FFC0
0FFFF8
1F00F0
3C0020
380000
780000
700000
F00000
E00000
E00000
E00030
E00030
F00030
700030
780030
380030
3C0070
1F00F0
0FFFF0
03FFB0
00FE30
ENDCHAR
STARTCHAR Gbreve.ss01
ENCODING -1
SWIDTH 752 0
DWIDTH 24 0
BBX 21 29 1 0
BITMAP
018600
018600
01FE00
00FC00
007800
000000
000000
00FF00
03FFC0
0FFFF8
1F00F0
3C0020
380000
780000
700000
F00000
E00000
E00000
E00030
E00030
F00030
700030
780030
380030
3C0070
1F00F0
0FFFF0
03FFB0
00FE30
ENDCHAR
STARTCHAR Gcaron.ss01
ENCODING -1
SWIDTH 752 0
DWIDTH 24 0
BBX 21 30 1 0
BITMAP
070E00
039E00
01DC00
00F800
00F000
000000
000000
000000
00FF00
03FFC0
0FFFF8
1F00F0
3C0020
380000
780000
700000
F00000
E00000
E00000
E00030
E00030
F00030
700030
780030
380030
3C0070
1F00F0
0FFFF0
03FFB0
00FE30
ENDCHAR
STARTCHAR Gcircumflex.ss01
ENCODING -1
SWIDTH 752 0
DWIDTH 24 0
BBX 21 30 1 0
BITMAP
007800
007800
00FC00
01CE00
03C700
000000
000000
000000
00FF00
03FFC0
0FFFF8
1F00F0
3C0020
380000
780000
700000
F00000
E00000
E00000
E00030
E00030
F00030
700030
780030
380030
3C0070
1F00F0
0FFFF0
03FFB0
00FE30
ENDCHAR
STARTCHAR Gcommaaccent.ss01
ENCODING -1
SWIDTH 752 0
DWIDTH 24 0
BBX 21 29 1 -7
BITMAP
00FF00
03FFC0
0FFFF8
1F00F0
3C0020
380000
780000
700000
F00000
E00000
E00000
E00030
E00030
F00030
700030
780030
380030
3C0070
1F00F0
0FFFF0
03FFB0
00FE30
000000
000000
003800
007000
007000
006000
006000
ENDCHAR
STARTCHAR Gdotaccent.ss01
ENCODING -1
SWIDTH 752 0
DWIDTH 24 0
BBX 21 28 1 0
BITMAP
003000
007800
007800
003000
000000
000000
00FF00
03FFC0
0FFFF8
1F00F0
3C0020
380000
780000
700000
F00000
E00000
E00000
E00030
E00030
F00030
700030
780030
380030
3C0070
1F00F0
0FFFF0
03FFB0
00FE30
ENDCHAR
STARTCHAR uni1E20.ss01
ENCODING -1
SWIDTH 752 0
DWIDTH 24 0
BBX 21 28 1 0
BITMAP
03FF00
03FF00
03FF00
000000
000000
000000
00FF00
03FFC0
0FFFF8
1F00F0
3C0020
380000
780000
700000
F00000
E00000
E00000
E00030
E00030
F00030
700030
780030
380030
3C0070
1F00F0
0FFFF0
03FFB0
00FE30
ENDCHAR
STARTCHAR I.ss01
ENCODING -1
SWIDTH 476 0
DWIDTH 15 0
BBX 12 22 2 0
BITMAP
FFF0
FFF0
FFF0
0E00
0E00
0E00
0E00
0E00
0E00
0E00
0E00
0E00
0E00
0E00
0E00
0E00
0E00
0E00
0E00
FFF0
FFF0
FFF0
ENDCHAR
STARTCHAR IJ.ss01
ENCODING -1
SWIDTH 966 0
DWIDTH 31 0
BBX 26 25 2 -3
BITMAP
FFF1FFC0
FFF1FFC0
FFF1FFC0
0E0001C0
0E0001C0
0E0001C0
0E0001C0
0E0001C0
0E0001C0
0E0001C0
0E0001C0
0E0001C0
0E0001C0
0E0001C0
0E0001C0
0E0001C0
0E0001C0
0E0001C0
0E0001C0
FFF001C0
FFF201C0
FFF383C0
0007FF80
0001FF00
00007E00
ENDCHAR
STARTCHAR Iacute.ss01
ENCODING -1
SWIDTH 476 0
DWIDTH 15 0
BBX 12 29 2 0
BITMAP
0100
03C0
0780
0700
0E00
0000
0000
FFF0
FFF0
FFF0
0E00
0E00
0E00
0E00
0E00
0E00
0E00
0E00
0E00
0E00
0E00
0E00
0E00
0E00
0E00
0E00
FFF0
FFF0
FFF0
ENDCHAR
STARTCHAR Iacute_J.loclNLD
ENCODING -1
SWIDTH 786 0
DWIDTH 25 0
BBX 19 29 3 0
BITMAP
100100
3E03E0
380380
700700
E00A00
000000
000000
E0FFE0
E0FFE0
E0FFE0
E000E0
E000E0
E000E0
E000E0
E000E0
E000E0
E000E0
E000E0
E000E0
E000E0
E000E0
E000E0
E000E0
E000E0
E080E0
E1C1E0
E3FFC0
E0FF80
E03F00
ENDCHAR
STARTCHAR Iacute_J.loclNLD.ss01
ENCODING -1
SWIDTH 966 0
DWIDTH 31 0
BBX 26 32 2 -3
BITMAP
01000300
03C003C0
07800780
07000E00
0E001400
00000000
00000000
FFF1FFC0
FFF1FFC0
FFF1FFC0
0E0001C0
0E0001C0
0E0001C0
0E0001C0
0E0001C0
0E0001C0
0E0001C0
0E0001C0
0E0001C0
0E0001C0
0E0001C0
0E0001C0
0E0001C0
0E0001C0
0E0001C0
0E0001C0
FFF001C0
FFF201C0
FFF383C0
0007FF80
0001FF00
00007E00
ENDCHAR
STARTCHAR Ibreve.ss01
ENCODING -1
SWIDTH 476 0
DWIDTH 15 0
BBX 12 29 2 0
BITMAP
60C0
71C0
3F80
3F80
0F00
0000
0000
FFF0
FFF0
FFF0
0E00
0E00
0E00
0E00
0E00
0E00
0E00
0E00
0E00
0E00
0E00
0E00
0E00
0E00
0E00
0E00
FFF0
FFF0
FFF0
ENDCHAR
STARTCHAR Icircumflex.ss01
ENCODING -1
SWIDTH 476 0
DWIDTH 15 0
BBX 12 30 2 0
BITMAP
0E00
1F00
1F80
3B80
71E0
0000
0000
0000
FFF0
FFF0
FFF0
0E00
0E00
0E00
0E00
0E00
0E00
0E00
0E00
0E00
0E00
0E00
0E00
0E00
0E00
0E00
0E00
FFF0
FFF0
FFF0
ENDCHAR
STARTCHAR uni0208.ss01
ENCODING -1
SWIDTH 476 0
DWIDTH 15 0
BBX 13 29 1 0
BITMAP
2100
F780
7380
39C0
14A0
0000
0000
7FF8
7FF8
7FF8
0700
0700
0700
0700
0700
0700
0700
0700
0700
0700
0700
0700
0700
0700
0700
0700
7FF8
7FF8
7FF8
ENDCHAR
STARTCHAR Idieresis.ss01
ENCODING -1
SWIDTH 476 0
DWIDTH 15 0
BBX 12 27 2 0
BITMAP
31C0
79C0
31C0
0000
0000
FFF0
FFF0
FFF0
0E00
0E00
0E00
0E00
0E00
0E00
0E00
0E00
0E00
0E00
0E00
0E00
0E00
0E00
0E00
0E00
FFF0
FFF0
FFF0
ENDCHAR
STARTCHAR uni1E2E.ss01
ENCODING -1
SWIDTH 476 0
DWIDTH 15 0
BBX 12 32 2 0
BITMAP
0380
07C0
1F00
0400
0000
3180
7BC0
3180
0000
0000
FFF0
FFF0
FFF0
0E00
0E00
0E00
0E00
0E00
0E00
0E00
0E00
0E00
0E00
0E00
0E00
0E00
0E00
0E00
0E00
FFF0
FFF0
FFF0
ENDCHAR
STARTCHAR Idotaccent.ss01
ENCODING -1
SWIDTH 476 0
DWIDTH 15 0
BBX 12 28 2 0
BITMAP
0E00
0E00
0E00
0E00
0000
0000
FFF0
FFF0
FFF0
0E00
0E00
0E00
0E00
0E00
0E00
0E00
0E00
0E00
0E00
0E00
0E00
0E00
0E00
0E00
0E00
FFF0
FFF0
FFF0
ENDCHAR
STARTCHAR uni1ECA.ss01
ENCODING -1
SWIDTH 476 0
DWIDTH 15 0
BBX 12 28 2 -6
BITMAP
FFF0
FFF0
FFF0
0E00
0E00
0E00
0E00
0E00
0E00
0E00
0E00
0E00
0E00
0E00
0E00
0E00
0E00
0E00
0E00
FFF0
FFF0
FFF0
0000
0000
0E00
0E00
0E00
0E00
ENDCHAR
STARTCHAR Igrave.ss01
ENCODING -1
SWIDTH 476 0
DWIDTH 15 0
BBX 12 29 2 0
BITMAP
1000
7800
3C00
1E00
0C00
0000
0000
FFF0
FFF0
FFF0
0E00
0E00
0E00
0E00
0E00
0E00
0E00
0E00
0E00
0E00
0E00
0E00
0E00
0E00
0E00
0E00
FFF0
FFF0
FFF0
ENDCHAR
STARTCHAR uni1EC8.ss01
ENCODING -1
SWIDTH 476 0
DWIDTH 15 0
BBX 12 31 2 0
BITMAP
0400
1F00
1F00
0380
0300
0700
0600
0000
0000
FFF0
FFF0
FFF0
0E00
0E00
0E00
0E00
0E00
0E00
0E00
0E00
0E00
0E00
0E00
0E00
0E00
0E00
0E00
0E00
FFF0
FFF0
FFF0
ENDCHAR
STARTCHAR uni020A.ss01
ENCODING -1
SWIDTH 476 0
DWIDTH 15 0
BBX 12 30 2 0
BITMAP
0400
1F00
3F80
31C0
70C0
0000
0000
0000
FFF0
FFF0
FFF0
0E00
0E00
0E00
0E00
0E00
0E00
0E00
0E00
0E00
0E00
0E00
0E00
0E00
0E00
0E00
0E00
FFF0
FFF0
FFF0
ENDCHAR
STARTCHAR Imacron.ss01
ENCODING -1
SWIDTH 476 0
DWIDTH 15 0
BBX 12 28 2 0
BITMAP
7FE0
7FE0
7FE0
0000
0000
0000
FFF0
FFF0
FFF0
0E00
0E00
0E00
0E00
0E00
0E00
0E00
0E00
0E00
0E00
0E00
0E00
0E00
0E00
0E00
0E00
FFF0
FFF0
FFF0
ENDCHAR
STARTCHAR Iogonek.ss01
ENCODING -1
SWIDTH 476 0
DWIDTH 15 0
BBX 12 29 2 -7
BITMAP
FFF0
FFF0
FFF0
0E00
0E00
0E00
0E00
0E00
0E00
0E00
0E00
0E00
0E00
0E00
0E00
0E00
0E00
0E00
0E00
FFF0
FFF0
FFF0
1C00
3800
3000
7000
7E00
3E00
1E00
ENDCHAR
STARTCHAR Itilde.ss01
ENCODING -1
SWIDTH 476 0
DWIDTH 15 0
BBX 12 28 2 0
BITMAP
38E0
7FC0
7FC0
6380
0000
0000
FFF0
FFF0
FFF0
0E00
0E00
0E00
0E00
0E00
0E00
0E00
0E00
0E00
0E00
0E00
0E00
0E00
0E00
0E00
0E00
FFF0
FFF0
FFF0
ENDCHAR
STARTCHAR J.ss01
ENCODING -1
SWIDTH 490 0
DWIDTH 16 0
BBX 13 25 0 -3
BITMAP
3FF8
3FF8
3FF8
0038
0038
0038
0038
0038
0038
0038
0038
0038
0038
0038
0038
0038
0038
0038
0038
0038
4038
E070
FFF0
7FE0
1F80
ENDCHAR
STARTCHAR Jacute
ENCODING -1
SWIDTH 490 0
DWIDTH 16 0
BBX 13 29 0 0
BITMAP
0040
00F0
01E0
03C0
0100
0000
0000
3FF8
3FF8
3FF8
0038
0038
0038
0038
0038
0038
0038
0038
0038
0038
0038
0038
0038
0038
4078
E070
FFF0
7FE0
1F80
ENDCHAR
STARTCHAR Jacute.ss01
ENCODING -1
SWIDTH 490 0
DWIDTH 16 0
BBX 13 32 0 -3
BITMAP
0040
00F8
00E0
01C0
0380
0000
0000
3FF8
3FF8
3FF8
0038
0038
0038
0038
0038
0038
0038
0038
0038
0038
0038
0038
0038
0038
0038
0038
0038
4038
E070
FFF0
7FE0
1F80
ENDCHAR
STARTCHAR Jcircumflex.ss01
ENCODING -1
SWIDTH 490 0
DWIDTH 16 0
BBX 13 33 0 -3
BITMAP
0380
07C0
07E0
0EF0
1C78
0000
0000
0000
3FF8
3FF8
3FF8
0038
0038
0038
0038
0038
0038
0038
0038
0038
0038
0038
0038
0038
0038
0038
0038
0038
4038
E070
FFF0
7FE0
1F80
ENDCHAR
STARTCHAR uni01C7.ss01
ENCODING -1
SWIDTH 1014 0
DWIDTH 32 0
BBX 27 25 3 -3
BITMAP
E000FFE0
E000FFE0
E000FFE0
E00000E0
E00000E0
E00000E0
E00000E0
E00000E0
E00000E0
E00000E0
E00000E0
E00000E0
E00000E0
E00000E0
E00000E0
E00000E0
E00000E0
E00000E0
E00000E0
FFF800E0
FFF901C0
FFFB81C0
0003FFC0
0001FF80
00007E00
ENDCHAR
STARTCHAR M.ss01
ENCODING -1
SWIDTH 1202 0
DWIDTH 38 0
BBX 33 22 3 0
BITMAP
E1F803F000
E7FE0FFC00
EFFF1FFE00
FC07B81F00
F803B00F00
F003E00700
F001E00780
F001C00380
E001C00380
E001C00380
E001C00380
E001C00380
E001C00380
E001C00380
E001C00380
E001C00380
E001C00380
E001C00380
E001C00380
E001C00380
E001C00380
E001C00380
ENDCHAR
STARTCHAR uni1E42.ss01
ENCODING -1
SWIDTH 1202 0
DWIDTH 38 0
BBX 33 28 3 -6
BITMAP
E1F803F000
E7FE0FFC00
EFFF1FFE00
FC07B81F00
F803B00F00
F003E00700
F001E00780
F001C00380
E001C00380
E001C00380
E001C00380
E001C00380
E001C00380
E001C00380
E001C00380
E001C00380
E001C00380
E001C00380
E001C00380
E001C00380
E001C00380
E001C00380
0000000000
0000000000
0001C00000
0001C00000
0001C00000
0001C00000
ENDCHAR
STARTCHAR N.ss01
ENCODING -1
SWIDTH 774 0
DWIDTH 25 0
BBX 19 22 3 0
BITMAP
E0FC00
E3FF00
EFFF80
FE07C0
F801C0
F801E0
F000E0
F000E0
E000E0
E000E0
E000E0
E000E0
E000E0
E000E0
E000E0
E000E0
E000E0
E000E0
E000E0
E000E0
E000E0
E000E0
ENDCHAR
STARTCHAR uni01CA.ss01
ENCODING -1
SWIDTH 1264 0
DWIDTH 40 0
BBX 35 25 3 -3
BITMAP
E0FC00FFE0
E3FF00FFE0
EFFF80FFE0
FE07C000E0
F801C000E0
F801E000E0
F000E000E0
F000E000E0
E000E000E0
E000E000E0
E000E000E0
E000E000E0
E000E000E0
E000E000E0
E000E000E0
E000E000E0
E000E000E0
E000E000E0
E000E000E0
E000E000E0
E000E101C0
E000E381C0
000003FFC0
000001FF80
0000007E00
ENDCHAR
STARTCHAR Nacute.ss01
ENCODING -1
SWIDTH 774 0
DWIDTH 25 0
BBX 19 29 3 0
BITMAP
000800
001E00
003C00
003800
007000
000000
000000
E0FC00
E3FF00
EFFF80
FE07C0
F801C0
F801E0
F000E0
F000E0
E000E0
E000E0
E000E0
E000E0
E000E0
E000E0
E000E0
E000E0
E000E0
E000E0
E000E0
E000E0
E000E0
E000E0
ENDCHAR
STARTCHAR Ncaron.ss01
ENCODING -1
SWIDTH 774 0
DWIDTH 25 0
BBX 19 30 3 0
BITMAP
070E00
039C00
03F800
01F800
00F000
000000
000000
000000
E0FC00
E3FF00
EFFF80
FE07C0
F801C0
F801E0
F000E0
F000E0
E000E0
E000E0
E000E0
E000E0
E000E0
E000E0
E000E0
E000E0
E000E0
E000E0
E000E0
E000E0
E000E0
E000E0
ENDCHAR
STARTCHAR Ncommaaccent.ss01
ENCODING -1
SWIDTH 774 0
DWIDTH 25 0
BBX 19 29 3 -7
BITMAP
E0FC00
E3FF00
EFFF80
FE07C0
F801C0
F801E0
F000E0
F000E0
E000E0
E000E0
E000E0
E000E0
E000E0
E000E0
E000E0
E000E0
E000E0
E000E0
E000E0
E000E0
E000E0
E000E0
000000
000000
00E000
00C000
00C000
01C000
018000
ENDCHAR
STARTCHAR uni1E44.ss01
ENCODING -1
SWIDTH 774 0
DWIDTH 25 0
BBX 19 28 3 0
BITMAP
007000
007000
007000
007000
000000
000000
E0FC00
E3FF00
EFFF80
FE07C0
F801C0
F801E0
F000E0
F000E0
E000E0
E000E0
E000E0
E000E0
E000E0
E000E0
E000E0
E000E0
E000E0
E000E0
E000E0
E000E0
E000E0
E000E0
ENDCHAR
STARTCHAR uni1E46.ss01
ENCODING -1
SWIDTH 774 0
DWIDTH 25 0
BBX 19 28 3 -6
BITMAP
E0FC00
E3FF00
EFFF80
FE07C0
F801C0
F801E0
F000E0
F000E0
E000E0
E000E0
E000E0
E000E0
E000E0
E000E0
E000E0
E000E0
E000E0
E000E0
E000E0
E000E0
E000E0
E000E0
000000
000000
00E000
00E000
00E000
00E000
ENDCHAR
STARTCHAR Eng.ss01
ENCODING -1
SWIDTH 775 0
DWIDTH 25 0
BBX 19 28 3 -6
BITMAP
E0FC00
E3FF00
EFFF80
FE07C0
F801C0
F801E0
F000E0
F000E0
E000E0
E000E0
E000E0
E000E0
E000E0
E000E0
E000E0
E000E0
E000E0
E000E0
E000E0
E000E0
E000E0
E000E0
0000E0
0100E0
0181E0
03FFC0
01FF80
007E00
ENDCHAR
STARTCHAR uni01CB.ss01
ENCODING -1
SWIDTH 1037 0
DWIDTH 33 0
BBX 28 30 3 -6
BITMAP
00000060
000000F0
E0FC00F0
E3FF0060
EFFF8000
FE07C000
F801C000
F801E070
F000E070
F000E070
E000E070
E000E070
E000E070
E000E070
E000E070
E000E070
E000E070
E000E070
E000E070
E000E070
E000E070
E000E070
E000E070
E000E070
00000070
000000F0
000000E0
00000FE0
00000FC0
00000F80
ENDCHAR
STARTCHAR uni1E48.ss01
ENCODING -1
SWIDTH 774 0
DWIDTH 25 0
BBX 19 27 3 -5
BITMAP
E0FC00
E3FF00
EFFF80
FE07C0
F801C0
F801E0
F000E0
F000E0
E000E0
E000E0
E000E0
E000E0
E000E0
E000E0
E000E0
E000E0
E000E0
E000E0
E000E0
E000E0
E000E0
E000E0
000000
000000
07FC00
07FC00
07FC00
ENDCHAR
STARTCHAR Ntilde.ss01
ENCODING -1
SWIDTH 774 0
DWIDTH 25 0
BBX 19 28 3 0
BITMAP
01C700
03FE00
03FE00
031C00
000000
000000
E0FC00
E3FF00
EFFF80
FE07C0
F801C0
F801E0
F000E0
F000E0
E000E0
E000E0
E000E0
E000E0
E000E0
E000E0
E000E0
E000E0
E000E0
E000E0
E000E0
E000E0
E000E0
E000E0
ENDCHAR
STARTCHAR Q.ss01
ENCODING -1
SWIDTH 812 0
DWIDTH 26 0
BBX 24 26 1 -4
BITMAP
00FF00
03FFC0
0FFFE0
1F00F8
3E007C
38001C
78001E
70000E
F0000E
E0000F
E00007
E00007
E0000F
F0000E
70180E
78181E
38181C
3C183C
1F18F8
0FFFF0
03FFC0
00FF00
001800
001800
001800
001800
ENDCHAR
STARTCHAR uni018F.ss01
ENCODING -1
SWIDTH 760 0
DWIDTH 24 0
BBX 22 22 1 0
BITMAP
01FC00
07FF80
1FFFC0
3E01E0
3800F0
100078
000038
00007C
0001FC
000FFC
007F9C
01FE1C
0FF01C
3F801C
FE003C
F00038
700078
3800F0
3E01E0
0FFFC0
07FF80
01FC00
ENDCHAR
STARTCHAR T.ss01
ENCODING -1
SWIDTH 642 0
DWIDTH 21 0
BBX 18 22 1 0
BITMAP
07FC00
3FFF80
FFFFC0
F8E7C0
40E0C0
00E000
00E000
00E000
00E000
00E000
00E000
00E000
00E000
00E000
00E000
00E000
00E000
00E000
00E000
00E000
00E000
00E000
ENDCHAR
STARTCHAR Tbar.ss01
ENCODING -1
SWIDTH 642 0
DWIDTH 21 0
BBX 18 22 1 0
BITMAP
07FC00
7FFF80
FFFFC0
70E3C0
40E040
00E000
00E000
00E000
00E000
00E000
1FFF00
1FFF00
00E000
00E000
00E000
00E000
00E000
00E000
00E000
00E000
00E000
00E000
ENDCHAR
STARTCHAR Tcaron.ss01
ENCODING -1
SWIDTH 642 0
DWIDTH 21 0
BBX 18 30 1 0
BITMAP
0E3800
0E3800
077000
03E000
01C000
000000
000000
000000
07FC00
3FFF80
FFFFC0
F8E7C0
40E0C0
00E000
00E000
00E000
00E000
00E000
00E000
00E000
00E000
00E000
00E000
00E000
00E000
00E000
00E000
00E000
00E000
00E000
ENDCHAR
STARTCHAR uni0162.ss01
ENCODING -1
SWIDTH 642 0
DWIDTH 21 0
BBX 18 29 1 -7
BITMAP
07FC00
3FFF80
FFFFC0
F8E7C0
40E0C0
00E000
00E000
00E000
00E000
00E000
00E000
00E000
00E000
00E000
00E000
00E000
00E000
00E000
00E000
00E000
00E000
00E000
00C000
00C000
00F000
003800
01F800
03F000
01E000
ENDCHAR
STARTCHAR uni021A.ss01
ENCODING -1
SWIDTH 642 0
DWIDTH 21 0
BBX 18 29 1 -7
BITMAP
07FC00
3FFF80
FFFFC0
F8E7C0
40E0C0
00E000
00E000
00E000
00E000
00E000
00E000
00E000
00E000
00E000
00E000
00E000
00E000
00E000
00E000
00E000
00E000
00E000
000000
000000
00E000
01C000
01C000
018000
018000
ENDCHAR
STARTCHAR uni1E6C.ss01
ENCODING -1
SWIDTH 642 0
DWIDTH 21 0
BBX 18 28 1 -6
BITMAP
07FC00
3FFF80
FFFFC0
F8E7C0
40E0C0
00E000
00E000
00E000
00E000
00E000
00E000
00E000
00E000
00E000
00E000
00E000
00E000
00E000
00E000
00E000
00E000
00E000
000000
000000
00C000
01E000
01E000
00C000
ENDCHAR
STARTCHAR uni1E6E.ss01
ENCODING -1
SWIDTH 642 0
DWIDTH 21 0
BBX 18 27 1 -5
BITMAP
07FC00
3FFF80
FFFFC0
F8E7C0
40E0C0
00E000
00E000
00E000
00E000
00E000
00E000
00E000
00E000
00E000
00E000
00E000
00E000
00E000
00E000
00E000
00E000
00E000
000000
000000
07FC00
07FC00
07FC00
ENDCHAR
STARTCHAR U.ss01
ENCODING -1
SWIDTH 774 0
DWIDTH 25 0
BBX 19 22 3 0
BITMAP
E001E0
E001E0
E001E0
E001E0
E001E0
E001E0
E001E0
E001E0
E001E0
E001E0
E001E0
E001E0
E001E0
E001E0
E001E0
E001E0
F003E0
F007E0
780FE0
3FFFE0
1FF9E0
07E1E0
ENDCHAR
STARTCHAR Uacute.ss01
ENCODING -1
SWIDTH 774 0
DWIDTH 25 0
BBX 19 29 3 0
BITMAP
001000
003C00
007800
00F000
004000
000000
000000
E001E0
E001E0
E001E0
E001E0
E001E0
E001E0
E001E0
E001E0
E001E0
E001E0
E001E0
E001E0
E001E0
E001E0
E001E0
E001E0
F003E0
F007E0
780FE0
3FFFE0
1FF9E0
07E1E0
ENDCHAR
STARTCHAR Ubreve.ss01
ENCODING -1
SWIDTH 774 0
DWIDTH 25 0
BBX 19 29 3 0
BITMAP
060C00
071C00
03F800
03F800
01E000
000000
000000
E001E0
E001E0
E001E0
E001E0
E001E0
E001E0
E001E0
E001E0
E001E0
E001E0
E001E0
E001E0
E001E0
E001E0
E001E0
E001E0
F003E0
F007E0
780FE0
3FFFE0
1FF9E0
07E1E0
ENDCHAR
STARTCHAR Ucircumflex.ss01
ENCODING -1
SWIDTH 774 0
DWIDTH 25 0
BBX 19 30 3 0
BITMAP
00E000
01F000
03F000
03B800
0F1C00
000000
000000
000000
E001E0
E001E0
E001E0
E001E0
E001E0
E001E0
E001E0
E001E0
E001E0
E001E0
E001E0
E001E0
E001E0
E001E0
E001E0
E001E0
F003E0
F007E0
780FE0
3FFFE0
1FF9E0
07E1E0
ENDCHAR
STARTCHAR uni0214.ss01
ENCODING -1
SWIDTH 774 0
DWIDTH 25 0
BBX 19 29 3 0
BITMAP
042000
1EF000
0E7000
073800
021000
000000
000000
E001E0
E001E0
E001E0
E001E0
E001E0
E001E0
E001E0
E001E0
E001E0
E001E0
E001E0
E001E0
E001E0
E001E0
E001E0
E001E0
F003E0
F007E0
780FE0
3FFFE0
1FF9E0
07E1E0
ENDCHAR
STARTCHAR Udieresis.alt
ENCODING -1
SWIDTH 762 0
DWIDTH 24 0
BBX 19 23 3 0
BITMAP
021000
E738E0
E73CE0
E718E0
E000E0
E000E0
E000E0
E000E0
E000E0
E000E0
E000E0
E000E0
E000E0
E000E0
E000E0
E001E0
E001C0
F001C0
7003C0
7C0780
3FFF00
1FFE00
07F800
ENDCHAR
STARTCHAR Udieresis.ss01
ENCODING -1
SWIDTH 774 0
DWIDTH 25 0
BBX 19 27 3 0
BITMAP
071800
073C00
071800
000000
000000
E001E0
E001E0
E001E0
E001E0
E001E0
E001E0
E001E0
E001E0
E001E0
E001E0
E001E0
E001E0
E001E0
E001E0
E001E0
E001E0
F003E0
F007E0
780FE0
3FFFE0
1FF9E0
07E1E0
ENDCHAR
STARTCHAR Udieresis.ss01.alt
ENCODING -1
SWIDTH 774 0
DWIDTH 25 0
BBX 19 23 3 0
BITMAP
021000
E739E0
E73DE0
E719E0
E001E0
E001E0
E001E0
E001E0
E001E0
E001E0
E001E0
E001E0
E001E0
E001E0
E001E0
E001E0
E001E0
F003E0
F007E0
7C0FE0
3FFDE0
1FF9E0
0FF1E0
ENDCHAR
STARTCHAR uni1EE4.ss01
ENCODING -1
SWIDTH 774 0
DWIDTH 25 0
BBX 19 28 3 -6
BITMAP
E001E0
E001E0
E001E0
E001E0
E001E0
E001E0
E001E0
E001E0
E001E0
E001E0
E001E0
E001E0
E001E0
E001E0
E001E0
E001E0
F003E0
F007E0
780FE0
3FFFE0
1FF9E0
07E1E0
000000
000000
00E000
00E000
00E000
00E000
ENDCHAR
STARTCHAR Ugrave.ss01
ENCODING -1
SWIDTH 774 0
DWIDTH 25 0
BBX 19 29 3 0
BITMAP
010000
0F8000
038000
01C000
00A000
000000
000000
E001E0
E001E0
E001E0
E001E0
E001E0
E001E0
E001E0
E001E0
E001E0
E001E0
E001E0
E001E0
E001E0
E001E0
E001E0
E001E0
F003E0
F007E0
780FE0
3FFFE0
1FF9E0
07E1E0
ENDCHAR
STARTCHAR uni1EE6.ss01
ENCODING -1
SWIDTH 774 0
DWIDTH 25 0
BBX 19 31 3 0
BITMAP
004000
03F000
01F000
007000
003000
007000
00E000
000000
000000
E001E0
E001E0
E001E0
E001E0
E001E0
E001E0
E001E0
E001E0
E001E0
E001E0
E001E0
E001E0
E001E0
E001E0
E001E0
E001E0
F003E0
F007E0
780FE0
3FFFE0
1FF9E0
07E1E0
ENDCHAR
STARTCHAR Uhorn.ss01
ENCODING -1
SWIDTH 792 0
DWIDTH 25 0
BBX 22 26 3 0
BITMAP
00001C
00001C
00000C
00001C
E001F8
E001F0
E001E0
E001E0
E001E0
E001E0
E001E0
E001E0
E001E0
E001E0
E001E0
E001E0
E001E0
E001E0
E001E0
E001E0
F003E0
F007E0
780FE0
3FFFE0
1FF9E0
07E1E0
ENDCHAR
STARTCHAR uni1EE8.ss01
ENCODING -1
SWIDTH 792 0
DWIDTH 25 0
BBX 22 29 3 0
BITMAP
001000
003C00
007800
00F01C
00401C
00000C
00001C
E001F8
E001F0
E001E0
E001E0
E001E0
E001E0
E001E0
E001E0
E001E0
E001E0
E001E0
E001E0
E001E0
E001E0
E001E0
E001E0
F003E0
F007E0
780FE0
3FFFE0
1FF9E0
07E1E0
ENDCHAR
STARTCHAR uni1EF0.ss01
ENCODING -1
SWIDTH 792 0
DWIDTH 25 0
BBX 22 32 3 -6
BITMAP
00001C
00001C
00000C
00001C
E001F8
E001F0
E001E0
E001E0
E001E0
E001E0
E001E0
E001E0
E001E0
E001E0
E001E0
E001E0
E001E0
E001E0
E001E0
E001E0
F003E0
F007E0
780FE0
3FFFE0
1FF9E0
07E1E0
000000
000000
00E000
00E000
00E000
00E000
ENDCHAR
STARTCHAR uni1EEA.ss01
ENCODING -1
SWIDTH 792 0
DWIDTH 25 0
BBX 22 29 3 0
BITMAP
010000
0F8000
038000
01C01C
00A01C
00000C
00001C
E001F8
E001F0
E001E0
E001E0
E001E0
E001E0
E001E0
E001E0
E001E0
E001E0
E001E0
E001E0
E001E0
E001E0
E001E0
E001E0
F003E0
F007E0
780FE0
3FFFE0
1FF9E0
07E1E0
ENDCHAR
STARTCHAR uni1EEC.ss01
ENCODING -1
SWIDTH 792 0
DWIDTH 25 0
BBX 22 31 3 0
BITMAP
004000
03F000
01F000
003000
003000
00701C
00E01C
00000C
00001C
E001F8
E001F0
E001E0
E001E0
E001E0
E001E0
E001E0
E001E0
E001E0
E001E0
E001E0
E001E0
E001E0
E001E0
E001E0
E001E0
F003E0
F007E0
780FE0
3FFFE0
1FF9E0
07E1E0
ENDCHAR
STARTCHAR uni1EEE.ss01
ENCODING -1
SWIDTH 792 0
DWIDTH 25 0
BBX 22 28 3 0
BITMAP
038C00
07FC00
07FC1C
0E381C
00000C
00001C
E001F8
E001F0
E001E0
E001E0
E001E0
E001E0
E001E0
E001E0
E001E0
E001E0
E001E0
E001E0
E001E0
E001E0
E001E0
E001E0
F003E0
F007E0
780FE0
3FFFE0
1FF9E0
07E1E0
ENDCHAR
STARTCHAR Uhungarumlaut.ss01
ENCODING -1
SWIDTH 774 0
DWIDTH 25 0
BBX 19 29 3 0
BITMAP
018C00
01CE00
039C00
031800
073000
000000
000000
E001E0
E001E0
E001E0
E001E0
E001E0
E001E0
E001E0
E001E0
E001E0
E001E0
E001E0
E001E0
E001E0
E001E0
E001E0
E001E0
F003E0
F007E0
780FE0
3FFFE0
1FF9E0
07E1E0
ENDCHAR
STARTCHAR uni0216.ss01
ENCODING -1
SWIDTH 774 0
DWIDTH 25 0
BBX 19 30 3 0
BITMAP
004000
01F000
03F800
071800
061C00
000000
000000
000000
E001E0
E001E0
E001E0
E001E0
E001E0
E001E0
E001E0
E001E0
E001E0
E001E0
E001E0
E001E0
E001E0
E001E0
E001E0
E001E0
F003E0
F007E0
780FE0
3FFFE0
1FF9E0
07E1E0
ENDCHAR
STARTCHAR Umacron.ss01
ENCODING -1
SWIDTH 774 0
DWIDTH 25 0
BBX 19 28 3 0
BITMAP
0FFC00
0FFC00
0FFC00
000000
000000
000000
E001E0
E001E0
E001E0
E001E0
E001E0
E001E0
E001E0
E001E0
E001E0
E001E0
E001E0
E001E0
E001E0
E001E0
E001E0
E001E0
F003E0
F007E0
780FE0
3FFFE0
1FF9E0
07E1E0
ENDCHAR
STARTCHAR uni1E7A.ss01
ENCODING -1
SWIDTH 774 0
DWIDTH 25 0
BBX 19 31 3 0
BITMAP
073800
073800
073800
000000
07F800
07F800
07F800
000000
000000
E001E0
E001E0
E001E0
E001E0
E001E0
E001E0
E001E0
E001E0
E001E0
E001E0
E001E0
E001E0
E001E0
E001E0
E001E0
E001E0
F003E0
F007E0
780FE0
3FFFE0
1FF9E0
07E1E0
ENDCHAR
STARTCHAR Uogonek.ss01
ENCODING -1
SWIDTH 774 0
DWIDTH 25 0
BBX 19 29 3 -7
BITMAP
E001E0
E001E0
E001E0
E001E0
E001E0
E001E0
E001E0
E001E0
E001E0
E001E0
E001E0
E001E0
E001E0
E001E0
E001E0
E001E0
F003E0
F007E0
780FE0
3FFFE0
1FF9E0
07E1E0
0003C0
000380
000700
000700
0007C0
0007C0
0003E0
ENDCHAR
STARTCHAR Uring.ss01
ENCODING -1
SWIDTH 774 0
DWIDTH 25 0
BBX 19 31 3 0
BITMAP
00E000
01F000
031800
031800
031800
01F000
00E000
000000
000000
E001E0
E001E0
E001E0
E001E0
E001E0
E001E0
E001E0
E001E0
E001E0
E001E0
E001E0
E001E0
E001E0
E001E0
E001E0
E001E0
F003E0
F007E0
780FE0
3FFFE0
1FF9E0
07E1E0
ENDCHAR
STARTCHAR Utilde.ss01
ENCODING -1
SWIDTH 774 0
DWIDTH 25 0
BBX 19 28 3 0
BITMAP
038C00
07FC00
07FC00
0E3800
000000
000000
E001E0
E001E0
E001E0
E001E0
E001E0
E001E0
E001E0
E001E0
E001E0
E001E0
E001E0
E001E0
E001E0
E001E0
E001E0
E001E0
F003E0
F007E0
780FE0
3FFFE0
1FF9E0
07E1E0
ENDCHAR
STARTCHAR uni1E78.ss01
ENCODING -1
SWIDTH 774 0
DWIDTH 25 0
BBX 19 33 3 0
BITMAP
003800
007C00
01F000
004000
000000
000000
038C00
07CC00
07FC00
0C3800
000000
E001E0
E001E0
E001E0
E001E0
E001E0
E001E0
E001E0
E001E0
E001E0
E001E0
E001E0
E001E0
E001E0
E001E0
E001E0
E001E0
F003E0
F007E0
780FE0
3FFFE0
1FF9E0
07E1E0
ENDCHAR
STARTCHAR W.ss01
ENCODING -1
SWIDTH 1178 0
DWIDTH 38 0
BBX 32 22 3 0
BITMAP
E0038007
E0038007
E0038007
E0038007
E0038007
E0038007
E0038007
E0038007
E0038007
E0038007
E0038007
E0038007
E0038007
E0038007
E003C007
E003C007
E003C00F
F007E00E
780EF01E
3FFE7FFC
1FF83FF8
07E00FE0
ENDCHAR
STARTCHAR Wacute.ss01
ENCODING -1
SWIDTH 1178 0
DWIDTH 38 0
BBX 32 29 3 0
BITMAP
00004000
0000F800
0000E000
0001C000
00028000
00000000
00000000
E0038007
E0038007
E0038007
E0038007
E0038007
E0038007
E0038007
E0038007
E0038007
E0038007
E0038007
E0038007
E0038007
E0038007
E003C007
E003C007
E003C00F
F007E00E
780EF01E
3FFE7FFC
1FF83FF8
07E00FE0
ENDCHAR
STARTCHAR Wcircumflex.ss01
ENCODING -1
SWIDTH 1178 0
DWIDTH 38 0
BBX 32 30 3 0
BITMAP
00038000
0003C000
0007E000
000EF000
001C7800
00000000
00000000
00000000
E0038007
E0038007
E0038007
E0038007
E0038007
E0038007
E0038007
E0038007
E0038007
E0038007
E0038007
E0038007
E0038007
E0038007
E003C007
E003C007
E003C00F
F007E00E
780EF01E
3FFE7FFC
1FF83FF8
07E00FE0
ENDCHAR
STARTCHAR Wdieresis.ss01
ENCODING -1
SWIDTH 1178 0
DWIDTH 38 0
BBX 32 27 3 0
BITMAP
000C7000
001E7000
000C7000
00000000
00000000
E0038007
E0038007
E0038007
E0038007
E0038007
E0038007
E0038007
E0038007
E0038007
E0038007
E0038007
E0038007
E0038007
E0038007
E003C007
E003C007
E003C00F
F007E00E
780EF01E
3FFE7FFC
1FF83FF8
07E00FE0
ENDCHAR
STARTCHAR Wgrave.ss01
ENCODING -1
SWIDTH 1178 0
DWIDTH 38 0
BBX 32 29 3 0
BITMAP
00040000
001E0000
000F0000
00078000
00010000
00000000
00000000
E0038007
E0038007
E0038007
E0038007
E0038007
E0038007
E0038007
E0038007
E0038007
E0038007
E0038007
E0038007
E0038007
E0038007
E003C007
E003C007
E003C00F
F007E00E
780EF01E
3FFE7FFC
1FF83FF8
07E00FE0
ENDCHAR
STARTCHAR Y.ss01
ENCODING -1
SWIDTH 738 0
DWIDTH 24 0
BBX 18 26 3 -4
BITMAP
E001C0
E001C0
E001C0
E001C0
E001C0
E001C0
E001C0
E001C0
E001C0
E001C0
E003C0
E003C0
F007C0
780FC0
3FFDC0
1FF9C0
07E1C0
0001C0
0001C0
0003C0
400380
E00780
FC1F00
3FFE00
1FF800
008000
ENDCHAR
STARTCHAR Yacute.ss01
ENCODING -1
SWIDTH 738 0
DWIDTH 24 0
BBX 18 33 3 -4
BITMAP
002000
007C00
007000
00E000
01C000
000000
000000
E001C0
E001C0
E001C0
E001C0
E001C0
E001C0
E001C0
E001C0
E001C0
E001C0
E003C0
E003C0
F007C0
780FC0
3FFDC0
1FF9C0
07E1C0
0001C0
0001C0
0003C0
400380
E00780
FC1F00
3FFE00
1FF800
008000
ENDCHAR
STARTCHAR Ycircumflex.ss01
ENCODING -1
SWIDTH 738 0
DWIDTH 24 0
BBX 18 34 3 -4
BITMAP
01C000
03E000
03F000
077800
0E3C00
000000
000000
000000
E001C0
E001C0
E001C0
E001C0
E001C0
E001C0
E001C0
E001C0
E001C0
E001C0
E003C0
E003C0
F007C0
780FC0
3FFDC0
1FF9C0
07E1C0
0001C0
0001C0
0003C0
400380
E00780
FC1F00
3FFE00
1FF800
008000
ENDCHAR
STARTCHAR Ydieresis.ss01
ENCODING -1
SWIDTH 738 0
DWIDTH 24 0
BBX 18 31 3 -4
BITMAP
063800
0F3800
063800
000000
000000
E001C0
E001C0
E001C0
E001C0
E001C0
E001C0
E001C0
E001C0
E001C0
E001C0
E003C0
E003C0
F007C0
780FC0
3FFDC0
1FF9C0
07E1C0
0001C0
0001C0
0003C0
400380
E00780
FC1F00
3FFE00
1FF800
008000
ENDCHAR
ENDFONT
